M48
INCH,TZ
T1C0.014
T2C0.020
T3C0.025
T4C0.059
T5C0.063
T6C0.079
T7C0.158
%
G90
G05
T1
X5.5Y-3.
X5.5Y-3.1
X5.5Y-3.2
X5.5Y-3.3
X5.5Y-3.4
X5.5Y-3.5
X5.5Y-3.6
X5.5Y-3.7
X5.5Y-3.8
X5.5Y-3.9
X5.5Y-4.
X5.5Y-4.1
X5.5Y-4.2
X5.5Y-4.3
X5.5Y-4.4
X5.5Y-4.5
X5.5Y-4.6
X5.5Y-4.7
X5.75Y-2.75
X5.75Y-5.
X5.85Y-2.75
X5.85Y-5.
X5.95Y-2.75
X5.95Y-5.
X6.05Y-2.75
X6.05Y-2.85
X6.05Y-3.45
X6.05Y-3.55
X6.05Y-3.85
X6.05Y-3.95
X6.05Y-4.05
X6.05Y-4.25
X6.05Y-4.35
X6.05Y-4.45
X6.05Y-4.95
X6.07Y-3.64
X6.07Y-3.67
X6.07Y-3.7
X6.07Y-3.73
X6.07Y-3.76
X6.1Y-3.64
X6.1Y-3.67
X6.1Y-3.7
X6.1Y-3.73
X6.1Y-3.76
X6.13Y-3.64
X6.13Y-3.67
X6.13Y-3.7
X6.13Y-3.73
X6.13Y-3.76
X6.15Y-2.8
X6.15Y-3.2
X6.15Y-3.4
X6.15Y-3.5
X6.15Y-3.6
X6.15Y-3.8
X6.15Y-3.9
X6.15Y-4.1
X6.15Y-4.2
X6.15Y-4.3
X6.15Y-4.4
X6.15Y-4.9
X6.15Y-5.
X6.25Y-2.75
X6.25Y-5.
X6.35Y-2.75
X6.35Y-5.
X6.45Y-2.75
X6.45Y-4.9
X6.55Y-2.75
X6.55Y-4.9
X6.65Y-2.75
X6.65Y-4.9
X6.75Y-2.75
X6.75Y-4.9
X6.85Y-2.75
X6.85Y-4.9
X6.95Y-2.75
X6.95Y-4.9
X7.05Y-2.75
X7.05Y-4.9
X7.15Y-2.75
X7.15Y-4.9
X7.2Y-3.6
X7.25Y-2.75
X7.25Y-4.9
X7.3Y-3.6
X7.35Y-2.75
X7.35Y-4.9
X7.4Y-3.6
X7.45Y-2.75
X7.45Y-4.9
X7.5Y-3.6
X7.55Y-2.75
X7.55Y-4.9
X7.6Y-3.7
X7.65Y-2.75
X7.65Y-4.9
X7.7Y-3.7
X7.75Y-2.75
X7.75Y-4.9
X7.8Y-3.7
X7.85Y-2.75
X7.85Y-4.9
X7.9Y-3.6
X7.95Y-2.75
X7.95Y-4.9
X8.05Y-2.75
X8.05Y-5.
X8.15Y-2.75
X8.15Y-5.
X8.2Y-3.9
X8.2Y-4.
X8.2Y-4.1
X8.2Y-4.25
X8.2Y-4.35
X8.25Y-2.75
X8.25Y-5.
X8.5Y-3.
X8.5Y-3.1
X8.5Y-3.2
X8.5Y-3.3
X8.5Y-3.4
X8.5Y-3.5
X8.5Y-3.6
X8.5Y-3.7
X8.5Y-3.8
X8.5Y-3.9
X8.5Y-4.
X8.5Y-4.1
X8.5Y-4.2
X8.5Y-4.3
X8.5Y-4.4
X8.5Y-4.5
X8.5Y-4.6
X8.5Y-4.7
T2
X6.915Y-3.305
X6.915Y-3.345
X6.915Y-3.385
X6.915Y-3.93
X6.915Y-3.97
X6.915Y-4.01
X6.955Y-3.305
X6.955Y-3.345
X6.955Y-3.385
X6.955Y-3.93
X6.955Y-3.97
X6.955Y-4.01
X6.995Y-3.305
X6.995Y-3.345
X6.995Y-3.385
X6.995Y-3.93
X6.995Y-3.97
X6.995Y-4.01
X7.035Y-3.305
X7.035Y-3.345
X7.035Y-3.385
X7.035Y-3.93
X7.035Y-3.97
X7.035Y-4.01
T3
X5.65Y-4.325
X5.65Y-4.55
X5.825Y-3.75
X5.825Y-4.275
X6.225Y-3.925
X6.325Y-3.725
X6.325Y-3.775
X6.375Y-3.925
X6.65Y-4.175
X6.65Y-4.5
X6.8Y-4.625
X6.85Y-4.05
X6.85Y-4.175
X6.85Y-4.675
X6.9Y-4.625
X6.95Y-4.575
X7.Y-4.525
T4
X8.05Y-3.175
X8.05Y-4.55
X8.25Y-3.175
X8.25Y-4.55
T5
X5.95Y-4.05
X5.95Y-4.35
X6.3Y-2.975
X6.85Y-3.
X7.085Y-2.9331
X7.085Y-3.0669
X7.1Y-4.325
X7.615Y-2.9331
X7.615Y-3.0669
X8.025Y-3.725
X8.275Y-3.725
T6
X7.295Y-4.325
X7.855Y-4.325
T7
X5.5906Y-2.8346
X5.5906Y-4.8819
X8.4252Y-2.8346
X8.4252Y-4.8819
T0
M30
