G04 #@! TF.FileFunction,Legend,Bot*
%FSLAX46Y46*%
G04 Gerber Fmt 4.6, Leading zero omitted, Abs format (unit mm)*
G04 Created by KiCad (PCBNEW (2015-01-23 BZR 5386)-product) date Tue 10 Feb 2015 10:46:28 PM PST*
%MOMM*%
G01*
G04 APERTURE LIST*
%ADD10C,0.100000*%
%ADD11C,0.150000*%
G04 APERTURE END LIST*
D10*
D11*
X170215000Y-106920000D02*
X171415000Y-106920000D01*
X171415000Y-105170000D02*
X170215000Y-105170000D01*
X171457857Y-104397381D02*
X171791191Y-103921190D01*
X172029286Y-104397381D02*
X172029286Y-103397381D01*
X171648333Y-103397381D01*
X171553095Y-103445000D01*
X171505476Y-103492619D01*
X171457857Y-103587857D01*
X171457857Y-103730714D01*
X171505476Y-103825952D01*
X171553095Y-103873571D01*
X171648333Y-103921190D01*
X172029286Y-103921190D01*
X170505476Y-104397381D02*
X171076905Y-104397381D01*
X170791191Y-104397381D02*
X170791191Y-103397381D01*
X170886429Y-103540238D01*
X170981667Y-103635476D01*
X171076905Y-103683095D01*
X170124524Y-103492619D02*
X170076905Y-103445000D01*
X169981667Y-103397381D01*
X169743571Y-103397381D01*
X169648333Y-103445000D01*
X169600714Y-103492619D01*
X169553095Y-103587857D01*
X169553095Y-103683095D01*
X169600714Y-103825952D01*
X170172143Y-104397381D01*
X169553095Y-104397381D01*
X170862619Y-107597381D02*
X170767380Y-107597381D01*
X170672142Y-107645000D01*
X170624523Y-107692619D01*
X170576904Y-107787857D01*
X170529285Y-107978333D01*
X170529285Y-108216429D01*
X170576904Y-108406905D01*
X170624523Y-108502143D01*
X170672142Y-108549762D01*
X170767380Y-108597381D01*
X170862619Y-108597381D01*
X170957857Y-108549762D01*
X171005476Y-108502143D01*
X171053095Y-108406905D01*
X171100714Y-108216429D01*
X171100714Y-107978333D01*
X171053095Y-107787857D01*
X171005476Y-107692619D01*
X170957857Y-107645000D01*
X170862619Y-107597381D01*
M02*
