G04 #@! TF.FileFunction,Copper,L1,Top,Signal*
%FSLAX46Y46*%
G04 Gerber Fmt 4.6, Leading zero omitted, Abs format (unit mm)*
G04 Created by KiCad (PCBNEW (2014-12-22 BZR 5335)-product) date Thu 25 Dec 2014 04:56:00 AM PST*
%MOMM*%
G01*
G04 APERTURE LIST*
%ADD10C,0.100000*%
%ADD11C,1.397000*%
%ADD12C,2.500000*%
%ADD13C,3.000000*%
%ADD14R,0.450000X1.080000*%
%ADD15R,4.260000X3.540000*%
%ADD16R,1.000000X0.400000*%
%ADD17R,3.000000X4.200000*%
%ADD18R,1.000000X1.250000*%
%ADD19R,1.600000X1.000000*%
%ADD20R,1.250000X1.000000*%
%ADD21R,2.400300X4.000500*%
%ADD22R,1.000000X1.600000*%
%ADD23R,2.301240X2.499360*%
%ADD24R,0.700000X1.300000*%
%ADD25R,1.300000X0.700000*%
%ADD26R,1.000000X3.200000*%
%ADD27R,3.599180X1.600200*%
%ADD28C,0.889000*%
%ADD29C,0.350000*%
%ADD30C,0.254000*%
%ADD31C,1.225000*%
%ADD32C,0.612500*%
%ADD33C,2.540000*%
G04 APERTURE END LIST*
D10*
D11*
X173990000Y-93980000D03*
X173990000Y-96520000D03*
D12*
X179959000Y-77900000D03*
X179959000Y-74500000D03*
X193421000Y-74500000D03*
X193421000Y-77900000D03*
D13*
X185293000Y-111760000D03*
X199517000Y-111760000D03*
X149860000Y-102870000D03*
X149860000Y-110490000D03*
X173990000Y-76200000D03*
X162877500Y-75882500D03*
X212090000Y-91440000D03*
X212090000Y-113030000D03*
X180340000Y-111760000D03*
D12*
X209550000Y-74930000D03*
X204470000Y-74930000D03*
X209550000Y-85090000D03*
X204470000Y-85090000D03*
X209550000Y-120650000D03*
X204470000Y-120650000D03*
D14*
X175260000Y-82931000D03*
X176530000Y-82931000D03*
X179070000Y-82931000D03*
X177800000Y-82931000D03*
X179070000Y-88519000D03*
X177800000Y-88519000D03*
X175260000Y-88519000D03*
D15*
X177165000Y-84836000D03*
D14*
X176530000Y-88519000D03*
X175260000Y-98806000D03*
X176530000Y-98806000D03*
X179070000Y-98806000D03*
X177800000Y-98806000D03*
X179070000Y-104394000D03*
X177800000Y-104394000D03*
X175260000Y-104394000D03*
D15*
X177165000Y-100711000D03*
D14*
X176530000Y-104394000D03*
D16*
X152040000Y-91055000D03*
X152040000Y-91705000D03*
X152040000Y-92355000D03*
X152040000Y-93005000D03*
X152040000Y-93655000D03*
X152040000Y-94305000D03*
X152040000Y-94955000D03*
X152040000Y-95605000D03*
X152040000Y-96255000D03*
X152040000Y-96905000D03*
X157840000Y-96905000D03*
X157840000Y-96255000D03*
X157840000Y-95605000D03*
X157840000Y-94955000D03*
X157840000Y-94305000D03*
X157840000Y-93655000D03*
X157840000Y-93005000D03*
X157840000Y-92355000D03*
X157840000Y-91705000D03*
X157840000Y-91055000D03*
D17*
X154940000Y-93980000D03*
D18*
X157527500Y-78422500D03*
X155527500Y-78422500D03*
D19*
X166370000Y-89940000D03*
X166370000Y-92940000D03*
D18*
X146415000Y-90170000D03*
X144415000Y-90170000D03*
X146415000Y-87630000D03*
X144415000Y-87630000D03*
D20*
X168910000Y-98695000D03*
X168910000Y-100695000D03*
X146685000Y-99965000D03*
X146685000Y-101965000D03*
X146685000Y-97520000D03*
X146685000Y-95520000D03*
D19*
X189230000Y-86130000D03*
X189230000Y-89130000D03*
X186690000Y-86130000D03*
X186690000Y-89130000D03*
X166370000Y-98020000D03*
X166370000Y-95020000D03*
D21*
X196215000Y-83629500D03*
X196215000Y-91630500D03*
D19*
X168910000Y-92940000D03*
X168910000Y-89940000D03*
D20*
X171450000Y-94885000D03*
X171450000Y-96885000D03*
D22*
X208510000Y-91440000D03*
X205510000Y-91440000D03*
X208510000Y-95250000D03*
X205510000Y-95250000D03*
D23*
X162560000Y-94223840D03*
X162560000Y-89926160D03*
X182880000Y-89778840D03*
X182880000Y-85481160D03*
X159385000Y-105653840D03*
X159385000Y-101356160D03*
X159385000Y-108976160D03*
X159385000Y-113273840D03*
D24*
X169542500Y-75882500D03*
X167642500Y-75882500D03*
X157477500Y-75882500D03*
X155577500Y-75882500D03*
X146365000Y-92710000D03*
X144465000Y-92710000D03*
X167955000Y-87630000D03*
X166055000Y-87630000D03*
D25*
X144145000Y-99375000D03*
X144145000Y-97475000D03*
X168910000Y-94935000D03*
X168910000Y-96835000D03*
D26*
X173280000Y-107315000D03*
X167080000Y-107315000D03*
D25*
X171450000Y-98745000D03*
X171450000Y-100645000D03*
X154305000Y-112075000D03*
X154305000Y-110175000D03*
X154305000Y-104455000D03*
X154305000Y-102555000D03*
D27*
X209760820Y-99695000D03*
X204259180Y-99695000D03*
D28*
X169545000Y-101600000D03*
X167005000Y-93980000D03*
X170815000Y-101600000D03*
X205105000Y-114935000D03*
X205105000Y-116205000D03*
X164465000Y-107950000D03*
X165735000Y-107950000D03*
X164465000Y-106680000D03*
X165735000Y-93980000D03*
X156845000Y-102235000D03*
X156845000Y-103505000D03*
X156845000Y-104775000D03*
X165735000Y-106680000D03*
X190500000Y-91440000D03*
X193040000Y-88900000D03*
X193040000Y-91440000D03*
X193040000Y-93980000D03*
X198120000Y-96520000D03*
X200660000Y-96520000D03*
X200660000Y-93980000D03*
X198120000Y-93980000D03*
X198120000Y-88900000D03*
X200660000Y-91440000D03*
X200660000Y-88900000D03*
X200660000Y-86360000D03*
X154940000Y-90805000D03*
X154940000Y-88900000D03*
X203200000Y-124460000D03*
X203200000Y-127000000D03*
X200660000Y-127000000D03*
X198120000Y-127000000D03*
X195580000Y-127000000D03*
X193040000Y-127000000D03*
X190500000Y-127000000D03*
X187960000Y-127000000D03*
X185420000Y-127000000D03*
X182880000Y-127000000D03*
X180340000Y-127000000D03*
X177800000Y-127000000D03*
X175260000Y-127000000D03*
X172720000Y-127000000D03*
X170180000Y-127000000D03*
X167640000Y-127000000D03*
X165100000Y-127000000D03*
X162560000Y-127000000D03*
X160020000Y-127000000D03*
X157480000Y-127000000D03*
X154940000Y-127000000D03*
X152400000Y-127000000D03*
X149860000Y-127000000D03*
X147320000Y-71120000D03*
X142240000Y-76200000D03*
X142240000Y-119380000D03*
X142240000Y-116840000D03*
X142240000Y-114300000D03*
X142240000Y-111760000D03*
X142240000Y-109220000D03*
X142240000Y-106680000D03*
X142240000Y-104140000D03*
X142240000Y-101600000D03*
X142240000Y-99060000D03*
X142240000Y-96520000D03*
X142557500Y-94297500D03*
X142240000Y-91440000D03*
X142240000Y-88900000D03*
X142240000Y-86360000D03*
X142240000Y-83820000D03*
X142240000Y-81280000D03*
X142240000Y-78740000D03*
X147320000Y-127000000D03*
X203835000Y-114935000D03*
X203835000Y-116205000D03*
X157480000Y-88900000D03*
X154940000Y-83820000D03*
X154940000Y-86360000D03*
X193040000Y-96520000D03*
X193040000Y-99060000D03*
X196850000Y-99060000D03*
X200660000Y-99060000D03*
X201930000Y-121920000D03*
X201930000Y-119380000D03*
X201930000Y-116840000D03*
X199390000Y-116840000D03*
X196850000Y-119380000D03*
X194310000Y-119380000D03*
X191770000Y-119380000D03*
X189230000Y-119380000D03*
X186690000Y-119380000D03*
X184150000Y-119380000D03*
X171450000Y-119380000D03*
X157480000Y-116840000D03*
X154940000Y-116840000D03*
X152400000Y-114300000D03*
X149860000Y-114300000D03*
X147320000Y-114300000D03*
X147320000Y-111760000D03*
X147320000Y-109220000D03*
X144780000Y-104140000D03*
X147320000Y-106680000D03*
X153670000Y-76200000D03*
X153670000Y-78422500D03*
X151130000Y-81280000D03*
X148590000Y-83820000D03*
X148590000Y-86360000D03*
X152400000Y-71120000D03*
X149860000Y-71120000D03*
X154940000Y-71120000D03*
X152400000Y-106680000D03*
X152400000Y-104140000D03*
X152400000Y-101600000D03*
X152400000Y-99060000D03*
D29*
X167640000Y-99060000D03*
X160020000Y-99060000D03*
D28*
X163195000Y-96520000D03*
X158750000Y-99695000D03*
X164465000Y-88900000D03*
X170180000Y-88900000D03*
X208915000Y-112395000D03*
X208915000Y-111125000D03*
X207645000Y-111125000D03*
X207645000Y-112395000D03*
X213360000Y-88900000D03*
X213360000Y-93980000D03*
X213360000Y-96520000D03*
X213360000Y-99060000D03*
X213360000Y-101600000D03*
X213360000Y-104140000D03*
X213360000Y-106680000D03*
X213360000Y-109220000D03*
X210820000Y-109220000D03*
X210820000Y-106680000D03*
X210820000Y-104140000D03*
X210820000Y-101600000D03*
X210820000Y-96520000D03*
X210820000Y-93980000D03*
X210820000Y-88900000D03*
X208280000Y-88900000D03*
X208280000Y-104140000D03*
X208280000Y-106680000D03*
X208280000Y-109220000D03*
D30*
X152040000Y-83910000D02*
X157527500Y-78422500D01*
X152040000Y-91055000D02*
X152040000Y-83910000D01*
X157527500Y-75932500D02*
X157477500Y-75882500D01*
D31*
X157527500Y-78422500D02*
X157527500Y-75932500D01*
X157477500Y-75882500D02*
X162877500Y-75882500D01*
X162877500Y-75882500D02*
X167642500Y-75882500D01*
D32*
X166370000Y-93345000D02*
X167005000Y-93980000D01*
X166370000Y-92940000D02*
X166370000Y-93345000D01*
X166370000Y-94615000D02*
X167005000Y-93980000D01*
X166370000Y-93345000D02*
X165735000Y-93980000D01*
X166370000Y-94615000D02*
X165735000Y-93980000D01*
X166370000Y-94615000D02*
X165735000Y-93980000D01*
X169545000Y-101600000D02*
X168910000Y-100965000D01*
X171450000Y-100965000D02*
X171450000Y-100645000D01*
X170815000Y-101600000D02*
X171450000Y-100965000D01*
D30*
X155915000Y-94955000D02*
X154940000Y-93980000D01*
X157840000Y-94955000D02*
X155915000Y-94955000D01*
D33*
X204470000Y-120650000D02*
X204470000Y-118110000D01*
D30*
X204470000Y-118110000D02*
X204470000Y-116840000D01*
X205105000Y-116205000D02*
X204470000Y-116840000D01*
X205105000Y-114935000D02*
X205105000Y-116205000D01*
D33*
X204470000Y-101600000D02*
X204470000Y-118110000D01*
X204259180Y-101389180D02*
X204470000Y-101600000D01*
X204259180Y-99695000D02*
X204259180Y-101389180D01*
D31*
X165100000Y-107315000D02*
X164465000Y-107950000D01*
X165100000Y-107315000D02*
X165735000Y-107950000D01*
X165100000Y-107315000D02*
X164465000Y-106680000D01*
D33*
X196405500Y-91440000D02*
X196215000Y-91630500D01*
X183528840Y-89130000D02*
X182880000Y-89778840D01*
X189230000Y-89130000D02*
X183528840Y-89130000D01*
X191730500Y-91630500D02*
X189230000Y-89130000D01*
X196215000Y-91630500D02*
X191730500Y-91630500D01*
D31*
X152400000Y-104140000D02*
X152400000Y-107950000D01*
X152400000Y-107950000D02*
X149860000Y-110490000D01*
X152400000Y-103505000D02*
X152400000Y-104140000D01*
X153350000Y-102555000D02*
X152400000Y-103505000D01*
X154305000Y-102555000D02*
X153350000Y-102555000D01*
D30*
X154615000Y-94305000D02*
X154940000Y-93980000D01*
X152040000Y-94305000D02*
X154615000Y-94305000D01*
D31*
X156845000Y-98425000D02*
X154940000Y-96520000D01*
X154940000Y-96520000D02*
X154940000Y-93980000D01*
X156845000Y-104775000D02*
X156845000Y-98425000D01*
X144415000Y-92440000D02*
X144415000Y-87630000D01*
X147320000Y-110490000D02*
X140970000Y-104140000D01*
X140970000Y-104140000D02*
X140970000Y-95885000D01*
X140970000Y-95885000D02*
X144415000Y-92440000D01*
X149860000Y-110490000D02*
X147320000Y-110490000D01*
X144415000Y-84185000D02*
X150177500Y-78422500D01*
X150177500Y-78422500D02*
X155527500Y-78422500D01*
X144415000Y-87630000D02*
X144415000Y-84185000D01*
X155527500Y-75932500D02*
X155577500Y-75882500D01*
X155527500Y-78422500D02*
X155527500Y-75932500D01*
D32*
X166370000Y-95020000D02*
X166370000Y-92940000D01*
X171400000Y-100695000D02*
X171450000Y-100645000D01*
X168910000Y-100695000D02*
X171400000Y-100695000D01*
X168910000Y-100965000D02*
X169545000Y-101600000D01*
X168910000Y-100695000D02*
X168910000Y-100965000D01*
D31*
X165100000Y-107315000D02*
X165735000Y-106680000D01*
D33*
X165100000Y-107315000D02*
X167080000Y-107315000D01*
D32*
X190500000Y-91440000D02*
X193040000Y-88900000D01*
X193040000Y-91440000D02*
X193040000Y-88900000D01*
X195580000Y-93980000D02*
X193040000Y-93980000D01*
X204470000Y-85090000D02*
X201930000Y-85090000D01*
X200660000Y-93980000D02*
X200660000Y-96520000D01*
X198120000Y-88900000D02*
X198120000Y-93980000D01*
X200660000Y-88900000D02*
X200660000Y-91440000D01*
X201930000Y-85090000D02*
X200660000Y-86360000D01*
X198120000Y-96520000D02*
X195580000Y-93980000D01*
X154940000Y-88900000D02*
X154940000Y-86360000D01*
X154940000Y-93980000D02*
X154940000Y-90805000D01*
D30*
X168910000Y-107315000D02*
X170180000Y-108585000D01*
X170180000Y-108585000D02*
X170180000Y-109855000D01*
X170180000Y-109855000D02*
X169545000Y-110490000D01*
X169545000Y-110490000D02*
X164465000Y-110490000D01*
X164465000Y-110490000D02*
X162560000Y-108585000D01*
X162560000Y-108585000D02*
X162560000Y-99060000D01*
X162560000Y-99060000D02*
X159105000Y-95605000D01*
X159105000Y-95605000D02*
X157840000Y-95605000D01*
X167080000Y-107315000D02*
X168910000Y-107315000D01*
D32*
X204470000Y-120650000D02*
X204470000Y-123190000D01*
X204470000Y-123190000D02*
X203200000Y-124460000D01*
X203200000Y-127000000D02*
X200660000Y-127000000D01*
X198120000Y-127000000D02*
X195580000Y-127000000D01*
X193040000Y-127000000D02*
X190500000Y-127000000D01*
X187960000Y-127000000D02*
X185420000Y-127000000D01*
X182880000Y-127000000D02*
X180340000Y-127000000D01*
X177800000Y-127000000D02*
X175260000Y-127000000D01*
X172720000Y-127000000D02*
X170180000Y-127000000D01*
X167640000Y-127000000D02*
X165100000Y-127000000D01*
X162560000Y-127000000D02*
X160020000Y-127000000D01*
X157480000Y-127000000D02*
X154940000Y-127000000D01*
X152400000Y-127000000D02*
X149860000Y-127000000D01*
X142240000Y-121920000D02*
X142240000Y-119380000D01*
X142240000Y-116840000D02*
X142240000Y-114300000D01*
X142240000Y-111760000D02*
X142240000Y-109220000D01*
X142240000Y-106680000D02*
X142240000Y-104140000D01*
X142240000Y-101600000D02*
X142240000Y-99060000D01*
X142240000Y-96520000D02*
X142557500Y-96202500D01*
X142557500Y-96202500D02*
X142557500Y-94297500D01*
X142240000Y-91440000D02*
X142240000Y-88900000D01*
X142240000Y-86360000D02*
X142240000Y-83820000D01*
X142240000Y-81280000D02*
X142240000Y-78740000D01*
D31*
X147320000Y-127000000D02*
X146050000Y-125730000D01*
X149860000Y-125730000D02*
X148590000Y-124460000D01*
X149860000Y-127000000D02*
X149860000Y-125730000D01*
X147320000Y-124460000D02*
X144780000Y-121920000D01*
X144780000Y-121920000D02*
X142240000Y-121920000D01*
X147320000Y-127000000D02*
X147320000Y-124460000D01*
X144780000Y-76200000D02*
X146050000Y-74930000D01*
X146050000Y-74930000D02*
X148590000Y-74930000D01*
X142240000Y-76200000D02*
X144780000Y-76200000D01*
X148590000Y-72390000D02*
X147320000Y-71120000D01*
X146050000Y-74930000D02*
X148590000Y-72390000D01*
X196405500Y-91440000D02*
X196215000Y-91630500D01*
X205510000Y-91440000D02*
X196405500Y-91440000D01*
X205510000Y-91440000D02*
X205510000Y-95250000D01*
X205510000Y-98444180D02*
X204259180Y-99695000D01*
X205510000Y-95250000D02*
X205510000Y-98444180D01*
D30*
X203835000Y-114935000D02*
X203835000Y-116205000D01*
X203835000Y-116205000D02*
X204470000Y-116840000D01*
D31*
X154940000Y-86360000D02*
X157480000Y-88900000D01*
X154940000Y-83820000D02*
X154940000Y-86360000D01*
X193040000Y-96520000D02*
X193040000Y-99060000D01*
X196850000Y-99060000D02*
X200660000Y-99060000D01*
X201930000Y-119380000D02*
X201930000Y-121920000D01*
X199390000Y-116840000D02*
X201930000Y-116840000D01*
X194310000Y-119380000D02*
X196850000Y-119380000D01*
X189230000Y-119380000D02*
X191770000Y-119380000D01*
X184150000Y-119380000D02*
X186690000Y-119380000D01*
X160020000Y-119380000D02*
X171450000Y-119380000D01*
X157480000Y-116840000D02*
X160020000Y-119380000D01*
X152400000Y-114300000D02*
X154940000Y-116840000D01*
X147320000Y-114300000D02*
X149860000Y-114300000D01*
X147320000Y-109220000D02*
X147320000Y-111760000D01*
X147320000Y-106680000D02*
X144780000Y-104140000D01*
X153670000Y-76200000D02*
X153670000Y-78422500D01*
X151130000Y-81280000D02*
X148590000Y-83820000D01*
X147320000Y-71120000D02*
X149860000Y-71120000D01*
D32*
X152400000Y-71120000D02*
X154940000Y-71120000D01*
D31*
X147320000Y-106680000D02*
X152400000Y-106680000D01*
X153355000Y-102555000D02*
X152400000Y-101600000D01*
X154305000Y-102555000D02*
X153355000Y-102555000D01*
D30*
X161290000Y-87630000D02*
X166055000Y-87630000D01*
X157865000Y-91055000D02*
X161290000Y-87630000D01*
X157840000Y-91055000D02*
X157865000Y-91055000D01*
X166055000Y-89625000D02*
X166370000Y-89940000D01*
D32*
X166055000Y-87630000D02*
X166055000Y-89625000D01*
D30*
X149520000Y-93005000D02*
X152040000Y-93005000D01*
X146685000Y-90170000D02*
X149520000Y-93005000D01*
X146415000Y-90170000D02*
X146685000Y-90170000D01*
X150775000Y-92355000D02*
X152040000Y-92355000D01*
X146415000Y-87995000D02*
X150775000Y-92355000D01*
X146415000Y-87630000D02*
X146415000Y-87995000D01*
X168910000Y-98695000D02*
X168545000Y-99060000D01*
D32*
X168910000Y-96835000D02*
X168910000Y-98695000D01*
D30*
X157865000Y-96905000D02*
X157840000Y-96905000D01*
X168005000Y-98695000D02*
X167640000Y-99060000D01*
X160020000Y-99060000D02*
X157865000Y-96905000D01*
X168910000Y-98695000D02*
X168005000Y-98695000D01*
D32*
X146685000Y-99965000D02*
X146685000Y-97520000D01*
D30*
X148860000Y-97520000D02*
X150125000Y-96255000D01*
X150125000Y-96255000D02*
X152040000Y-96255000D01*
X146685000Y-97520000D02*
X148860000Y-97520000D01*
D32*
X144145000Y-99425000D02*
X146685000Y-101965000D01*
X144145000Y-99375000D02*
X144145000Y-99425000D01*
X154305000Y-110175000D02*
X154305000Y-104455000D01*
D30*
X155575000Y-103505000D02*
X155575000Y-99060000D01*
X155575000Y-99060000D02*
X153035000Y-96520000D01*
X153035000Y-96520000D02*
X153035000Y-95885000D01*
X153035000Y-95885000D02*
X152755000Y-95605000D01*
X152755000Y-95605000D02*
X152040000Y-95605000D01*
X154625000Y-104455000D02*
X155575000Y-103505000D01*
X154305000Y-104455000D02*
X154625000Y-104455000D01*
X146770000Y-95605000D02*
X146685000Y-95520000D01*
X152040000Y-95605000D02*
X146770000Y-95605000D01*
D32*
X146100000Y-95520000D02*
X144145000Y-97475000D01*
X146685000Y-95520000D02*
X146100000Y-95520000D01*
D33*
X177165000Y-80694000D02*
X177165000Y-84836000D01*
X179959000Y-77900000D02*
X177165000Y-80694000D01*
X179959000Y-74500000D02*
X179959000Y-77900000D01*
X191730500Y-83629500D02*
X196215000Y-83629500D01*
X189230000Y-86130000D02*
X191730500Y-83629500D01*
X183528840Y-86130000D02*
X189230000Y-86130000D01*
X182234840Y-84836000D02*
X183528840Y-86130000D01*
X177165000Y-84836000D02*
X182234840Y-84836000D01*
D31*
X173672500Y-75882500D02*
X173990000Y-76200000D01*
X169542500Y-75882500D02*
X173672500Y-75882500D01*
D33*
X178259000Y-76200000D02*
X179959000Y-77900000D01*
X173990000Y-76200000D02*
X178259000Y-76200000D01*
D32*
X177165000Y-84836000D02*
X179070000Y-82931000D01*
X177165000Y-83566000D02*
X177800000Y-82931000D01*
X177165000Y-83566000D02*
X176530000Y-82931000D01*
X177165000Y-84836000D02*
X177165000Y-83566000D01*
X177165000Y-84836000D02*
X175260000Y-82931000D01*
X183528840Y-86130000D02*
X182880000Y-85481160D01*
X186690000Y-86130000D02*
X183528840Y-86130000D01*
X170561000Y-87630000D02*
X175260000Y-82931000D01*
X167955000Y-87630000D02*
X170561000Y-87630000D01*
D30*
X161991160Y-93655000D02*
X162560000Y-94223840D01*
X157840000Y-93655000D02*
X161991160Y-93655000D01*
X162560000Y-94223840D02*
X162573840Y-94223840D01*
D31*
X163830000Y-95493840D02*
X162560000Y-94223840D01*
X166356160Y-98020000D02*
X163830000Y-95493840D01*
X166370000Y-98020000D02*
X166356160Y-98020000D01*
X163830000Y-95885000D02*
X163830000Y-95493840D01*
X164025580Y-95689420D02*
X163830000Y-95885000D01*
X163195000Y-96520000D02*
X164025580Y-95689420D01*
X159385000Y-100330000D02*
X158750000Y-99695000D01*
X159385000Y-101356160D02*
X159385000Y-100330000D01*
D30*
X159725000Y-93005000D02*
X160655000Y-92075000D01*
X160655000Y-92075000D02*
X168045000Y-92075000D01*
X168045000Y-92075000D02*
X168910000Y-92940000D01*
X157840000Y-93005000D02*
X159725000Y-93005000D01*
D32*
X168910000Y-92940000D02*
X168910000Y-94935000D01*
D30*
X171400000Y-94935000D02*
X171450000Y-94885000D01*
D32*
X168910000Y-94935000D02*
X171400000Y-94935000D01*
D30*
X171450000Y-94885000D02*
X171815000Y-94885000D01*
X177165000Y-100711000D02*
X175260000Y-98806000D01*
X177165000Y-99441000D02*
X176530000Y-98806000D01*
X177165000Y-99441000D02*
X177800000Y-98806000D01*
X177165000Y-100711000D02*
X177165000Y-99441000D01*
X177165000Y-100711000D02*
X179070000Y-98806000D01*
D31*
X176530000Y-89789000D02*
X175260000Y-88519000D01*
X176530000Y-90805000D02*
X176530000Y-88519000D01*
X176530000Y-89789000D02*
X177800000Y-88519000D01*
X176530000Y-90805000D02*
X176530000Y-89789000D01*
D33*
X177165000Y-100711000D02*
X178816000Y-100711000D01*
X179451000Y-100711000D02*
X185293000Y-106553000D01*
X185293000Y-106553000D02*
X185293000Y-111760000D01*
X177165000Y-100711000D02*
X179451000Y-100711000D01*
D32*
X172355000Y-93980000D02*
X171450000Y-94885000D01*
X173990000Y-93980000D02*
X172355000Y-93980000D01*
X175260000Y-90805000D02*
X173990000Y-92075000D01*
X173990000Y-92075000D02*
X173990000Y-93980000D01*
X176530000Y-90805000D02*
X175260000Y-90805000D01*
X175895000Y-99441000D02*
X177165000Y-100711000D01*
X175895000Y-95885000D02*
X175895000Y-99441000D01*
X173990000Y-93980000D02*
X175895000Y-95885000D01*
D30*
X159755000Y-91705000D02*
X157840000Y-91705000D01*
X161533840Y-89926160D02*
X159755000Y-91705000D01*
X162560000Y-89926160D02*
X161533840Y-89926160D01*
D32*
X163438840Y-89926160D02*
X162560000Y-89926160D01*
X164465000Y-88900000D02*
X163438840Y-89926160D01*
X169140000Y-89940000D02*
X170180000Y-88900000D01*
X168910000Y-89940000D02*
X169140000Y-89940000D01*
X171450000Y-96885000D02*
X171450000Y-98745000D01*
X171720000Y-97155000D02*
X171450000Y-96885000D01*
X173355000Y-97155000D02*
X171720000Y-97155000D01*
X173990000Y-96520000D02*
X173355000Y-97155000D01*
D33*
X208510000Y-91440000D02*
X208510000Y-95250000D01*
X212090000Y-91440000D02*
X208510000Y-91440000D01*
X208510000Y-98444180D02*
X209760820Y-99695000D01*
X208510000Y-95250000D02*
X208510000Y-98444180D01*
X208280000Y-111760000D02*
X208280000Y-119380000D01*
X208280000Y-119380000D02*
X209550000Y-120650000D01*
X208280000Y-109220000D02*
X208280000Y-111760000D01*
X208280000Y-102235000D02*
X208280000Y-109220000D01*
X209760820Y-100754180D02*
X208280000Y-102235000D01*
X209760820Y-99695000D02*
X209760820Y-100754180D01*
D31*
X208280000Y-111760000D02*
X208280000Y-111760000D01*
X208915000Y-112395000D02*
X208280000Y-111760000D01*
X208915000Y-111125000D02*
X208280000Y-111760000D01*
X208280000Y-112395000D02*
X208280000Y-111760000D01*
X208280000Y-111760000D02*
X208280000Y-112395000D01*
X207645000Y-111125000D02*
X208280000Y-111760000D01*
X207645000Y-112395000D02*
X208280000Y-111760000D01*
D33*
X194945000Y-115570000D02*
X161681160Y-115570000D01*
X161681160Y-115570000D02*
X159385000Y-113273840D01*
X198755000Y-111760000D02*
X194945000Y-115570000D01*
X199517000Y-111760000D02*
X198755000Y-111760000D01*
D31*
X155503840Y-113273840D02*
X154305000Y-112075000D01*
X159385000Y-113273840D02*
X155503840Y-113273840D01*
D30*
X213360000Y-88900000D02*
X213360000Y-93980000D01*
X213360000Y-96520000D02*
X213360000Y-99060000D01*
X213360000Y-101600000D02*
X213360000Y-104140000D01*
X213360000Y-106680000D02*
X213360000Y-109220000D01*
X210820000Y-109220000D02*
X210820000Y-106680000D01*
X210820000Y-104140000D02*
X210820000Y-101600000D01*
X210820000Y-96520000D02*
X210820000Y-93980000D01*
X210820000Y-88900000D02*
X208280000Y-88900000D01*
X208280000Y-104140000D02*
X208280000Y-106680000D01*
D33*
X159385000Y-108976160D02*
X159385000Y-105653840D01*
X193421000Y-74500000D02*
X193421000Y-77900000D01*
X205740000Y-71120000D02*
X196801000Y-71120000D01*
X196801000Y-71120000D02*
X193421000Y-74500000D01*
X209550000Y-74930000D02*
X205740000Y-71120000D01*
D30*
X149860000Y-99085000D02*
X152040000Y-96905000D01*
X149860000Y-102870000D02*
X149860000Y-99085000D01*
X159740000Y-92355000D02*
X160655000Y-91440000D01*
X160655000Y-91440000D02*
X164465000Y-91440000D01*
X164465000Y-91440000D02*
X165100000Y-90805000D01*
X165100000Y-90805000D02*
X170180000Y-90805000D01*
X170180000Y-90805000D02*
X173990000Y-86995000D01*
X173990000Y-86995000D02*
X178435000Y-86995000D01*
X178435000Y-86995000D02*
X179070000Y-87630000D01*
X179070000Y-87630000D02*
X179070000Y-88519000D01*
X157840000Y-92355000D02*
X159740000Y-92355000D01*
X160345000Y-94305000D02*
X160655000Y-94615000D01*
X160655000Y-94615000D02*
X160655000Y-95885000D01*
X160655000Y-95885000D02*
X167640000Y-102870000D01*
X167640000Y-102870000D02*
X178435000Y-102870000D01*
X178435000Y-102870000D02*
X179070000Y-103505000D01*
X179070000Y-103505000D02*
X179070000Y-104394000D01*
X157840000Y-94305000D02*
X160345000Y-94305000D01*
D31*
X176530000Y-106045000D02*
X176530000Y-104394000D01*
X175260000Y-104775000D02*
X176530000Y-106045000D01*
X175260000Y-104394000D02*
X175260000Y-104775000D01*
X177800000Y-104775000D02*
X176530000Y-106045000D01*
X177800000Y-104394000D02*
X177800000Y-104775000D01*
D30*
X158485000Y-96255000D02*
X161925000Y-99695000D01*
X161925000Y-99695000D02*
X161925000Y-109220000D01*
X161925000Y-109220000D02*
X163830000Y-111125000D01*
X163830000Y-111125000D02*
X171450000Y-111125000D01*
X171450000Y-111125000D02*
X173280000Y-109295000D01*
X173280000Y-109295000D02*
X173280000Y-107315000D01*
X157840000Y-96255000D02*
X158485000Y-96255000D01*
D31*
X175260000Y-107315000D02*
X176530000Y-106045000D01*
X173280000Y-107315000D02*
X175260000Y-107315000D01*
D30*
X147320000Y-92710000D02*
X148265000Y-93655000D01*
X148265000Y-93655000D02*
X152040000Y-93655000D01*
X146365000Y-92710000D02*
X147320000Y-92710000D01*
D33*
X209550000Y-82550000D02*
X204470000Y-77470000D01*
X204470000Y-77470000D02*
X204470000Y-74930000D01*
X209550000Y-85090000D02*
X209550000Y-82550000D01*
D30*
G36*
X215773000Y-124669124D02*
X215595359Y-124239201D01*
X214854698Y-123497246D01*
X214225370Y-123235926D01*
X214225370Y-112607185D01*
X213901020Y-111822200D01*
X213300959Y-111221091D01*
X212516541Y-110895372D01*
X211667185Y-110894630D01*
X210882200Y-111218980D01*
X210281091Y-111819041D01*
X209955372Y-112603459D01*
X209954630Y-113452815D01*
X210278980Y-114237800D01*
X210879041Y-114838909D01*
X211663459Y-115164628D01*
X212512815Y-115165370D01*
X213297800Y-114841020D01*
X213898909Y-114240959D01*
X214224628Y-113456541D01*
X214225370Y-112607185D01*
X214225370Y-123235926D01*
X213886483Y-123095208D01*
X212838116Y-123094293D01*
X211869201Y-123494641D01*
X211127246Y-124235302D01*
X210725208Y-125203517D01*
X210724293Y-126251884D01*
X211124641Y-127220799D01*
X211865302Y-127962754D01*
X212299382Y-128143000D01*
X207137000Y-128143000D01*
X207137000Y-87757000D01*
X215773000Y-87757000D01*
X215773000Y-124669124D01*
X215773000Y-124669124D01*
G37*
X215773000Y-124669124D02*
X215595359Y-124239201D01*
X214854698Y-123497246D01*
X214225370Y-123235926D01*
X214225370Y-112607185D01*
X213901020Y-111822200D01*
X213300959Y-111221091D01*
X212516541Y-110895372D01*
X211667185Y-110894630D01*
X210882200Y-111218980D01*
X210281091Y-111819041D01*
X209955372Y-112603459D01*
X209954630Y-113452815D01*
X210278980Y-114237800D01*
X210879041Y-114838909D01*
X211663459Y-115164628D01*
X212512815Y-115165370D01*
X213297800Y-114841020D01*
X213898909Y-114240959D01*
X214224628Y-113456541D01*
X214225370Y-112607185D01*
X214225370Y-123235926D01*
X213886483Y-123095208D01*
X212838116Y-123094293D01*
X211869201Y-123494641D01*
X211127246Y-124235302D01*
X210725208Y-125203517D01*
X210724293Y-126251884D01*
X211124641Y-127220799D01*
X211865302Y-127962754D01*
X212299382Y-128143000D01*
X207137000Y-128143000D01*
X207137000Y-87757000D01*
X215773000Y-87757000D01*
X215773000Y-124669124D01*
G36*
X178308000Y-113538000D02*
X173482000Y-113538000D01*
X173482000Y-103632000D01*
X178119369Y-103632000D01*
X178221582Y-103734212D01*
X178197560Y-103854000D01*
X178197560Y-104934000D01*
X178244537Y-105176123D01*
X178308000Y-105272733D01*
X178308000Y-111086303D01*
X178205372Y-111333459D01*
X178204630Y-112182815D01*
X178308000Y-112432988D01*
X178308000Y-113538000D01*
X178308000Y-113538000D01*
G37*
X178308000Y-113538000D02*
X173482000Y-113538000D01*
X173482000Y-103632000D01*
X178119369Y-103632000D01*
X178221582Y-103734212D01*
X178197560Y-103854000D01*
X178197560Y-104934000D01*
X178244537Y-105176123D01*
X178308000Y-105272733D01*
X178308000Y-111086303D01*
X178205372Y-111333459D01*
X178204630Y-112182815D01*
X178308000Y-112432988D01*
X178308000Y-113538000D01*
G36*
X191008000Y-113538000D02*
X179197000Y-113538000D01*
X179197000Y-105581440D01*
X179295000Y-105581440D01*
X179537123Y-105534463D01*
X179749927Y-105394673D01*
X179892377Y-105183640D01*
X179942440Y-104934000D01*
X179942440Y-103854000D01*
X179895463Y-103611877D01*
X179832000Y-103515266D01*
X179832000Y-103505000D01*
X179773996Y-103213396D01*
X179773996Y-103213395D01*
X179707834Y-103114376D01*
X179608816Y-102966185D01*
X178973815Y-102331185D01*
X178726605Y-102166004D01*
X178435000Y-102108000D01*
X173482000Y-102108000D01*
X173482000Y-98070988D01*
X173715201Y-98024602D01*
X173971295Y-97853484D01*
X174254086Y-97853731D01*
X174744380Y-97651146D01*
X175119827Y-97276353D01*
X175323268Y-96786413D01*
X175323731Y-96255914D01*
X175121146Y-95765620D01*
X174746353Y-95390173D01*
X174256413Y-95186732D01*
X173725914Y-95186269D01*
X173235620Y-95388854D01*
X172860173Y-95763647D01*
X172684137Y-96187586D01*
X172675463Y-96142877D01*
X172535673Y-95930073D01*
X172324640Y-95787623D01*
X172075000Y-95737560D01*
X170825000Y-95737560D01*
X170582877Y-95784537D01*
X170370073Y-95924327D01*
X170227623Y-96135360D01*
X170182885Y-96358444D01*
X170160463Y-96242877D01*
X170020673Y-96030073D01*
X169809640Y-95887623D01*
X169560000Y-95837560D01*
X168402000Y-95837560D01*
X168402000Y-91567000D01*
X170180000Y-91567000D01*
X170180000Y-91566999D01*
X170471604Y-91508996D01*
X170471605Y-91508996D01*
X170718815Y-91343815D01*
X174305630Y-87757000D01*
X178119369Y-87757000D01*
X178221582Y-87859212D01*
X178197560Y-87979000D01*
X178197560Y-89059000D01*
X178244537Y-89301123D01*
X178384327Y-89513927D01*
X178595360Y-89656377D01*
X178845000Y-89706440D01*
X179295000Y-89706440D01*
X179537123Y-89659463D01*
X179749927Y-89519673D01*
X179892377Y-89308640D01*
X179942440Y-89059000D01*
X179942440Y-87979000D01*
X179899367Y-87757000D01*
X180213000Y-87757000D01*
X180213000Y-93472000D01*
X191008000Y-93472000D01*
X191008000Y-113538000D01*
X191008000Y-113538000D01*
G37*
X191008000Y-113538000D02*
X179197000Y-113538000D01*
X179197000Y-105581440D01*
X179295000Y-105581440D01*
X179537123Y-105534463D01*
X179749927Y-105394673D01*
X179892377Y-105183640D01*
X179942440Y-104934000D01*
X179942440Y-103854000D01*
X179895463Y-103611877D01*
X179832000Y-103515266D01*
X179832000Y-103505000D01*
X179773996Y-103213396D01*
X179773996Y-103213395D01*
X179707834Y-103114376D01*
X179608816Y-102966185D01*
X178973815Y-102331185D01*
X178726605Y-102166004D01*
X178435000Y-102108000D01*
X173482000Y-102108000D01*
X173482000Y-98070988D01*
X173715201Y-98024602D01*
X173971295Y-97853484D01*
X174254086Y-97853731D01*
X174744380Y-97651146D01*
X175119827Y-97276353D01*
X175323268Y-96786413D01*
X175323731Y-96255914D01*
X175121146Y-95765620D01*
X174746353Y-95390173D01*
X174256413Y-95186732D01*
X173725914Y-95186269D01*
X173235620Y-95388854D01*
X172860173Y-95763647D01*
X172684137Y-96187586D01*
X172675463Y-96142877D01*
X172535673Y-95930073D01*
X172324640Y-95787623D01*
X172075000Y-95737560D01*
X170825000Y-95737560D01*
X170582877Y-95784537D01*
X170370073Y-95924327D01*
X170227623Y-96135360D01*
X170182885Y-96358444D01*
X170160463Y-96242877D01*
X170020673Y-96030073D01*
X169809640Y-95887623D01*
X169560000Y-95837560D01*
X168402000Y-95837560D01*
X168402000Y-91567000D01*
X170180000Y-91567000D01*
X170180000Y-91566999D01*
X170471604Y-91508996D01*
X170471605Y-91508996D01*
X170718815Y-91343815D01*
X174305630Y-87757000D01*
X178119369Y-87757000D01*
X178221582Y-87859212D01*
X178197560Y-87979000D01*
X178197560Y-89059000D01*
X178244537Y-89301123D01*
X178384327Y-89513927D01*
X178595360Y-89656377D01*
X178845000Y-89706440D01*
X179295000Y-89706440D01*
X179537123Y-89659463D01*
X179749927Y-89519673D01*
X179892377Y-89308640D01*
X179942440Y-89059000D01*
X179942440Y-87979000D01*
X179899367Y-87757000D01*
X180213000Y-87757000D01*
X180213000Y-93472000D01*
X191008000Y-93472000D01*
X191008000Y-113538000D01*
G36*
X197993000Y-87503000D02*
X190158046Y-87503000D01*
X189959012Y-87370009D01*
X189230000Y-87225000D01*
X183528840Y-87225000D01*
X182799828Y-87370009D01*
X182600793Y-87503000D01*
X181102000Y-87503000D01*
X181102000Y-86868000D01*
X179385630Y-86868000D01*
X178973815Y-86456185D01*
X178726605Y-86291004D01*
X178435000Y-86233000D01*
X173990000Y-86233000D01*
X173698395Y-86291004D01*
X173599376Y-86357165D01*
X173451185Y-86456184D01*
X173039369Y-86868000D01*
X168402000Y-86868000D01*
X168402000Y-81788000D01*
X156972000Y-81788000D01*
X156972000Y-80055630D01*
X157332690Y-79694940D01*
X158027500Y-79694940D01*
X158269623Y-79647963D01*
X158482427Y-79508173D01*
X158624877Y-79297140D01*
X158674940Y-79047500D01*
X158674940Y-78907530D01*
X158680040Y-78899898D01*
X158775000Y-78422500D01*
X158775000Y-77130000D01*
X161106110Y-77130000D01*
X161666541Y-77691409D01*
X162450959Y-78017128D01*
X163300315Y-78017870D01*
X164085300Y-77693520D01*
X164649804Y-77130000D01*
X167043473Y-77130000D01*
X167292500Y-77179940D01*
X167992500Y-77179940D01*
X168234623Y-77132963D01*
X168447427Y-76993173D01*
X168589877Y-76782140D01*
X168622884Y-76617546D01*
X168795040Y-76359898D01*
X168890000Y-75882500D01*
X168795040Y-75405102D01*
X168623666Y-75148622D01*
X168592963Y-74990377D01*
X168453173Y-74777573D01*
X168242140Y-74635123D01*
X167992500Y-74585060D01*
X167292500Y-74585060D01*
X167050377Y-74632037D01*
X167045866Y-74635000D01*
X164648889Y-74635000D01*
X164088459Y-74073591D01*
X163304041Y-73747872D01*
X162454685Y-73747130D01*
X161669700Y-74071480D01*
X161105195Y-74635000D01*
X158076526Y-74635000D01*
X157827500Y-74585060D01*
X157127500Y-74585060D01*
X156972000Y-74615230D01*
X156972000Y-69977000D01*
X186563000Y-69977000D01*
X186563000Y-80772000D01*
X197993000Y-80772000D01*
X197993000Y-87503000D01*
X197993000Y-87503000D01*
G37*
X197993000Y-87503000D02*
X190158046Y-87503000D01*
X189959012Y-87370009D01*
X189230000Y-87225000D01*
X183528840Y-87225000D01*
X182799828Y-87370009D01*
X182600793Y-87503000D01*
X181102000Y-87503000D01*
X181102000Y-86868000D01*
X179385630Y-86868000D01*
X178973815Y-86456185D01*
X178726605Y-86291004D01*
X178435000Y-86233000D01*
X173990000Y-86233000D01*
X173698395Y-86291004D01*
X173599376Y-86357165D01*
X173451185Y-86456184D01*
X173039369Y-86868000D01*
X168402000Y-86868000D01*
X168402000Y-81788000D01*
X156972000Y-81788000D01*
X156972000Y-80055630D01*
X157332690Y-79694940D01*
X158027500Y-79694940D01*
X158269623Y-79647963D01*
X158482427Y-79508173D01*
X158624877Y-79297140D01*
X158674940Y-79047500D01*
X158674940Y-78907530D01*
X158680040Y-78899898D01*
X158775000Y-78422500D01*
X158775000Y-77130000D01*
X161106110Y-77130000D01*
X161666541Y-77691409D01*
X162450959Y-78017128D01*
X163300315Y-78017870D01*
X164085300Y-77693520D01*
X164649804Y-77130000D01*
X167043473Y-77130000D01*
X167292500Y-77179940D01*
X167992500Y-77179940D01*
X168234623Y-77132963D01*
X168447427Y-76993173D01*
X168589877Y-76782140D01*
X168622884Y-76617546D01*
X168795040Y-76359898D01*
X168890000Y-75882500D01*
X168795040Y-75405102D01*
X168623666Y-75148622D01*
X168592963Y-74990377D01*
X168453173Y-74777573D01*
X168242140Y-74635123D01*
X167992500Y-74585060D01*
X167292500Y-74585060D01*
X167050377Y-74632037D01*
X167045866Y-74635000D01*
X164648889Y-74635000D01*
X164088459Y-74073591D01*
X163304041Y-73747872D01*
X162454685Y-73747130D01*
X161669700Y-74071480D01*
X161105195Y-74635000D01*
X158076526Y-74635000D01*
X157827500Y-74585060D01*
X157127500Y-74585060D01*
X156972000Y-74615230D01*
X156972000Y-69977000D01*
X186563000Y-69977000D01*
X186563000Y-80772000D01*
X197993000Y-80772000D01*
X197993000Y-87503000D01*
G36*
X215773000Y-86868000D02*
X207137000Y-86868000D01*
X207137000Y-82423000D01*
X202692000Y-82423000D01*
X202692000Y-73152000D01*
X205077923Y-73152000D01*
X206248000Y-74322076D01*
X206248000Y-77597000D01*
X212217000Y-77597000D01*
X212217000Y-74768791D01*
X212833517Y-75024792D01*
X213881884Y-75025707D01*
X214850799Y-74625359D01*
X215592754Y-73884698D01*
X215773000Y-73450617D01*
X215773000Y-86868000D01*
X215773000Y-86868000D01*
G37*
X215773000Y-86868000D02*
X207137000Y-86868000D01*
X207137000Y-82423000D01*
X202692000Y-82423000D01*
X202692000Y-73152000D01*
X205077923Y-73152000D01*
X206248000Y-74322076D01*
X206248000Y-77597000D01*
X212217000Y-77597000D01*
X212217000Y-74768791D01*
X212833517Y-75024792D01*
X213881884Y-75025707D01*
X214850799Y-74625359D01*
X215592754Y-73884698D01*
X215773000Y-73450617D01*
X215773000Y-86868000D01*
G36*
X211328000Y-76708000D02*
X207137000Y-76708000D01*
X207137000Y-72263000D01*
X201803000Y-72263000D01*
X201803000Y-82423000D01*
X198882000Y-82423000D01*
X198882000Y-79883000D01*
X187452000Y-79883000D01*
X187452000Y-69977000D01*
X211328000Y-69977000D01*
X211328000Y-70694898D01*
X211127246Y-70895302D01*
X210725208Y-71863517D01*
X210724293Y-72911884D01*
X211124641Y-73880799D01*
X211328000Y-74084513D01*
X211328000Y-76708000D01*
X211328000Y-76708000D01*
G37*
X211328000Y-76708000D02*
X207137000Y-76708000D01*
X207137000Y-72263000D01*
X201803000Y-72263000D01*
X201803000Y-82423000D01*
X198882000Y-82423000D01*
X198882000Y-79883000D01*
X187452000Y-79883000D01*
X187452000Y-69977000D01*
X211328000Y-69977000D01*
X211328000Y-70694898D01*
X211127246Y-70895302D01*
X210725208Y-71863517D01*
X210724293Y-72911884D01*
X211124641Y-73880799D01*
X211328000Y-74084513D01*
X211328000Y-76708000D01*
G36*
X168148000Y-109728000D02*
X164517605Y-109728000D01*
X163322000Y-108532395D01*
X163322000Y-99629630D01*
X167101185Y-103408816D01*
X167249376Y-103507834D01*
X167348395Y-103573996D01*
X167348396Y-103573996D01*
X167574332Y-103618937D01*
X167587395Y-103632000D01*
X167640000Y-103632000D01*
X168148000Y-103632000D01*
X168148000Y-109728000D01*
X168148000Y-109728000D01*
G37*
X168148000Y-109728000D02*
X164517605Y-109728000D01*
X163322000Y-108532395D01*
X163322000Y-99629630D01*
X167101185Y-103408816D01*
X167249376Y-103507834D01*
X167348395Y-103573996D01*
X167348396Y-103573996D01*
X167574332Y-103618937D01*
X167587395Y-103632000D01*
X167640000Y-103632000D01*
X168148000Y-103632000D01*
X168148000Y-109728000D01*
G36*
X167513000Y-86350409D02*
X167362877Y-86379537D01*
X167150073Y-86519327D01*
X167007623Y-86730360D01*
X167005783Y-86739530D01*
X167005463Y-86737877D01*
X166865673Y-86525073D01*
X166654640Y-86382623D01*
X166405000Y-86332560D01*
X165705000Y-86332560D01*
X165462877Y-86379537D01*
X165250073Y-86519327D01*
X165107623Y-86730360D01*
X165080020Y-86868000D01*
X161290000Y-86868000D01*
X160998395Y-86926004D01*
X160751184Y-87091185D01*
X157634809Y-90207560D01*
X157340000Y-90207560D01*
X157097877Y-90254537D01*
X156885073Y-90394327D01*
X156742623Y-90605360D01*
X156728055Y-90678000D01*
X156718000Y-90678000D01*
X156718000Y-90728143D01*
X156692560Y-90855000D01*
X156692560Y-91255000D01*
X156717213Y-91382065D01*
X156692560Y-91505000D01*
X156692560Y-91905000D01*
X156717213Y-92032065D01*
X156692560Y-92155000D01*
X156692560Y-92555000D01*
X156717213Y-92682065D01*
X156692560Y-92805000D01*
X156692560Y-93205000D01*
X156717213Y-93332065D01*
X156692560Y-93455000D01*
X156692560Y-93855000D01*
X156717213Y-93982065D01*
X156692560Y-94105000D01*
X156692560Y-94505000D01*
X156718000Y-94636119D01*
X156718000Y-95928143D01*
X156692560Y-96055000D01*
X156692560Y-96455000D01*
X156717213Y-96582065D01*
X156692560Y-96705000D01*
X156692560Y-97105000D01*
X156739537Y-97347123D01*
X156879327Y-97559927D01*
X157090360Y-97702377D01*
X157340000Y-97752440D01*
X157634809Y-97752440D01*
X157988000Y-98105630D01*
X157988000Y-98732625D01*
X157867884Y-98812884D01*
X157597460Y-99217603D01*
X157502500Y-99695000D01*
X157586940Y-100119509D01*
X157586940Y-102605840D01*
X157633917Y-102847963D01*
X157773707Y-103060767D01*
X157984740Y-103203217D01*
X157988000Y-103203870D01*
X157988000Y-103806493D01*
X157779453Y-103943487D01*
X157637003Y-104154520D01*
X157586940Y-104404160D01*
X157586940Y-105116214D01*
X157480000Y-105653840D01*
X157480000Y-108976160D01*
X157586940Y-109513785D01*
X157586940Y-110225840D01*
X157633917Y-110467963D01*
X157773707Y-110680767D01*
X157984740Y-110823217D01*
X157988000Y-110823870D01*
X157988000Y-111426493D01*
X157779453Y-111563487D01*
X157637003Y-111774520D01*
X157586940Y-112024160D01*
X157586940Y-112026340D01*
X156020572Y-112026340D01*
X155574324Y-111580092D01*
X155555463Y-111482877D01*
X155415673Y-111270073D01*
X155204640Y-111127623D01*
X155195469Y-111125783D01*
X155197123Y-111125463D01*
X155409927Y-110985673D01*
X155552377Y-110774640D01*
X155602440Y-110525000D01*
X155602440Y-109825000D01*
X155555463Y-109582877D01*
X155415673Y-109370073D01*
X155246250Y-109255710D01*
X155246250Y-105373191D01*
X155409927Y-105265673D01*
X155552377Y-105054640D01*
X155602440Y-104805000D01*
X155602440Y-104555190D01*
X156113815Y-104043815D01*
X156278996Y-103796605D01*
X156278996Y-103796604D01*
X156337000Y-103505000D01*
X156337000Y-99060000D01*
X156278996Y-98768395D01*
X156113815Y-98521185D01*
X156113815Y-98521184D01*
X153797000Y-96204369D01*
X153797000Y-95885000D01*
X153738996Y-95593396D01*
X153738996Y-95593395D01*
X153672834Y-95494376D01*
X153573816Y-95346185D01*
X153293815Y-95066185D01*
X153187440Y-94995107D01*
X153187440Y-94755000D01*
X153140463Y-94512877D01*
X153003032Y-94303664D01*
X153137377Y-94104640D01*
X153187440Y-93855000D01*
X153187440Y-93455000D01*
X153162786Y-93327934D01*
X153187440Y-93205000D01*
X153187440Y-92805000D01*
X153162786Y-92677934D01*
X153187440Y-92555000D01*
X153187440Y-92155000D01*
X153162786Y-92027934D01*
X153187440Y-91905000D01*
X153187440Y-91505000D01*
X153162786Y-91377934D01*
X153187440Y-91255000D01*
X153187440Y-90855000D01*
X153140463Y-90612877D01*
X153000673Y-90400073D01*
X152802000Y-90265966D01*
X152802000Y-84225630D01*
X156083000Y-80944630D01*
X156083000Y-82677000D01*
X167513000Y-82677000D01*
X167513000Y-86350409D01*
X167513000Y-86350409D01*
G37*
X167513000Y-86350409D02*
X167362877Y-86379537D01*
X167150073Y-86519327D01*
X167007623Y-86730360D01*
X167005783Y-86739530D01*
X167005463Y-86737877D01*
X166865673Y-86525073D01*
X166654640Y-86382623D01*
X166405000Y-86332560D01*
X165705000Y-86332560D01*
X165462877Y-86379537D01*
X165250073Y-86519327D01*
X165107623Y-86730360D01*
X165080020Y-86868000D01*
X161290000Y-86868000D01*
X160998395Y-86926004D01*
X160751184Y-87091185D01*
X157634809Y-90207560D01*
X157340000Y-90207560D01*
X157097877Y-90254537D01*
X156885073Y-90394327D01*
X156742623Y-90605360D01*
X156728055Y-90678000D01*
X156718000Y-90678000D01*
X156718000Y-90728143D01*
X156692560Y-90855000D01*
X156692560Y-91255000D01*
X156717213Y-91382065D01*
X156692560Y-91505000D01*
X156692560Y-91905000D01*
X156717213Y-92032065D01*
X156692560Y-92155000D01*
X156692560Y-92555000D01*
X156717213Y-92682065D01*
X156692560Y-92805000D01*
X156692560Y-93205000D01*
X156717213Y-93332065D01*
X156692560Y-93455000D01*
X156692560Y-93855000D01*
X156717213Y-93982065D01*
X156692560Y-94105000D01*
X156692560Y-94505000D01*
X156718000Y-94636119D01*
X156718000Y-95928143D01*
X156692560Y-96055000D01*
X156692560Y-96455000D01*
X156717213Y-96582065D01*
X156692560Y-96705000D01*
X156692560Y-97105000D01*
X156739537Y-97347123D01*
X156879327Y-97559927D01*
X157090360Y-97702377D01*
X157340000Y-97752440D01*
X157634809Y-97752440D01*
X157988000Y-98105630D01*
X157988000Y-98732625D01*
X157867884Y-98812884D01*
X157597460Y-99217603D01*
X157502500Y-99695000D01*
X157586940Y-100119509D01*
X157586940Y-102605840D01*
X157633917Y-102847963D01*
X157773707Y-103060767D01*
X157984740Y-103203217D01*
X157988000Y-103203870D01*
X157988000Y-103806493D01*
X157779453Y-103943487D01*
X157637003Y-104154520D01*
X157586940Y-104404160D01*
X157586940Y-105116214D01*
X157480000Y-105653840D01*
X157480000Y-108976160D01*
X157586940Y-109513785D01*
X157586940Y-110225840D01*
X157633917Y-110467963D01*
X157773707Y-110680767D01*
X157984740Y-110823217D01*
X157988000Y-110823870D01*
X157988000Y-111426493D01*
X157779453Y-111563487D01*
X157637003Y-111774520D01*
X157586940Y-112024160D01*
X157586940Y-112026340D01*
X156020572Y-112026340D01*
X155574324Y-111580092D01*
X155555463Y-111482877D01*
X155415673Y-111270073D01*
X155204640Y-111127623D01*
X155195469Y-111125783D01*
X155197123Y-111125463D01*
X155409927Y-110985673D01*
X155552377Y-110774640D01*
X155602440Y-110525000D01*
X155602440Y-109825000D01*
X155555463Y-109582877D01*
X155415673Y-109370073D01*
X155246250Y-109255710D01*
X155246250Y-105373191D01*
X155409927Y-105265673D01*
X155552377Y-105054640D01*
X155602440Y-104805000D01*
X155602440Y-104555190D01*
X156113815Y-104043815D01*
X156278996Y-103796605D01*
X156278996Y-103796604D01*
X156337000Y-103505000D01*
X156337000Y-99060000D01*
X156278996Y-98768395D01*
X156113815Y-98521185D01*
X156113815Y-98521184D01*
X153797000Y-96204369D01*
X153797000Y-95885000D01*
X153738996Y-95593396D01*
X153738996Y-95593395D01*
X153672834Y-95494376D01*
X153573816Y-95346185D01*
X153293815Y-95066185D01*
X153187440Y-94995107D01*
X153187440Y-94755000D01*
X153140463Y-94512877D01*
X153003032Y-94303664D01*
X153137377Y-94104640D01*
X153187440Y-93855000D01*
X153187440Y-93455000D01*
X153162786Y-93327934D01*
X153187440Y-93205000D01*
X153187440Y-92805000D01*
X153162786Y-92677934D01*
X153187440Y-92555000D01*
X153187440Y-92155000D01*
X153162786Y-92027934D01*
X153187440Y-91905000D01*
X153187440Y-91505000D01*
X153162786Y-91377934D01*
X153187440Y-91255000D01*
X153187440Y-90855000D01*
X153140463Y-90612877D01*
X153000673Y-90400073D01*
X152802000Y-90265966D01*
X152802000Y-84225630D01*
X156083000Y-80944630D01*
X156083000Y-82677000D01*
X167513000Y-82677000D01*
X167513000Y-86350409D01*
G36*
X206248000Y-128143000D02*
X143300875Y-128143000D01*
X143730799Y-127965359D01*
X144472754Y-127224698D01*
X144874792Y-126256483D01*
X144875707Y-125208116D01*
X144475359Y-124239201D01*
X143734698Y-123497246D01*
X142766483Y-123095208D01*
X141718116Y-123094293D01*
X140749201Y-123494641D01*
X140007246Y-124235302D01*
X139827000Y-124669382D01*
X139827000Y-73450875D01*
X140004641Y-73880799D01*
X140745302Y-74622754D01*
X141713517Y-75024792D01*
X142761884Y-75025707D01*
X143730799Y-74625359D01*
X144472754Y-73884698D01*
X144874792Y-72916483D01*
X144875707Y-71868116D01*
X144475359Y-70899201D01*
X143734698Y-70157246D01*
X143300617Y-69977000D01*
X156083000Y-69977000D01*
X156083000Y-78789370D01*
X151501185Y-83371185D01*
X151336004Y-83618395D01*
X151278000Y-83910000D01*
X151278000Y-90267594D01*
X151085073Y-90394327D01*
X150942623Y-90605360D01*
X150892560Y-90855000D01*
X150892560Y-91255000D01*
X150917213Y-91382065D01*
X150910946Y-91413316D01*
X147562440Y-88064810D01*
X147562440Y-87005000D01*
X147515463Y-86762877D01*
X147375673Y-86550073D01*
X147164640Y-86407623D01*
X146915000Y-86357560D01*
X145915000Y-86357560D01*
X145672877Y-86404537D01*
X145460073Y-86544327D01*
X145317623Y-86755360D01*
X145267560Y-87005000D01*
X145267560Y-88255000D01*
X145314537Y-88497123D01*
X145454327Y-88709927D01*
X145665360Y-88852377D01*
X145902631Y-88899959D01*
X145672877Y-88944537D01*
X145460073Y-89084327D01*
X145317623Y-89295360D01*
X145267560Y-89545000D01*
X145267560Y-90795000D01*
X145314537Y-91037123D01*
X145454327Y-91249927D01*
X145665360Y-91392377D01*
X145888444Y-91437114D01*
X145772877Y-91459537D01*
X145560073Y-91599327D01*
X145417623Y-91810360D01*
X145367560Y-92060000D01*
X145367560Y-93360000D01*
X145414537Y-93602123D01*
X145554327Y-93814927D01*
X145765360Y-93957377D01*
X146015000Y-94007440D01*
X146715000Y-94007440D01*
X146957123Y-93960463D01*
X147169927Y-93820673D01*
X147243720Y-93711350D01*
X147726185Y-94193815D01*
X147973395Y-94358996D01*
X147973396Y-94358996D01*
X148265000Y-94417000D01*
X151002267Y-94417000D01*
X150942623Y-94505360D01*
X150892560Y-94755000D01*
X150892560Y-94843000D01*
X147923098Y-94843000D01*
X147910463Y-94777877D01*
X147770673Y-94565073D01*
X147559640Y-94422623D01*
X147310000Y-94372560D01*
X146060000Y-94372560D01*
X145817877Y-94419537D01*
X145605073Y-94559327D01*
X145462623Y-94770360D01*
X145447515Y-94845695D01*
X145447514Y-94845696D01*
X145434436Y-94854435D01*
X143811311Y-96477560D01*
X143495000Y-96477560D01*
X143252877Y-96524537D01*
X143040073Y-96664327D01*
X142897623Y-96875360D01*
X142847560Y-97125000D01*
X142847560Y-97825000D01*
X142894537Y-98067123D01*
X143034327Y-98279927D01*
X143245360Y-98422377D01*
X143254530Y-98424216D01*
X143252877Y-98424537D01*
X143040073Y-98564327D01*
X142897623Y-98775360D01*
X142847560Y-99025000D01*
X142847560Y-99725000D01*
X142894537Y-99967123D01*
X143034327Y-100179927D01*
X143245360Y-100322377D01*
X143495000Y-100372440D01*
X143761311Y-100372440D01*
X145412560Y-102023688D01*
X145412560Y-102465000D01*
X145459537Y-102707123D01*
X145599327Y-102919927D01*
X145810360Y-103062377D01*
X146060000Y-103112440D01*
X147310000Y-103112440D01*
X147552123Y-103065463D01*
X147724927Y-102951948D01*
X147724630Y-103292815D01*
X148048980Y-104077800D01*
X148649041Y-104678909D01*
X149433459Y-105004628D01*
X150282815Y-105005370D01*
X151067800Y-104681020D01*
X151668909Y-104080959D01*
X151994628Y-103296541D01*
X151995370Y-102447185D01*
X151671020Y-101662200D01*
X151070959Y-101061091D01*
X150622000Y-100874666D01*
X150622000Y-99400630D01*
X152270190Y-97752440D01*
X152540000Y-97752440D01*
X152782123Y-97705463D01*
X152994927Y-97565673D01*
X152998197Y-97560827D01*
X154813000Y-99375630D01*
X154813000Y-103189370D01*
X154544810Y-103457560D01*
X153655000Y-103457560D01*
X153412877Y-103504537D01*
X153200073Y-103644327D01*
X153057623Y-103855360D01*
X153007560Y-104105000D01*
X153007560Y-104805000D01*
X153054537Y-105047123D01*
X153194327Y-105259927D01*
X153363750Y-105374289D01*
X153363750Y-109256808D01*
X153200073Y-109364327D01*
X153057623Y-109575360D01*
X153007560Y-109825000D01*
X153007560Y-110525000D01*
X153054537Y-110767123D01*
X153194327Y-110979927D01*
X153405360Y-111122377D01*
X153414530Y-111124216D01*
X153412877Y-111124537D01*
X153200073Y-111264327D01*
X153057623Y-111475360D01*
X153007560Y-111725000D01*
X153007560Y-112425000D01*
X153054537Y-112667123D01*
X153194327Y-112879927D01*
X153405360Y-113022377D01*
X153508911Y-113043143D01*
X154621724Y-114155956D01*
X155026442Y-114426380D01*
X155026443Y-114426380D01*
X155105648Y-114442134D01*
X155503840Y-114521341D01*
X155503840Y-114521340D01*
X155503845Y-114521340D01*
X157586940Y-114521340D01*
X157586940Y-114523520D01*
X157633917Y-114765643D01*
X157773707Y-114978447D01*
X157984740Y-115120897D01*
X158234380Y-115170960D01*
X158588043Y-115170960D01*
X160334122Y-116917039D01*
X160952148Y-117329991D01*
X161681160Y-117475000D01*
X194945000Y-117475000D01*
X194945000Y-117474999D01*
X195674012Y-117329991D01*
X196292038Y-116917038D01*
X199314253Y-113894823D01*
X199939815Y-113895370D01*
X200724800Y-113571020D01*
X201325909Y-112970959D01*
X201651628Y-112186541D01*
X201652370Y-111337185D01*
X201328020Y-110552200D01*
X200727959Y-109951091D01*
X199943541Y-109625372D01*
X199094185Y-109624630D01*
X198333958Y-109938750D01*
X198025988Y-110000009D01*
X197407962Y-110412961D01*
X194155923Y-113665000D01*
X191897000Y-113665000D01*
X191897000Y-92583000D01*
X181102000Y-92583000D01*
X181102000Y-88392000D01*
X198882000Y-88392000D01*
X198882000Y-83312000D01*
X206248000Y-83312000D01*
X206248000Y-128143000D01*
X206248000Y-128143000D01*
G37*
X206248000Y-128143000D02*
X143300875Y-128143000D01*
X143730799Y-127965359D01*
X144472754Y-127224698D01*
X144874792Y-126256483D01*
X144875707Y-125208116D01*
X144475359Y-124239201D01*
X143734698Y-123497246D01*
X142766483Y-123095208D01*
X141718116Y-123094293D01*
X140749201Y-123494641D01*
X140007246Y-124235302D01*
X139827000Y-124669382D01*
X139827000Y-73450875D01*
X140004641Y-73880799D01*
X140745302Y-74622754D01*
X141713517Y-75024792D01*
X142761884Y-75025707D01*
X143730799Y-74625359D01*
X144472754Y-73884698D01*
X144874792Y-72916483D01*
X144875707Y-71868116D01*
X144475359Y-70899201D01*
X143734698Y-70157246D01*
X143300617Y-69977000D01*
X156083000Y-69977000D01*
X156083000Y-78789370D01*
X151501185Y-83371185D01*
X151336004Y-83618395D01*
X151278000Y-83910000D01*
X151278000Y-90267594D01*
X151085073Y-90394327D01*
X150942623Y-90605360D01*
X150892560Y-90855000D01*
X150892560Y-91255000D01*
X150917213Y-91382065D01*
X150910946Y-91413316D01*
X147562440Y-88064810D01*
X147562440Y-87005000D01*
X147515463Y-86762877D01*
X147375673Y-86550073D01*
X147164640Y-86407623D01*
X146915000Y-86357560D01*
X145915000Y-86357560D01*
X145672877Y-86404537D01*
X145460073Y-86544327D01*
X145317623Y-86755360D01*
X145267560Y-87005000D01*
X145267560Y-88255000D01*
X145314537Y-88497123D01*
X145454327Y-88709927D01*
X145665360Y-88852377D01*
X145902631Y-88899959D01*
X145672877Y-88944537D01*
X145460073Y-89084327D01*
X145317623Y-89295360D01*
X145267560Y-89545000D01*
X145267560Y-90795000D01*
X145314537Y-91037123D01*
X145454327Y-91249927D01*
X145665360Y-91392377D01*
X145888444Y-91437114D01*
X145772877Y-91459537D01*
X145560073Y-91599327D01*
X145417623Y-91810360D01*
X145367560Y-92060000D01*
X145367560Y-93360000D01*
X145414537Y-93602123D01*
X145554327Y-93814927D01*
X145765360Y-93957377D01*
X146015000Y-94007440D01*
X146715000Y-94007440D01*
X146957123Y-93960463D01*
X147169927Y-93820673D01*
X147243720Y-93711350D01*
X147726185Y-94193815D01*
X147973395Y-94358996D01*
X147973396Y-94358996D01*
X148265000Y-94417000D01*
X151002267Y-94417000D01*
X150942623Y-94505360D01*
X150892560Y-94755000D01*
X150892560Y-94843000D01*
X147923098Y-94843000D01*
X147910463Y-94777877D01*
X147770673Y-94565073D01*
X147559640Y-94422623D01*
X147310000Y-94372560D01*
X146060000Y-94372560D01*
X145817877Y-94419537D01*
X145605073Y-94559327D01*
X145462623Y-94770360D01*
X145447515Y-94845695D01*
X145447514Y-94845696D01*
X145434436Y-94854435D01*
X143811311Y-96477560D01*
X143495000Y-96477560D01*
X143252877Y-96524537D01*
X143040073Y-96664327D01*
X142897623Y-96875360D01*
X142847560Y-97125000D01*
X142847560Y-97825000D01*
X142894537Y-98067123D01*
X143034327Y-98279927D01*
X143245360Y-98422377D01*
X143254530Y-98424216D01*
X143252877Y-98424537D01*
X143040073Y-98564327D01*
X142897623Y-98775360D01*
X142847560Y-99025000D01*
X142847560Y-99725000D01*
X142894537Y-99967123D01*
X143034327Y-100179927D01*
X143245360Y-100322377D01*
X143495000Y-100372440D01*
X143761311Y-100372440D01*
X145412560Y-102023688D01*
X145412560Y-102465000D01*
X145459537Y-102707123D01*
X145599327Y-102919927D01*
X145810360Y-103062377D01*
X146060000Y-103112440D01*
X147310000Y-103112440D01*
X147552123Y-103065463D01*
X147724927Y-102951948D01*
X147724630Y-103292815D01*
X148048980Y-104077800D01*
X148649041Y-104678909D01*
X149433459Y-105004628D01*
X150282815Y-105005370D01*
X151067800Y-104681020D01*
X151668909Y-104080959D01*
X151994628Y-103296541D01*
X151995370Y-102447185D01*
X151671020Y-101662200D01*
X151070959Y-101061091D01*
X150622000Y-100874666D01*
X150622000Y-99400630D01*
X152270190Y-97752440D01*
X152540000Y-97752440D01*
X152782123Y-97705463D01*
X152994927Y-97565673D01*
X152998197Y-97560827D01*
X154813000Y-99375630D01*
X154813000Y-103189370D01*
X154544810Y-103457560D01*
X153655000Y-103457560D01*
X153412877Y-103504537D01*
X153200073Y-103644327D01*
X153057623Y-103855360D01*
X153007560Y-104105000D01*
X153007560Y-104805000D01*
X153054537Y-105047123D01*
X153194327Y-105259927D01*
X153363750Y-105374289D01*
X153363750Y-109256808D01*
X153200073Y-109364327D01*
X153057623Y-109575360D01*
X153007560Y-109825000D01*
X153007560Y-110525000D01*
X153054537Y-110767123D01*
X153194327Y-110979927D01*
X153405360Y-111122377D01*
X153414530Y-111124216D01*
X153412877Y-111124537D01*
X153200073Y-111264327D01*
X153057623Y-111475360D01*
X153007560Y-111725000D01*
X153007560Y-112425000D01*
X153054537Y-112667123D01*
X153194327Y-112879927D01*
X153405360Y-113022377D01*
X153508911Y-113043143D01*
X154621724Y-114155956D01*
X155026442Y-114426380D01*
X155026443Y-114426380D01*
X155105648Y-114442134D01*
X155503840Y-114521341D01*
X155503840Y-114521340D01*
X155503845Y-114521340D01*
X157586940Y-114521340D01*
X157586940Y-114523520D01*
X157633917Y-114765643D01*
X157773707Y-114978447D01*
X157984740Y-115120897D01*
X158234380Y-115170960D01*
X158588043Y-115170960D01*
X160334122Y-116917039D01*
X160952148Y-117329991D01*
X161681160Y-117475000D01*
X194945000Y-117475000D01*
X194945000Y-117474999D01*
X195674012Y-117329991D01*
X196292038Y-116917038D01*
X199314253Y-113894823D01*
X199939815Y-113895370D01*
X200724800Y-113571020D01*
X201325909Y-112970959D01*
X201651628Y-112186541D01*
X201652370Y-111337185D01*
X201328020Y-110552200D01*
X200727959Y-109951091D01*
X199943541Y-109625372D01*
X199094185Y-109624630D01*
X198333958Y-109938750D01*
X198025988Y-110000009D01*
X197407962Y-110412961D01*
X194155923Y-113665000D01*
X191897000Y-113665000D01*
X191897000Y-92583000D01*
X181102000Y-92583000D01*
X181102000Y-88392000D01*
X198882000Y-88392000D01*
X198882000Y-83312000D01*
X206248000Y-83312000D01*
X206248000Y-128143000D01*
G36*
X167513000Y-96985642D02*
X167419640Y-96922623D01*
X167170000Y-96872560D01*
X166972952Y-96872560D01*
X164907696Y-94807304D01*
X164712116Y-94611724D01*
X164358060Y-94257668D01*
X164358060Y-92974160D01*
X164331448Y-92837000D01*
X167462560Y-92837000D01*
X167462560Y-93440000D01*
X167509537Y-93682123D01*
X167513000Y-93687394D01*
X167513000Y-96985642D01*
X167513000Y-96985642D01*
G37*
X167513000Y-96985642D02*
X167419640Y-96922623D01*
X167170000Y-96872560D01*
X166972952Y-96872560D01*
X164907696Y-94807304D01*
X164712116Y-94611724D01*
X164358060Y-94257668D01*
X164358060Y-92974160D01*
X164331448Y-92837000D01*
X167462560Y-92837000D01*
X167462560Y-93440000D01*
X167509537Y-93682123D01*
X167513000Y-93687394D01*
X167513000Y-96985642D01*
G36*
X172593000Y-102108000D02*
X167955630Y-102108000D01*
X163545426Y-97697795D01*
X163672397Y-97672540D01*
X164015328Y-97443400D01*
X164922560Y-98350632D01*
X164922560Y-98520000D01*
X164969537Y-98762123D01*
X165109327Y-98974927D01*
X165320360Y-99117377D01*
X165570000Y-99167440D01*
X165871129Y-99167440D01*
X165871130Y-99167440D01*
X165878762Y-99172540D01*
X165878763Y-99172540D01*
X165957968Y-99188294D01*
X166356160Y-99267501D01*
X166356160Y-99267500D01*
X166356165Y-99267500D01*
X166370000Y-99267500D01*
X166829898Y-99176020D01*
X166829860Y-99220412D01*
X166952915Y-99518229D01*
X167180573Y-99746284D01*
X167478174Y-99869859D01*
X167800412Y-99870140D01*
X168017610Y-99780395D01*
X168035360Y-99792377D01*
X168285000Y-99842440D01*
X169535000Y-99842440D01*
X169777123Y-99795463D01*
X169989927Y-99655673D01*
X170132377Y-99444640D01*
X170177114Y-99221555D01*
X170199537Y-99337123D01*
X170339327Y-99549927D01*
X170550360Y-99692377D01*
X170800000Y-99742440D01*
X172100000Y-99742440D01*
X172342123Y-99695463D01*
X172554927Y-99555673D01*
X172593000Y-99499269D01*
X172593000Y-102108000D01*
X172593000Y-102108000D01*
G37*
X172593000Y-102108000D02*
X167955630Y-102108000D01*
X163545426Y-97697795D01*
X163672397Y-97672540D01*
X164015328Y-97443400D01*
X164922560Y-98350632D01*
X164922560Y-98520000D01*
X164969537Y-98762123D01*
X165109327Y-98974927D01*
X165320360Y-99117377D01*
X165570000Y-99167440D01*
X165871129Y-99167440D01*
X165871130Y-99167440D01*
X165878762Y-99172540D01*
X165878763Y-99172540D01*
X165957968Y-99188294D01*
X166356160Y-99267501D01*
X166356160Y-99267500D01*
X166356165Y-99267500D01*
X166370000Y-99267500D01*
X166829898Y-99176020D01*
X166829860Y-99220412D01*
X166952915Y-99518229D01*
X167180573Y-99746284D01*
X167478174Y-99869859D01*
X167800412Y-99870140D01*
X168017610Y-99780395D01*
X168035360Y-99792377D01*
X168285000Y-99842440D01*
X169535000Y-99842440D01*
X169777123Y-99795463D01*
X169989927Y-99655673D01*
X170132377Y-99444640D01*
X170177114Y-99221555D01*
X170199537Y-99337123D01*
X170339327Y-99549927D01*
X170550360Y-99692377D01*
X170800000Y-99742440D01*
X172100000Y-99742440D01*
X172342123Y-99695463D01*
X172554927Y-99555673D01*
X172593000Y-99499269D01*
X172593000Y-102108000D01*
M02*
