G04 #@! TF.FileFunction,Copper,L2,Bot,Signal*
%FSLAX46Y46*%
G04 Gerber Fmt 4.6, Leading zero omitted, Abs format (unit mm)*
G04 Created by KiCad (PCBNEW (2014-12-22 BZR 5335)-product) date Thu 25 Dec 2014 04:56:00 AM PST*
%MOMM*%
G01*
G04 APERTURE LIST*
%ADD10C,0.100000*%
%ADD11C,1.397000*%
%ADD12C,2.500000*%
%ADD13C,3.000000*%
%ADD14C,0.889000*%
%ADD15C,0.350000*%
%ADD16C,2.540000*%
%ADD17C,0.612500*%
%ADD18C,0.254000*%
%ADD19C,1.225000*%
G04 APERTURE END LIST*
D10*
D11*
X173990000Y-93980000D03*
X173990000Y-96520000D03*
D12*
X179959000Y-77900000D03*
X179959000Y-74500000D03*
X193421000Y-74500000D03*
X193421000Y-77900000D03*
D13*
X185293000Y-111760000D03*
X199517000Y-111760000D03*
X149860000Y-102870000D03*
X149860000Y-110490000D03*
X173990000Y-76200000D03*
X162877500Y-75882500D03*
X212090000Y-91440000D03*
X212090000Y-113030000D03*
X180340000Y-111760000D03*
D12*
X209550000Y-74930000D03*
X204470000Y-74930000D03*
X209550000Y-85090000D03*
X204470000Y-85090000D03*
X209550000Y-120650000D03*
X204470000Y-120650000D03*
D14*
X169545000Y-101600000D03*
X167005000Y-93980000D03*
X170815000Y-101600000D03*
X205105000Y-114935000D03*
X205105000Y-116205000D03*
X164465000Y-107950000D03*
X165735000Y-107950000D03*
X164465000Y-106680000D03*
X165735000Y-93980000D03*
X156845000Y-102235000D03*
X156845000Y-103505000D03*
X156845000Y-104775000D03*
X165735000Y-106680000D03*
X190500000Y-91440000D03*
X193040000Y-88900000D03*
X193040000Y-91440000D03*
X193040000Y-93980000D03*
X198120000Y-96520000D03*
X200660000Y-96520000D03*
X200660000Y-93980000D03*
X198120000Y-93980000D03*
X198120000Y-88900000D03*
X200660000Y-91440000D03*
X200660000Y-88900000D03*
X200660000Y-86360000D03*
X154940000Y-90805000D03*
X154940000Y-88900000D03*
X203200000Y-124460000D03*
X203200000Y-127000000D03*
X200660000Y-127000000D03*
X198120000Y-127000000D03*
X195580000Y-127000000D03*
X193040000Y-127000000D03*
X190500000Y-127000000D03*
X187960000Y-127000000D03*
X185420000Y-127000000D03*
X182880000Y-127000000D03*
X180340000Y-127000000D03*
X177800000Y-127000000D03*
X175260000Y-127000000D03*
X172720000Y-127000000D03*
X170180000Y-127000000D03*
X167640000Y-127000000D03*
X165100000Y-127000000D03*
X162560000Y-127000000D03*
X160020000Y-127000000D03*
X157480000Y-127000000D03*
X154940000Y-127000000D03*
X152400000Y-127000000D03*
X149860000Y-127000000D03*
X147320000Y-71120000D03*
X142240000Y-76200000D03*
X142240000Y-119380000D03*
X142240000Y-116840000D03*
X142240000Y-114300000D03*
X142240000Y-111760000D03*
X142240000Y-109220000D03*
X142240000Y-106680000D03*
X142240000Y-104140000D03*
X142240000Y-101600000D03*
X142240000Y-99060000D03*
X142240000Y-96520000D03*
X142557500Y-94297500D03*
X142240000Y-91440000D03*
X142240000Y-88900000D03*
X142240000Y-86360000D03*
X142240000Y-83820000D03*
X142240000Y-81280000D03*
X142240000Y-78740000D03*
X147320000Y-127000000D03*
X203835000Y-114935000D03*
X203835000Y-116205000D03*
X157480000Y-88900000D03*
X154940000Y-83820000D03*
X154940000Y-86360000D03*
X193040000Y-96520000D03*
X193040000Y-99060000D03*
X196850000Y-99060000D03*
X200660000Y-99060000D03*
X201930000Y-121920000D03*
X201930000Y-119380000D03*
X201930000Y-116840000D03*
X199390000Y-116840000D03*
X196850000Y-119380000D03*
X194310000Y-119380000D03*
X191770000Y-119380000D03*
X189230000Y-119380000D03*
X186690000Y-119380000D03*
X184150000Y-119380000D03*
X171450000Y-119380000D03*
X157480000Y-116840000D03*
X154940000Y-116840000D03*
X152400000Y-114300000D03*
X149860000Y-114300000D03*
X147320000Y-114300000D03*
X147320000Y-111760000D03*
X147320000Y-109220000D03*
X144780000Y-104140000D03*
X147320000Y-106680000D03*
X153670000Y-76200000D03*
X153670000Y-78422500D03*
X151130000Y-81280000D03*
X148590000Y-83820000D03*
X148590000Y-86360000D03*
X152400000Y-71120000D03*
X149860000Y-71120000D03*
X154940000Y-71120000D03*
X152400000Y-106680000D03*
X152400000Y-104140000D03*
X152400000Y-101600000D03*
X152400000Y-99060000D03*
D15*
X167640000Y-99060000D03*
X160020000Y-99060000D03*
D14*
X163195000Y-96520000D03*
X158750000Y-99695000D03*
X164465000Y-88900000D03*
X170180000Y-88900000D03*
X208915000Y-112395000D03*
X208915000Y-111125000D03*
X207645000Y-111125000D03*
X207645000Y-112395000D03*
X213360000Y-88900000D03*
X213360000Y-93980000D03*
X213360000Y-96520000D03*
X213360000Y-99060000D03*
X213360000Y-101600000D03*
X213360000Y-104140000D03*
X213360000Y-106680000D03*
X213360000Y-109220000D03*
X210820000Y-109220000D03*
X210820000Y-106680000D03*
X210820000Y-104140000D03*
X210820000Y-101600000D03*
X210820000Y-96520000D03*
X210820000Y-93980000D03*
X210820000Y-88900000D03*
X208280000Y-88900000D03*
X208280000Y-104140000D03*
X208280000Y-106680000D03*
X208280000Y-109220000D03*
D16*
X210185000Y-114935000D02*
X212090000Y-113030000D01*
X208915000Y-116205000D02*
X210185000Y-114935000D01*
X204470000Y-120650000D02*
X208915000Y-116205000D01*
D17*
X170180000Y-100965000D02*
X169545000Y-101600000D01*
D16*
X170180000Y-97155000D02*
X170180000Y-100965000D01*
X167005000Y-93980000D02*
X170180000Y-97155000D01*
D17*
X170180000Y-100965000D02*
X170815000Y-101600000D01*
D18*
X165100000Y-107315000D02*
X164465000Y-106680000D01*
D16*
X153035000Y-107315000D02*
X149860000Y-110490000D01*
X156845000Y-107315000D02*
X153035000Y-107315000D01*
X165100000Y-107315000D02*
X156845000Y-107315000D01*
X170180000Y-102235000D02*
X165100000Y-107315000D01*
D19*
X169545000Y-101600000D02*
X170180000Y-102235000D01*
X170180000Y-102235000D02*
X170815000Y-101600000D01*
D16*
X167005000Y-93980000D02*
X165735000Y-93980000D01*
X169545000Y-101600000D02*
X170815000Y-101600000D01*
X173355000Y-115570000D02*
X165100000Y-107315000D01*
X193675000Y-115570000D02*
X173355000Y-115570000D01*
D19*
X156845000Y-103505000D02*
X156845000Y-104775000D01*
X156845000Y-104775000D02*
X156845000Y-107315000D01*
X156845000Y-102235000D02*
X156845000Y-103505000D01*
D17*
X193040000Y-88900000D02*
X190500000Y-91440000D01*
X193040000Y-93980000D02*
X193040000Y-91440000D01*
X200660000Y-96520000D02*
X198120000Y-96520000D01*
X198120000Y-93980000D02*
X200660000Y-93980000D01*
X200660000Y-91440000D02*
X198120000Y-88900000D01*
X200660000Y-86360000D02*
X200660000Y-88900000D01*
X154940000Y-90805000D02*
X154940000Y-88900000D01*
X203200000Y-124460000D02*
X203200000Y-127000000D01*
X200660000Y-127000000D02*
X198120000Y-127000000D01*
X195580000Y-127000000D02*
X193040000Y-127000000D01*
X190500000Y-127000000D02*
X187960000Y-127000000D01*
X185420000Y-127000000D02*
X182880000Y-127000000D01*
X180340000Y-127000000D02*
X177800000Y-127000000D01*
X175260000Y-127000000D02*
X172720000Y-127000000D01*
X170180000Y-127000000D02*
X167640000Y-127000000D01*
X165100000Y-127000000D02*
X162560000Y-127000000D01*
X160020000Y-127000000D02*
X157480000Y-127000000D01*
X154940000Y-127000000D02*
X152400000Y-127000000D01*
D19*
X148590000Y-72390000D02*
X148590000Y-74930000D01*
X147320000Y-71120000D02*
X148590000Y-72390000D01*
D17*
X142240000Y-119380000D02*
X142240000Y-116840000D01*
X142240000Y-114300000D02*
X142240000Y-111760000D01*
X142240000Y-109220000D02*
X142240000Y-106680000D01*
X142240000Y-104140000D02*
X142240000Y-101600000D01*
X142240000Y-99060000D02*
X142240000Y-96520000D01*
X142557500Y-94297500D02*
X142240000Y-93980000D01*
X142240000Y-93980000D02*
X142240000Y-91440000D01*
X142240000Y-88900000D02*
X142240000Y-86360000D01*
X142240000Y-83820000D02*
X142240000Y-81280000D01*
X142240000Y-78740000D02*
X142240000Y-76200000D01*
D19*
X149860000Y-127000000D02*
X147320000Y-127000000D01*
D16*
X208280000Y-115570000D02*
X208915000Y-116205000D01*
D18*
X204470000Y-115570000D02*
X203835000Y-114935000D01*
D16*
X204470000Y-115570000D02*
X208280000Y-115570000D01*
X209550000Y-115570000D02*
X212090000Y-113030000D01*
X208280000Y-115570000D02*
X209550000Y-115570000D01*
X204470000Y-115570000D02*
X193675000Y-115570000D01*
X193675000Y-94615000D02*
X193040000Y-93980000D01*
X193675000Y-115570000D02*
X193675000Y-94615000D01*
D17*
X154940000Y-86360000D02*
X154940000Y-83820000D01*
D19*
X193040000Y-99060000D02*
X196850000Y-99060000D01*
X193040000Y-93980000D02*
X193040000Y-96520000D01*
X201930000Y-116840000D02*
X201930000Y-119380000D01*
X196850000Y-119380000D02*
X199390000Y-116840000D01*
X191770000Y-119380000D02*
X194310000Y-119380000D01*
X186690000Y-119380000D02*
X189230000Y-119380000D01*
X171450000Y-119380000D02*
X184150000Y-119380000D01*
X154940000Y-116840000D02*
X157480000Y-116840000D01*
X149860000Y-114300000D02*
X152400000Y-114300000D01*
X147320000Y-111760000D02*
X147320000Y-114300000D01*
X147320000Y-106680000D02*
X147320000Y-109220000D01*
X144780000Y-104140000D02*
X147320000Y-106680000D01*
X149860000Y-109220000D02*
X147320000Y-106680000D01*
X149860000Y-110490000D02*
X149860000Y-109220000D01*
X154940000Y-74930000D02*
X153670000Y-76200000D01*
X153670000Y-78422500D02*
X151130000Y-80962500D01*
X151130000Y-80962500D02*
X151130000Y-81280000D01*
X148590000Y-83820000D02*
X148590000Y-86360000D01*
D17*
X149860000Y-71120000D02*
X152400000Y-71120000D01*
D19*
X154940000Y-71120000D02*
X154940000Y-74930000D01*
X152400000Y-106680000D02*
X152400000Y-104140000D01*
X152400000Y-101600000D02*
X152400000Y-99060000D01*
D18*
X167640000Y-99060000D02*
X161290000Y-99060000D01*
X161290000Y-99060000D02*
X160020000Y-99060000D01*
D19*
X160020000Y-96520000D02*
X163195000Y-96520000D01*
X158750000Y-97790000D02*
X160020000Y-96520000D01*
X158750000Y-99695000D02*
X158750000Y-97790000D01*
D17*
X170180000Y-88900000D02*
X164465000Y-88900000D01*
D16*
X199517000Y-111760000D02*
X199517000Y-106553000D01*
D19*
X208280000Y-111760000D02*
X208915000Y-112395000D01*
D16*
X199517000Y-111760000D02*
X208280000Y-111760000D01*
D19*
X208280000Y-111760000D02*
X208915000Y-111125000D01*
X208280000Y-111760000D02*
X207645000Y-111125000D01*
X208280000Y-111760000D02*
X207645000Y-112395000D01*
D18*
X213360000Y-93980000D02*
X213360000Y-96520000D01*
X213360000Y-99060000D02*
X213360000Y-101600000D01*
X213360000Y-104140000D02*
X213360000Y-106680000D01*
X213360000Y-109220000D02*
X210820000Y-109220000D01*
X210820000Y-106680000D02*
X210820000Y-104140000D01*
X210820000Y-101600000D02*
X210820000Y-96520000D01*
X210820000Y-93980000D02*
X210820000Y-88900000D01*
X208280000Y-88900000D02*
X208280000Y-104140000D01*
X208280000Y-106680000D02*
X208280000Y-109220000D01*
X212090000Y-90170000D02*
X213360000Y-88900000D01*
X212090000Y-91440000D02*
X212090000Y-90170000D01*
D16*
X212090000Y-93980000D02*
X199517000Y-106553000D01*
X212090000Y-91440000D02*
X212090000Y-93980000D01*
D18*
G36*
X215773000Y-124669124D02*
X215595359Y-124239201D01*
X214854698Y-123497246D01*
X213886483Y-123095208D01*
X212838116Y-123094293D01*
X211869201Y-123494641D01*
X211127246Y-124235302D01*
X210725208Y-125203517D01*
X210724293Y-126251884D01*
X211124641Y-127220799D01*
X211865302Y-127962754D01*
X212299382Y-128143000D01*
X207137000Y-128143000D01*
X207137000Y-120677076D01*
X210262035Y-117552041D01*
X210262038Y-117552039D01*
X210262039Y-117552039D01*
X210262043Y-117552032D01*
X210897038Y-116917038D01*
X211532038Y-116282039D01*
X211532038Y-116282038D01*
X211532039Y-116282036D01*
X211532040Y-116282035D01*
X212744392Y-115069683D01*
X212744393Y-115069683D01*
X213297800Y-114841020D01*
X213898909Y-114240959D01*
X214224628Y-113456541D01*
X214225370Y-112607185D01*
X213901020Y-111822200D01*
X213300959Y-111221091D01*
X212516541Y-110895372D01*
X211667185Y-110894630D01*
X210882200Y-111218980D01*
X210281091Y-111819041D01*
X210049748Y-112376174D01*
X208837964Y-113587959D01*
X208837963Y-113587960D01*
X208837961Y-113587962D01*
X208760923Y-113665000D01*
X208280000Y-113665000D01*
X204470000Y-113665000D01*
X195580000Y-113665000D01*
X195580000Y-100457000D01*
X203327000Y-100457000D01*
X203327000Y-87757000D01*
X215773000Y-87757000D01*
X215773000Y-124669124D01*
X215773000Y-124669124D01*
G37*
X215773000Y-124669124D02*
X215595359Y-124239201D01*
X214854698Y-123497246D01*
X213886483Y-123095208D01*
X212838116Y-123094293D01*
X211869201Y-123494641D01*
X211127246Y-124235302D01*
X210725208Y-125203517D01*
X210724293Y-126251884D01*
X211124641Y-127220799D01*
X211865302Y-127962754D01*
X212299382Y-128143000D01*
X207137000Y-128143000D01*
X207137000Y-120677076D01*
X210262035Y-117552041D01*
X210262038Y-117552039D01*
X210262039Y-117552039D01*
X210262043Y-117552032D01*
X210897038Y-116917038D01*
X211532038Y-116282039D01*
X211532038Y-116282038D01*
X211532039Y-116282036D01*
X211532040Y-116282035D01*
X212744392Y-115069683D01*
X212744393Y-115069683D01*
X213297800Y-114841020D01*
X213898909Y-114240959D01*
X214224628Y-113456541D01*
X214225370Y-112607185D01*
X213901020Y-111822200D01*
X213300959Y-111221091D01*
X212516541Y-110895372D01*
X211667185Y-110894630D01*
X210882200Y-111218980D01*
X210281091Y-111819041D01*
X210049748Y-112376174D01*
X208837964Y-113587959D01*
X208837963Y-113587960D01*
X208837961Y-113587962D01*
X208760923Y-113665000D01*
X208280000Y-113665000D01*
X204470000Y-113665000D01*
X195580000Y-113665000D01*
X195580000Y-100457000D01*
X203327000Y-100457000D01*
X203327000Y-87757000D01*
X215773000Y-87757000D01*
X215773000Y-124669124D01*
G36*
X215773000Y-86868000D02*
X210183054Y-86868000D01*
X210616372Y-86688957D01*
X211147093Y-86159161D01*
X211434672Y-85466595D01*
X211435326Y-84716695D01*
X211148957Y-84023628D01*
X210619161Y-83492907D01*
X209926595Y-83205328D01*
X209176695Y-83204674D01*
X208483628Y-83491043D01*
X207952907Y-84020839D01*
X207665328Y-84713405D01*
X207664674Y-85463305D01*
X207951043Y-86156372D01*
X208480839Y-86687093D01*
X208916510Y-86868000D01*
X206355326Y-86868000D01*
X206355326Y-74556695D01*
X206068957Y-73863628D01*
X205539161Y-73332907D01*
X204846595Y-73045328D01*
X204096695Y-73044674D01*
X203403628Y-73331043D01*
X202872907Y-73860839D01*
X202585328Y-74553405D01*
X202584674Y-75303305D01*
X202871043Y-75996372D01*
X203400839Y-76527093D01*
X204093405Y-76814672D01*
X204843305Y-76815326D01*
X205536372Y-76528957D01*
X206067093Y-75999161D01*
X206354672Y-75306595D01*
X206355326Y-74556695D01*
X206355326Y-86868000D01*
X202438000Y-86868000D01*
X202438000Y-99568000D01*
X195306326Y-99568000D01*
X195306326Y-77526695D01*
X195019957Y-76833628D01*
X194490161Y-76302907D01*
X194242580Y-76200102D01*
X194487372Y-76098957D01*
X195018093Y-75569161D01*
X195305672Y-74876595D01*
X195306326Y-74126695D01*
X195019957Y-73433628D01*
X194490161Y-72902907D01*
X193797595Y-72615328D01*
X193047695Y-72614674D01*
X192354628Y-72901043D01*
X191823907Y-73430839D01*
X191536328Y-74123405D01*
X191535674Y-74873305D01*
X191822043Y-75566372D01*
X192351839Y-76097093D01*
X192599419Y-76199897D01*
X192354628Y-76301043D01*
X191823907Y-76830839D01*
X191536328Y-77523405D01*
X191535674Y-78273305D01*
X191822043Y-78966372D01*
X192351839Y-79497093D01*
X193044405Y-79784672D01*
X193794305Y-79785326D01*
X194487372Y-79498957D01*
X195018093Y-78969161D01*
X195305672Y-78276595D01*
X195306326Y-77526695D01*
X195306326Y-99568000D01*
X194183000Y-99568000D01*
X194183000Y-115062000D01*
X206248000Y-115062000D01*
X206248000Y-128143000D01*
X187428370Y-128143000D01*
X187428370Y-111337185D01*
X187104020Y-110552200D01*
X186503959Y-109951091D01*
X185719541Y-109625372D01*
X184870185Y-109624630D01*
X184085200Y-109948980D01*
X183484091Y-110549041D01*
X183158372Y-111333459D01*
X183157630Y-112182815D01*
X183481980Y-112967800D01*
X184082041Y-113568909D01*
X184866459Y-113894628D01*
X185715815Y-113895370D01*
X186500800Y-113571020D01*
X187101909Y-112970959D01*
X187427628Y-112186541D01*
X187428370Y-111337185D01*
X187428370Y-128143000D01*
X182475370Y-128143000D01*
X182475370Y-111337185D01*
X182151020Y-110552200D01*
X181844326Y-110244970D01*
X181844326Y-77526695D01*
X181557957Y-76833628D01*
X181028161Y-76302907D01*
X180780580Y-76200102D01*
X181025372Y-76098957D01*
X181556093Y-75569161D01*
X181843672Y-74876595D01*
X181844326Y-74126695D01*
X181557957Y-73433628D01*
X181028161Y-72902907D01*
X180335595Y-72615328D01*
X179585695Y-72614674D01*
X178892628Y-72901043D01*
X178361907Y-73430839D01*
X178074328Y-74123405D01*
X178073674Y-74873305D01*
X178360043Y-75566372D01*
X178889839Y-76097093D01*
X179137419Y-76199897D01*
X178892628Y-76301043D01*
X178361907Y-76830839D01*
X178074328Y-77523405D01*
X178073674Y-78273305D01*
X178360043Y-78966372D01*
X178889839Y-79497093D01*
X179582405Y-79784672D01*
X180332305Y-79785326D01*
X181025372Y-79498957D01*
X181556093Y-78969161D01*
X181843672Y-78276595D01*
X181844326Y-77526695D01*
X181844326Y-110244970D01*
X181550959Y-109951091D01*
X180766541Y-109625372D01*
X179917185Y-109624630D01*
X179132200Y-109948980D01*
X178531091Y-110549041D01*
X178205372Y-111333459D01*
X178204630Y-112182815D01*
X178528980Y-112967800D01*
X179129041Y-113568909D01*
X179913459Y-113894628D01*
X180762815Y-113895370D01*
X181547800Y-113571020D01*
X182148909Y-112970959D01*
X182474628Y-112186541D01*
X182475370Y-111337185D01*
X182475370Y-128143000D01*
X176125370Y-128143000D01*
X176125370Y-75777185D01*
X175801020Y-74992200D01*
X175200959Y-74391091D01*
X174416541Y-74065372D01*
X173567185Y-74064630D01*
X172782200Y-74388980D01*
X172181091Y-74989041D01*
X171855372Y-75773459D01*
X171854630Y-76622815D01*
X172178980Y-77407800D01*
X172779041Y-78008909D01*
X173563459Y-78334628D01*
X174412815Y-78335370D01*
X175197800Y-78011020D01*
X175798909Y-77410959D01*
X176124628Y-76626541D01*
X176125370Y-75777185D01*
X176125370Y-128143000D01*
X175323731Y-128143000D01*
X175323731Y-96255914D01*
X175121146Y-95765620D01*
X174746353Y-95390173D01*
X174408553Y-95249906D01*
X174744380Y-95111146D01*
X175119827Y-94736353D01*
X175323268Y-94246413D01*
X175323731Y-93715914D01*
X175121146Y-93225620D01*
X174746353Y-92850173D01*
X174256413Y-92646732D01*
X173725914Y-92646269D01*
X173235620Y-92848854D01*
X172860173Y-93223647D01*
X172656732Y-93713587D01*
X172656269Y-94244086D01*
X172858854Y-94734380D01*
X173233647Y-95109827D01*
X173571446Y-95250093D01*
X173235620Y-95388854D01*
X172860173Y-95763647D01*
X172656732Y-96253587D01*
X172656269Y-96784086D01*
X172858854Y-97274380D01*
X173233647Y-97649827D01*
X173723587Y-97853268D01*
X174254086Y-97853731D01*
X174744380Y-97651146D01*
X175119827Y-97276353D01*
X175323268Y-96786413D01*
X175323731Y-96255914D01*
X175323731Y-128143000D01*
X171259687Y-128143000D01*
X171259687Y-88686216D01*
X171095689Y-88289311D01*
X170792286Y-87985378D01*
X170395668Y-87820687D01*
X169966216Y-87820313D01*
X169631173Y-87958750D01*
X165013158Y-87958750D01*
X165012870Y-87958630D01*
X165012870Y-75459685D01*
X164688520Y-74674700D01*
X164088459Y-74073591D01*
X163304041Y-73747872D01*
X162454685Y-73747130D01*
X161669700Y-74071480D01*
X161068591Y-74671541D01*
X160742872Y-75455959D01*
X160742130Y-76305315D01*
X161066480Y-77090300D01*
X161666541Y-77691409D01*
X162450959Y-78017128D01*
X163300315Y-78017870D01*
X164085300Y-77693520D01*
X164686409Y-77093459D01*
X165012128Y-76309041D01*
X165012870Y-75459685D01*
X165012870Y-87958630D01*
X164680668Y-87820687D01*
X164251216Y-87820313D01*
X163854311Y-87984311D01*
X163550378Y-88287714D01*
X163385687Y-88684332D01*
X163385313Y-89113784D01*
X163549311Y-89510689D01*
X163852714Y-89814622D01*
X164249332Y-89979313D01*
X164678784Y-89979687D01*
X165013826Y-89841250D01*
X169631841Y-89841250D01*
X169964332Y-89979313D01*
X170393784Y-89979687D01*
X170790689Y-89815689D01*
X171094622Y-89512286D01*
X171259313Y-89115668D01*
X171259687Y-88686216D01*
X171259687Y-128143000D01*
X168450140Y-128143000D01*
X168450140Y-98899588D01*
X168327085Y-98601771D01*
X168099427Y-98373716D01*
X167801826Y-98250141D01*
X167479588Y-98249860D01*
X167363079Y-98298000D01*
X161290000Y-98298000D01*
X160297083Y-98298000D01*
X160181826Y-98250141D01*
X160054202Y-98250029D01*
X160536732Y-97767500D01*
X163195000Y-97767500D01*
X163672398Y-97672540D01*
X164077116Y-97402116D01*
X164347540Y-96997398D01*
X164442500Y-96520000D01*
X164347540Y-96042602D01*
X164077116Y-95637884D01*
X163672398Y-95367460D01*
X163195000Y-95272500D01*
X160020000Y-95272500D01*
X159542602Y-95367460D01*
X159137884Y-95637884D01*
X157867884Y-96907884D01*
X157597460Y-97312602D01*
X157502500Y-97790000D01*
X157502500Y-99695000D01*
X157597460Y-100172398D01*
X157867884Y-100577116D01*
X158272602Y-100847540D01*
X158750000Y-100942500D01*
X159227398Y-100847540D01*
X159632116Y-100577116D01*
X159902540Y-100172398D01*
X159962700Y-99869950D01*
X160180412Y-99870140D01*
X160296920Y-99822000D01*
X161290000Y-99822000D01*
X167362916Y-99822000D01*
X167478174Y-99869859D01*
X167800412Y-99870140D01*
X168098229Y-99747085D01*
X168326284Y-99519427D01*
X168449859Y-99221826D01*
X168450140Y-98899588D01*
X168450140Y-128143000D01*
X151995370Y-128143000D01*
X151995370Y-102447185D01*
X151671020Y-101662200D01*
X151070959Y-101061091D01*
X150286541Y-100735372D01*
X149437185Y-100734630D01*
X148652200Y-101058980D01*
X148051091Y-101659041D01*
X147725372Y-102443459D01*
X147724630Y-103292815D01*
X148048980Y-104077800D01*
X148649041Y-104678909D01*
X149433459Y-105004628D01*
X150282815Y-105005370D01*
X151067800Y-104681020D01*
X151668909Y-104080959D01*
X151994628Y-103296541D01*
X151995370Y-102447185D01*
X151995370Y-128143000D01*
X143300875Y-128143000D01*
X143730799Y-127965359D01*
X144472754Y-127224698D01*
X144874792Y-126256483D01*
X144875707Y-125208116D01*
X144475359Y-124239201D01*
X143734698Y-123497246D01*
X142766483Y-123095208D01*
X141718116Y-123094293D01*
X140749201Y-123494641D01*
X140007246Y-124235302D01*
X139827000Y-124669382D01*
X139827000Y-73450875D01*
X140004641Y-73880799D01*
X140745302Y-74622754D01*
X141713517Y-75024792D01*
X142761884Y-75025707D01*
X143730799Y-74625359D01*
X144472754Y-73884698D01*
X144874792Y-72916483D01*
X144875707Y-71868116D01*
X144475359Y-70899201D01*
X143734698Y-70157246D01*
X143300617Y-69977000D01*
X212299124Y-69977000D01*
X211869201Y-70154641D01*
X211127246Y-70895302D01*
X210725208Y-71863517D01*
X210724293Y-72911884D01*
X211095362Y-73809940D01*
X210619161Y-73332907D01*
X209926595Y-73045328D01*
X209176695Y-73044674D01*
X208483628Y-73331043D01*
X207952907Y-73860839D01*
X207665328Y-74553405D01*
X207664674Y-75303305D01*
X207951043Y-75996372D01*
X208480839Y-76527093D01*
X209173405Y-76814672D01*
X209923305Y-76815326D01*
X210616372Y-76528957D01*
X211147093Y-75999161D01*
X211434672Y-75306595D01*
X211435326Y-74556695D01*
X211178235Y-73934486D01*
X211865302Y-74622754D01*
X212833517Y-75024792D01*
X213881884Y-75025707D01*
X214850799Y-74625359D01*
X215592754Y-73884698D01*
X215773000Y-73450617D01*
X215773000Y-86868000D01*
X215773000Y-86868000D01*
G37*
X215773000Y-86868000D02*
X210183054Y-86868000D01*
X210616372Y-86688957D01*
X211147093Y-86159161D01*
X211434672Y-85466595D01*
X211435326Y-84716695D01*
X211148957Y-84023628D01*
X210619161Y-83492907D01*
X209926595Y-83205328D01*
X209176695Y-83204674D01*
X208483628Y-83491043D01*
X207952907Y-84020839D01*
X207665328Y-84713405D01*
X207664674Y-85463305D01*
X207951043Y-86156372D01*
X208480839Y-86687093D01*
X208916510Y-86868000D01*
X206355326Y-86868000D01*
X206355326Y-74556695D01*
X206068957Y-73863628D01*
X205539161Y-73332907D01*
X204846595Y-73045328D01*
X204096695Y-73044674D01*
X203403628Y-73331043D01*
X202872907Y-73860839D01*
X202585328Y-74553405D01*
X202584674Y-75303305D01*
X202871043Y-75996372D01*
X203400839Y-76527093D01*
X204093405Y-76814672D01*
X204843305Y-76815326D01*
X205536372Y-76528957D01*
X206067093Y-75999161D01*
X206354672Y-75306595D01*
X206355326Y-74556695D01*
X206355326Y-86868000D01*
X202438000Y-86868000D01*
X202438000Y-99568000D01*
X195306326Y-99568000D01*
X195306326Y-77526695D01*
X195019957Y-76833628D01*
X194490161Y-76302907D01*
X194242580Y-76200102D01*
X194487372Y-76098957D01*
X195018093Y-75569161D01*
X195305672Y-74876595D01*
X195306326Y-74126695D01*
X195019957Y-73433628D01*
X194490161Y-72902907D01*
X193797595Y-72615328D01*
X193047695Y-72614674D01*
X192354628Y-72901043D01*
X191823907Y-73430839D01*
X191536328Y-74123405D01*
X191535674Y-74873305D01*
X191822043Y-75566372D01*
X192351839Y-76097093D01*
X192599419Y-76199897D01*
X192354628Y-76301043D01*
X191823907Y-76830839D01*
X191536328Y-77523405D01*
X191535674Y-78273305D01*
X191822043Y-78966372D01*
X192351839Y-79497093D01*
X193044405Y-79784672D01*
X193794305Y-79785326D01*
X194487372Y-79498957D01*
X195018093Y-78969161D01*
X195305672Y-78276595D01*
X195306326Y-77526695D01*
X195306326Y-99568000D01*
X194183000Y-99568000D01*
X194183000Y-115062000D01*
X206248000Y-115062000D01*
X206248000Y-128143000D01*
X187428370Y-128143000D01*
X187428370Y-111337185D01*
X187104020Y-110552200D01*
X186503959Y-109951091D01*
X185719541Y-109625372D01*
X184870185Y-109624630D01*
X184085200Y-109948980D01*
X183484091Y-110549041D01*
X183158372Y-111333459D01*
X183157630Y-112182815D01*
X183481980Y-112967800D01*
X184082041Y-113568909D01*
X184866459Y-113894628D01*
X185715815Y-113895370D01*
X186500800Y-113571020D01*
X187101909Y-112970959D01*
X187427628Y-112186541D01*
X187428370Y-111337185D01*
X187428370Y-128143000D01*
X182475370Y-128143000D01*
X182475370Y-111337185D01*
X182151020Y-110552200D01*
X181844326Y-110244970D01*
X181844326Y-77526695D01*
X181557957Y-76833628D01*
X181028161Y-76302907D01*
X180780580Y-76200102D01*
X181025372Y-76098957D01*
X181556093Y-75569161D01*
X181843672Y-74876595D01*
X181844326Y-74126695D01*
X181557957Y-73433628D01*
X181028161Y-72902907D01*
X180335595Y-72615328D01*
X179585695Y-72614674D01*
X178892628Y-72901043D01*
X178361907Y-73430839D01*
X178074328Y-74123405D01*
X178073674Y-74873305D01*
X178360043Y-75566372D01*
X178889839Y-76097093D01*
X179137419Y-76199897D01*
X178892628Y-76301043D01*
X178361907Y-76830839D01*
X178074328Y-77523405D01*
X178073674Y-78273305D01*
X178360043Y-78966372D01*
X178889839Y-79497093D01*
X179582405Y-79784672D01*
X180332305Y-79785326D01*
X181025372Y-79498957D01*
X181556093Y-78969161D01*
X181843672Y-78276595D01*
X181844326Y-77526695D01*
X181844326Y-110244970D01*
X181550959Y-109951091D01*
X180766541Y-109625372D01*
X179917185Y-109624630D01*
X179132200Y-109948980D01*
X178531091Y-110549041D01*
X178205372Y-111333459D01*
X178204630Y-112182815D01*
X178528980Y-112967800D01*
X179129041Y-113568909D01*
X179913459Y-113894628D01*
X180762815Y-113895370D01*
X181547800Y-113571020D01*
X182148909Y-112970959D01*
X182474628Y-112186541D01*
X182475370Y-111337185D01*
X182475370Y-128143000D01*
X176125370Y-128143000D01*
X176125370Y-75777185D01*
X175801020Y-74992200D01*
X175200959Y-74391091D01*
X174416541Y-74065372D01*
X173567185Y-74064630D01*
X172782200Y-74388980D01*
X172181091Y-74989041D01*
X171855372Y-75773459D01*
X171854630Y-76622815D01*
X172178980Y-77407800D01*
X172779041Y-78008909D01*
X173563459Y-78334628D01*
X174412815Y-78335370D01*
X175197800Y-78011020D01*
X175798909Y-77410959D01*
X176124628Y-76626541D01*
X176125370Y-75777185D01*
X176125370Y-128143000D01*
X175323731Y-128143000D01*
X175323731Y-96255914D01*
X175121146Y-95765620D01*
X174746353Y-95390173D01*
X174408553Y-95249906D01*
X174744380Y-95111146D01*
X175119827Y-94736353D01*
X175323268Y-94246413D01*
X175323731Y-93715914D01*
X175121146Y-93225620D01*
X174746353Y-92850173D01*
X174256413Y-92646732D01*
X173725914Y-92646269D01*
X173235620Y-92848854D01*
X172860173Y-93223647D01*
X172656732Y-93713587D01*
X172656269Y-94244086D01*
X172858854Y-94734380D01*
X173233647Y-95109827D01*
X173571446Y-95250093D01*
X173235620Y-95388854D01*
X172860173Y-95763647D01*
X172656732Y-96253587D01*
X172656269Y-96784086D01*
X172858854Y-97274380D01*
X173233647Y-97649827D01*
X173723587Y-97853268D01*
X174254086Y-97853731D01*
X174744380Y-97651146D01*
X175119827Y-97276353D01*
X175323268Y-96786413D01*
X175323731Y-96255914D01*
X175323731Y-128143000D01*
X171259687Y-128143000D01*
X171259687Y-88686216D01*
X171095689Y-88289311D01*
X170792286Y-87985378D01*
X170395668Y-87820687D01*
X169966216Y-87820313D01*
X169631173Y-87958750D01*
X165013158Y-87958750D01*
X165012870Y-87958630D01*
X165012870Y-75459685D01*
X164688520Y-74674700D01*
X164088459Y-74073591D01*
X163304041Y-73747872D01*
X162454685Y-73747130D01*
X161669700Y-74071480D01*
X161068591Y-74671541D01*
X160742872Y-75455959D01*
X160742130Y-76305315D01*
X161066480Y-77090300D01*
X161666541Y-77691409D01*
X162450959Y-78017128D01*
X163300315Y-78017870D01*
X164085300Y-77693520D01*
X164686409Y-77093459D01*
X165012128Y-76309041D01*
X165012870Y-75459685D01*
X165012870Y-87958630D01*
X164680668Y-87820687D01*
X164251216Y-87820313D01*
X163854311Y-87984311D01*
X163550378Y-88287714D01*
X163385687Y-88684332D01*
X163385313Y-89113784D01*
X163549311Y-89510689D01*
X163852714Y-89814622D01*
X164249332Y-89979313D01*
X164678784Y-89979687D01*
X165013826Y-89841250D01*
X169631841Y-89841250D01*
X169964332Y-89979313D01*
X170393784Y-89979687D01*
X170790689Y-89815689D01*
X171094622Y-89512286D01*
X171259313Y-89115668D01*
X171259687Y-88686216D01*
X171259687Y-128143000D01*
X168450140Y-128143000D01*
X168450140Y-98899588D01*
X168327085Y-98601771D01*
X168099427Y-98373716D01*
X167801826Y-98250141D01*
X167479588Y-98249860D01*
X167363079Y-98298000D01*
X161290000Y-98298000D01*
X160297083Y-98298000D01*
X160181826Y-98250141D01*
X160054202Y-98250029D01*
X160536732Y-97767500D01*
X163195000Y-97767500D01*
X163672398Y-97672540D01*
X164077116Y-97402116D01*
X164347540Y-96997398D01*
X164442500Y-96520000D01*
X164347540Y-96042602D01*
X164077116Y-95637884D01*
X163672398Y-95367460D01*
X163195000Y-95272500D01*
X160020000Y-95272500D01*
X159542602Y-95367460D01*
X159137884Y-95637884D01*
X157867884Y-96907884D01*
X157597460Y-97312602D01*
X157502500Y-97790000D01*
X157502500Y-99695000D01*
X157597460Y-100172398D01*
X157867884Y-100577116D01*
X158272602Y-100847540D01*
X158750000Y-100942500D01*
X159227398Y-100847540D01*
X159632116Y-100577116D01*
X159902540Y-100172398D01*
X159962700Y-99869950D01*
X160180412Y-99870140D01*
X160296920Y-99822000D01*
X161290000Y-99822000D01*
X167362916Y-99822000D01*
X167478174Y-99869859D01*
X167800412Y-99870140D01*
X168098229Y-99747085D01*
X168326284Y-99519427D01*
X168449859Y-99221826D01*
X168450140Y-98899588D01*
X168450140Y-128143000D01*
X151995370Y-128143000D01*
X151995370Y-102447185D01*
X151671020Y-101662200D01*
X151070959Y-101061091D01*
X150286541Y-100735372D01*
X149437185Y-100734630D01*
X148652200Y-101058980D01*
X148051091Y-101659041D01*
X147725372Y-102443459D01*
X147724630Y-103292815D01*
X148048980Y-104077800D01*
X148649041Y-104678909D01*
X149433459Y-105004628D01*
X150282815Y-105005370D01*
X151067800Y-104681020D01*
X151668909Y-104080959D01*
X151994628Y-103296541D01*
X151995370Y-102447185D01*
X151995370Y-128143000D01*
X143300875Y-128143000D01*
X143730799Y-127965359D01*
X144472754Y-127224698D01*
X144874792Y-126256483D01*
X144875707Y-125208116D01*
X144475359Y-124239201D01*
X143734698Y-123497246D01*
X142766483Y-123095208D01*
X141718116Y-123094293D01*
X140749201Y-123494641D01*
X140007246Y-124235302D01*
X139827000Y-124669382D01*
X139827000Y-73450875D01*
X140004641Y-73880799D01*
X140745302Y-74622754D01*
X141713517Y-75024792D01*
X142761884Y-75025707D01*
X143730799Y-74625359D01*
X144472754Y-73884698D01*
X144874792Y-72916483D01*
X144875707Y-71868116D01*
X144475359Y-70899201D01*
X143734698Y-70157246D01*
X143300617Y-69977000D01*
X212299124Y-69977000D01*
X211869201Y-70154641D01*
X211127246Y-70895302D01*
X210725208Y-71863517D01*
X210724293Y-72911884D01*
X211095362Y-73809940D01*
X210619161Y-73332907D01*
X209926595Y-73045328D01*
X209176695Y-73044674D01*
X208483628Y-73331043D01*
X207952907Y-73860839D01*
X207665328Y-74553405D01*
X207664674Y-75303305D01*
X207951043Y-75996372D01*
X208480839Y-76527093D01*
X209173405Y-76814672D01*
X209923305Y-76815326D01*
X210616372Y-76528957D01*
X211147093Y-75999161D01*
X211434672Y-75306595D01*
X211435326Y-74556695D01*
X211178235Y-73934486D01*
X211865302Y-74622754D01*
X212833517Y-75024792D01*
X213881884Y-75025707D01*
X214850799Y-74625359D01*
X215592754Y-73884698D01*
X215773000Y-73450617D01*
X215773000Y-86868000D01*
M02*
