G04 #@! TF.FileFunction,Copper,L2,Bot,Signal*
%FSLAX46Y46*%
G04 Gerber Fmt 4.6, Leading zero omitted, Abs format (unit mm)*
G04 Created by KiCad (PCBNEW (2015-01-23 BZR 5386)-product) date Tue 10 Feb 2015 10:46:28 PM PST*
%MOMM*%
G01*
G04 APERTURE LIST*
%ADD10C,0.100000*%
%ADD11C,4.000500*%
%ADD12R,0.700000X1.300000*%
%ADD13C,2.500000*%
%ADD14C,3.000000*%
%ADD15C,0.600000*%
%ADD16C,0.400000*%
%ADD17C,0.889000*%
%ADD18C,0.700000*%
%ADD19C,0.612500*%
%ADD20C,1.225000*%
%ADD21C,2.540000*%
%ADD22C,0.254000*%
G04 APERTURE END LIST*
D10*
D11*
X142000000Y-72000000D03*
X142000000Y-124000000D03*
X214000000Y-124000000D03*
X214000000Y-72000000D03*
D12*
X171765000Y-106045000D03*
X169865000Y-106045000D03*
D13*
X209550000Y-115570000D03*
X204470000Y-115570000D03*
X209550000Y-80645000D03*
X204470000Y-80645000D03*
D14*
X180340000Y-109855000D03*
X203835000Y-94615000D03*
X210185000Y-94615000D03*
X160020000Y-75565000D03*
X173990000Y-76200000D03*
X151130000Y-110490000D03*
X151130000Y-102870000D03*
X185293000Y-109855000D03*
X199517000Y-109855000D03*
D13*
X179959000Y-77900000D03*
X179959000Y-74500000D03*
X193421000Y-74500000D03*
X193421000Y-77900000D03*
D15*
X177673000Y-85979000D03*
X176657000Y-85979000D03*
X175641000Y-85979000D03*
X178689000Y-85979000D03*
X178689000Y-84963000D03*
X177673000Y-84963000D03*
X176657000Y-84963000D03*
X175641000Y-84963000D03*
X175641000Y-83947000D03*
X176657000Y-83947000D03*
X177673000Y-83947000D03*
X178689000Y-83947000D03*
X177673000Y-101854000D03*
X176657000Y-101854000D03*
X175641000Y-101854000D03*
X178689000Y-101854000D03*
X178689000Y-100838000D03*
X177673000Y-100838000D03*
X176657000Y-100838000D03*
X175641000Y-100838000D03*
X175641000Y-99822000D03*
X176657000Y-99822000D03*
X177673000Y-99822000D03*
X178689000Y-99822000D03*
D16*
X154940000Y-93980000D03*
X154178000Y-93980000D03*
X155702000Y-93980000D03*
X155702000Y-94742000D03*
X155702000Y-95504000D03*
X154940000Y-95504000D03*
X154940000Y-94742000D03*
X154178000Y-94742000D03*
X154178000Y-95504000D03*
X154940000Y-93218000D03*
X154178000Y-93218000D03*
X155702000Y-93218000D03*
X155702000Y-92456000D03*
X154940000Y-92456000D03*
X154178000Y-92456000D03*
D17*
X158115000Y-99695000D03*
X143510000Y-109855000D03*
X147955000Y-95250000D03*
X147955000Y-108585000D03*
X143510000Y-115570000D03*
D18*
X208280000Y-99060000D03*
X208280000Y-101600000D03*
X208280000Y-104140000D03*
X208280000Y-107950000D03*
X208280000Y-110490000D03*
D17*
X173990000Y-102870000D03*
X160655000Y-94615000D03*
X173990000Y-106045000D03*
X168910000Y-106045000D03*
X161925000Y-99695000D03*
X160655000Y-95885000D03*
X168910000Y-114300000D03*
X173990000Y-118745000D03*
X177800000Y-114935000D03*
X176530000Y-116205000D03*
X172720000Y-117475000D03*
X175260000Y-117475000D03*
D18*
X153670000Y-125730000D03*
X151130000Y-127000000D03*
X148590000Y-127000000D03*
X146050000Y-127000000D03*
X139700000Y-119380000D03*
X139700000Y-116840000D03*
X139700000Y-114300000D03*
X139700000Y-111760000D03*
X139700000Y-109220000D03*
X139700000Y-106680000D03*
X139700000Y-104140000D03*
X139700000Y-101600000D03*
X139700000Y-99060000D03*
X139700000Y-96520000D03*
X139700000Y-93980000D03*
X139700000Y-91440000D03*
X139700000Y-88900000D03*
X139700000Y-86360000D03*
X139700000Y-83820000D03*
X139700000Y-81280000D03*
X139700000Y-78740000D03*
X139700000Y-76200000D03*
X146050000Y-69850000D03*
X148590000Y-69850000D03*
X151130000Y-69850000D03*
X153670000Y-69850000D03*
X153670000Y-72390000D03*
X153670000Y-113030000D03*
X153670000Y-110490000D03*
X153670000Y-102870000D03*
X153670000Y-100330000D03*
X153670000Y-97790000D03*
X153670000Y-90170000D03*
X153670000Y-87630000D03*
X153670000Y-107950000D03*
X156210000Y-124460000D03*
X215900000Y-76200000D03*
X215900000Y-78740000D03*
X215900000Y-81280000D03*
X215900000Y-83820000D03*
X215900000Y-86360000D03*
X215900000Y-88900000D03*
X215900000Y-91440000D03*
X215900000Y-93980000D03*
X215900000Y-96520000D03*
X215900000Y-99060000D03*
X215900000Y-101600000D03*
X215900000Y-104140000D03*
X215900000Y-106680000D03*
X215900000Y-109220000D03*
X215900000Y-111760000D03*
X215900000Y-114300000D03*
X215900000Y-116840000D03*
X215900000Y-119380000D03*
X209550000Y-127000000D03*
X207010000Y-127000000D03*
X204470000Y-127000000D03*
X163830000Y-124460000D03*
X166370000Y-124460000D03*
X168910000Y-124460000D03*
X171450000Y-124460000D03*
X173990000Y-124460000D03*
X176530000Y-124460000D03*
X179070000Y-124460000D03*
X181610000Y-124460000D03*
X184150000Y-124460000D03*
X186690000Y-124460000D03*
X189230000Y-124460000D03*
X191770000Y-124460000D03*
X194310000Y-124460000D03*
X196850000Y-124460000D03*
X199390000Y-124460000D03*
X201930000Y-124460000D03*
X156210000Y-127000000D03*
X158750000Y-127000000D03*
X161290000Y-127000000D03*
X156210000Y-71120000D03*
X158750000Y-69850000D03*
X161290000Y-69850000D03*
X163830000Y-69850000D03*
X166370000Y-69850000D03*
X168910000Y-69850000D03*
X171450000Y-69850000D03*
X173990000Y-69850000D03*
X176530000Y-69850000D03*
X179070000Y-69850000D03*
X181610000Y-69850000D03*
X184150000Y-69850000D03*
X186690000Y-69850000D03*
X189230000Y-69850000D03*
X191770000Y-69850000D03*
X194310000Y-69850000D03*
X196850000Y-69850000D03*
X199390000Y-69850000D03*
X201930000Y-69850000D03*
X156210000Y-86360000D03*
X156210000Y-88900000D03*
X156210000Y-91440000D03*
X156210000Y-96520000D03*
X156210000Y-99060000D03*
X156210000Y-104140000D03*
X156210000Y-106680000D03*
X156210000Y-109220000D03*
X156210000Y-111760000D03*
X182880000Y-91440000D03*
X185420000Y-91440000D03*
X187960000Y-91440000D03*
X190500000Y-91440000D03*
X193040000Y-93980000D03*
X195580000Y-93980000D03*
X198120000Y-93980000D03*
X200660000Y-91440000D03*
X156210000Y-81280000D03*
X209550000Y-69850000D03*
X207010000Y-69850000D03*
X204470000Y-69850000D03*
D19*
X158115000Y-100330000D02*
X158115000Y-99695000D01*
X148590000Y-109855000D02*
X158115000Y-100330000D01*
X143510000Y-109855000D02*
X148590000Y-109855000D01*
X147955000Y-108585000D02*
X147955000Y-95250000D01*
X174625000Y-115570000D02*
X143510000Y-115570000D01*
X180340000Y-109855000D02*
X174625000Y-115570000D01*
D20*
X199517000Y-109855000D02*
X200787000Y-109855000D01*
X209550000Y-115570000D02*
X209550000Y-114300000D01*
D21*
X209550000Y-114300000D02*
X209550000Y-113665000D01*
X205740000Y-109855000D02*
X200787000Y-109855000D01*
X209550000Y-113665000D02*
X205740000Y-109855000D01*
D19*
X209550000Y-111760000D02*
X208280000Y-110490000D01*
X209550000Y-114300000D02*
X209550000Y-111760000D01*
X208280000Y-101600000D02*
X208280000Y-99060000D01*
X208280000Y-107950000D02*
X208280000Y-104140000D01*
X168910000Y-102870000D02*
X173990000Y-102870000D01*
X160655000Y-94615000D02*
X168910000Y-102870000D01*
D22*
X171765000Y-106045000D02*
X172720000Y-106045000D01*
X173990000Y-106045000D02*
X172720000Y-106045000D01*
X168910000Y-106045000D02*
X169865000Y-106045000D01*
X168910000Y-104140000D02*
X168275000Y-103505000D01*
X168275000Y-103505000D02*
X167640000Y-103505000D01*
X167640000Y-103505000D02*
X165100000Y-106045000D01*
X165100000Y-106045000D02*
X164465000Y-106045000D01*
X164465000Y-106045000D02*
X163830000Y-105410000D01*
X163830000Y-105410000D02*
X163830000Y-104775000D01*
X163830000Y-104775000D02*
X166370000Y-102235000D01*
X166370000Y-102235000D02*
X166370000Y-101600000D01*
X166370000Y-101600000D02*
X165735000Y-100965000D01*
X165735000Y-100965000D02*
X165100000Y-100965000D01*
X165100000Y-100965000D02*
X162560000Y-103505000D01*
X162560000Y-103505000D02*
X161925000Y-103505000D01*
X161925000Y-103505000D02*
X161290000Y-102870000D01*
X161290000Y-102870000D02*
X161290000Y-102235000D01*
X161290000Y-102235000D02*
X161925000Y-101600000D01*
X161925000Y-101600000D02*
X161925000Y-99695000D01*
X168910000Y-106045000D02*
X168910000Y-104140000D01*
X168910000Y-111125000D02*
X168910000Y-114300000D01*
X160655000Y-102870000D02*
X160655000Y-95885000D01*
X168910000Y-111125000D02*
X160655000Y-102870000D01*
X177800000Y-117475000D02*
X177165000Y-117475000D01*
X177800000Y-114935000D02*
X177800000Y-117475000D01*
X176530000Y-116840000D02*
X176530000Y-116205000D01*
X177165000Y-117475000D02*
X176530000Y-116840000D01*
X176530000Y-124460000D02*
X176530000Y-118745000D01*
X176530000Y-118745000D02*
X175260000Y-117475000D01*
D19*
X143510000Y-113030000D02*
X142240000Y-114300000D01*
X142240000Y-114300000D02*
X142240000Y-116840000D01*
X142240000Y-116840000D02*
X151130000Y-125730000D01*
X151130000Y-125730000D02*
X153670000Y-125730000D01*
X151130000Y-127000000D02*
X148590000Y-127000000D01*
X146050000Y-127000000D02*
X147320000Y-125730000D01*
X147320000Y-125730000D02*
X147320000Y-121920000D01*
X147320000Y-121920000D02*
X144780000Y-119380000D01*
X144780000Y-119380000D02*
X139700000Y-119380000D01*
X139700000Y-116840000D02*
X139700000Y-114300000D01*
X139700000Y-111760000D02*
X139700000Y-109220000D01*
X139700000Y-106680000D02*
X139700000Y-104140000D01*
X139700000Y-101600000D02*
X139700000Y-99060000D01*
X139700000Y-96520000D02*
X139700000Y-93980000D01*
X139700000Y-91440000D02*
X139700000Y-88900000D01*
X139700000Y-86360000D02*
X139700000Y-83820000D01*
X139700000Y-81280000D02*
X139700000Y-78740000D01*
X139700000Y-76200000D02*
X143510000Y-76200000D01*
X143510000Y-76200000D02*
X146050000Y-73660000D01*
X146050000Y-73660000D02*
X146050000Y-69850000D01*
X148590000Y-69850000D02*
X151130000Y-69850000D01*
X153670000Y-69850000D02*
X153670000Y-72390000D01*
X151130000Y-110490000D02*
X153670000Y-110490000D01*
X153670000Y-113030000D02*
X143510000Y-113030000D01*
X153670000Y-102870000D02*
X153670000Y-100330000D01*
X153670000Y-97790000D02*
X153670000Y-90170000D01*
X163830000Y-124460000D02*
X161290000Y-127000000D01*
X204470000Y-127000000D02*
X201930000Y-124460000D01*
X204470000Y-82550000D02*
X207010000Y-85090000D01*
X207010000Y-85090000D02*
X210820000Y-85090000D01*
X210820000Y-85090000D02*
X214630000Y-81280000D01*
X214630000Y-81280000D02*
X214630000Y-77470000D01*
X214630000Y-77470000D02*
X215900000Y-76200000D01*
X215900000Y-78740000D02*
X215900000Y-81280000D01*
X215900000Y-83820000D02*
X215900000Y-86360000D01*
X215900000Y-88900000D02*
X215900000Y-91440000D01*
X215900000Y-93980000D02*
X215900000Y-96520000D01*
X215900000Y-99060000D02*
X215900000Y-101600000D01*
X215900000Y-104140000D02*
X215900000Y-106680000D01*
X215900000Y-109220000D02*
X215900000Y-111760000D01*
X215900000Y-114300000D02*
X215900000Y-116840000D01*
X215900000Y-119380000D02*
X213360000Y-119380000D01*
X213360000Y-119380000D02*
X209550000Y-123190000D01*
X209550000Y-123190000D02*
X209550000Y-127000000D01*
X207010000Y-127000000D02*
X204470000Y-127000000D01*
X204470000Y-82550000D02*
X204470000Y-80645000D01*
X168910000Y-124460000D02*
X166370000Y-124460000D01*
X173990000Y-124460000D02*
X171450000Y-124460000D01*
X179070000Y-124460000D02*
X176530000Y-124460000D01*
X184150000Y-124460000D02*
X181610000Y-124460000D01*
X189230000Y-124460000D02*
X186690000Y-124460000D01*
X194310000Y-124460000D02*
X191770000Y-124460000D01*
X199390000Y-124460000D02*
X196850000Y-124460000D01*
X158750000Y-127000000D02*
X156210000Y-127000000D01*
X158750000Y-69850000D02*
X161290000Y-69850000D01*
X163830000Y-69850000D02*
X166370000Y-69850000D01*
X168910000Y-69850000D02*
X171450000Y-69850000D01*
X173990000Y-69850000D02*
X176530000Y-69850000D01*
X179070000Y-69850000D02*
X181610000Y-69850000D01*
X184150000Y-69850000D02*
X186690000Y-69850000D01*
X189230000Y-69850000D02*
X191770000Y-69850000D01*
X194310000Y-69850000D02*
X196850000Y-69850000D01*
X199390000Y-69850000D02*
X201930000Y-69850000D01*
X156210000Y-86360000D02*
X156210000Y-81280000D01*
X156210000Y-91440000D02*
X156210000Y-88900000D01*
X156210000Y-99060000D02*
X156210000Y-96520000D01*
X156210000Y-106680000D02*
X156210000Y-104140000D01*
X156210000Y-111760000D02*
X156210000Y-109220000D01*
X156210000Y-81280000D02*
X156210000Y-71120000D01*
X185420000Y-91440000D02*
X187960000Y-91440000D01*
X190500000Y-91440000D02*
X193040000Y-93980000D01*
X195580000Y-93980000D02*
X198120000Y-93980000D01*
X182880000Y-90170000D02*
X182880000Y-91440000D01*
D22*
X158750000Y-83820000D02*
X156210000Y-81280000D01*
X158750000Y-86360000D02*
X158750000Y-83820000D01*
X214000000Y-121280000D02*
X215900000Y-119380000D01*
X214000000Y-124000000D02*
X214000000Y-121280000D01*
X143050000Y-124000000D02*
X146050000Y-127000000D01*
X142000000Y-124000000D02*
X143050000Y-124000000D01*
X143900000Y-72000000D02*
X146050000Y-69850000D01*
X142000000Y-72000000D02*
X143900000Y-72000000D01*
X211700000Y-72000000D02*
X209550000Y-69850000D01*
D19*
X204470000Y-69850000D02*
X207010000Y-69850000D01*
D22*
X214000000Y-72000000D02*
X211700000Y-72000000D01*
G36*
X211963000Y-116097492D02*
X211818128Y-116825814D01*
X211412652Y-117432652D01*
X210805814Y-117838128D01*
X210077492Y-117983000D01*
X209657508Y-117983000D01*
X208929186Y-117838128D01*
X208322348Y-117432652D01*
X207916872Y-116825814D01*
X207772000Y-116097492D01*
X207772000Y-115017492D01*
X207612390Y-114215080D01*
X207150776Y-113524224D01*
X206459920Y-113062610D01*
X205657508Y-112903000D01*
X197592508Y-112903000D01*
X196864186Y-112758128D01*
X196257348Y-112352652D01*
X195851872Y-111745814D01*
X195707000Y-111017492D01*
X195707000Y-108692508D01*
X195851872Y-107964186D01*
X196257348Y-107357348D01*
X196864186Y-106951872D01*
X197592508Y-106807000D01*
X205657508Y-106807000D01*
X206459920Y-106647390D01*
X207150776Y-106185776D01*
X207612390Y-105494920D01*
X207772000Y-104692508D01*
X207772000Y-94087508D01*
X207916872Y-93359186D01*
X208322348Y-92752348D01*
X208929186Y-92346872D01*
X209657508Y-92202000D01*
X210077492Y-92202000D01*
X210805814Y-92346872D01*
X211412652Y-92752348D01*
X211818128Y-93359186D01*
X211963000Y-94087508D01*
X211963000Y-116097492D01*
X211963000Y-116097492D01*
G37*
X211963000Y-116097492D02*
X211818128Y-116825814D01*
X211412652Y-117432652D01*
X210805814Y-117838128D01*
X210077492Y-117983000D01*
X209657508Y-117983000D01*
X208929186Y-117838128D01*
X208322348Y-117432652D01*
X207916872Y-116825814D01*
X207772000Y-116097492D01*
X207772000Y-115017492D01*
X207612390Y-114215080D01*
X207150776Y-113524224D01*
X206459920Y-113062610D01*
X205657508Y-112903000D01*
X197592508Y-112903000D01*
X196864186Y-112758128D01*
X196257348Y-112352652D01*
X195851872Y-111745814D01*
X195707000Y-111017492D01*
X195707000Y-108692508D01*
X195851872Y-107964186D01*
X196257348Y-107357348D01*
X196864186Y-106951872D01*
X197592508Y-106807000D01*
X205657508Y-106807000D01*
X206459920Y-106647390D01*
X207150776Y-106185776D01*
X207612390Y-105494920D01*
X207772000Y-104692508D01*
X207772000Y-94087508D01*
X207916872Y-93359186D01*
X208322348Y-92752348D01*
X208929186Y-92346872D01*
X209657508Y-92202000D01*
X210077492Y-92202000D01*
X210805814Y-92346872D01*
X211412652Y-92752348D01*
X211818128Y-93359186D01*
X211963000Y-94087508D01*
X211963000Y-116097492D01*
G36*
X185293000Y-84982492D02*
X185148128Y-85710814D01*
X184742652Y-86317652D01*
X184135814Y-86723128D01*
X183407492Y-86868000D01*
X170922508Y-86868000D01*
X170194186Y-86723128D01*
X169587348Y-86317652D01*
X169181872Y-85710814D01*
X169037000Y-84982492D01*
X169037000Y-74402508D01*
X169181872Y-73674186D01*
X169587348Y-73067348D01*
X170194186Y-72661872D01*
X170922508Y-72517000D01*
X183407492Y-72517000D01*
X184135814Y-72661872D01*
X184742652Y-73067348D01*
X185148128Y-73674186D01*
X185293000Y-74402508D01*
X185293000Y-84982492D01*
X185293000Y-84982492D01*
G37*
X185293000Y-84982492D02*
X185148128Y-85710814D01*
X184742652Y-86317652D01*
X184135814Y-86723128D01*
X183407492Y-86868000D01*
X170922508Y-86868000D01*
X170194186Y-86723128D01*
X169587348Y-86317652D01*
X169181872Y-85710814D01*
X169037000Y-84982492D01*
X169037000Y-74402508D01*
X169181872Y-73674186D01*
X169587348Y-73067348D01*
X170194186Y-72661872D01*
X170922508Y-72517000D01*
X183407492Y-72517000D01*
X184135814Y-72661872D01*
X184742652Y-73067348D01*
X185148128Y-73674186D01*
X185293000Y-74402508D01*
X185293000Y-84982492D01*
G36*
X187198000Y-111017492D02*
X187053128Y-111745814D01*
X186647652Y-112352652D01*
X186040814Y-112758128D01*
X185312492Y-112903000D01*
X174732508Y-112903000D01*
X174004186Y-112758128D01*
X173397348Y-112352652D01*
X172991872Y-111745814D01*
X172847000Y-111017492D01*
X172847000Y-106807000D01*
X173225358Y-106807000D01*
X173377714Y-106959622D01*
X173774332Y-107124313D01*
X174203784Y-107124687D01*
X174600689Y-106960689D01*
X174904622Y-106657286D01*
X175069313Y-106260668D01*
X175069687Y-105831216D01*
X174905689Y-105434311D01*
X174602286Y-105130378D01*
X174205668Y-104965687D01*
X173776216Y-104965313D01*
X173379311Y-105129311D01*
X173225353Y-105283000D01*
X172847000Y-105283000D01*
X172847000Y-103811250D01*
X173441841Y-103811250D01*
X173774332Y-103949313D01*
X174203784Y-103949687D01*
X174600689Y-103785689D01*
X174904622Y-103482286D01*
X175069313Y-103085668D01*
X175069687Y-102656216D01*
X174905689Y-102259311D01*
X174602286Y-101955378D01*
X174205668Y-101790687D01*
X173776216Y-101790313D01*
X173441173Y-101928750D01*
X172847000Y-101928750D01*
X172847000Y-97262508D01*
X172991872Y-96534186D01*
X173397348Y-95927348D01*
X174004186Y-95521872D01*
X174732508Y-95377000D01*
X185312492Y-95377000D01*
X186040814Y-95521872D01*
X186647652Y-95927348D01*
X187053128Y-96534186D01*
X187198000Y-97262508D01*
X187198000Y-111017492D01*
X187198000Y-111017492D01*
G37*
X187198000Y-111017492D02*
X187053128Y-111745814D01*
X186647652Y-112352652D01*
X186040814Y-112758128D01*
X185312492Y-112903000D01*
X174732508Y-112903000D01*
X174004186Y-112758128D01*
X173397348Y-112352652D01*
X172991872Y-111745814D01*
X172847000Y-111017492D01*
X172847000Y-106807000D01*
X173225358Y-106807000D01*
X173377714Y-106959622D01*
X173774332Y-107124313D01*
X174203784Y-107124687D01*
X174600689Y-106960689D01*
X174904622Y-106657286D01*
X175069313Y-106260668D01*
X175069687Y-105831216D01*
X174905689Y-105434311D01*
X174602286Y-105130378D01*
X174205668Y-104965687D01*
X173776216Y-104965313D01*
X173379311Y-105129311D01*
X173225353Y-105283000D01*
X172847000Y-105283000D01*
X172847000Y-103811250D01*
X173441841Y-103811250D01*
X173774332Y-103949313D01*
X174203784Y-103949687D01*
X174600689Y-103785689D01*
X174904622Y-103482286D01*
X175069313Y-103085668D01*
X175069687Y-102656216D01*
X174905689Y-102259311D01*
X174602286Y-101955378D01*
X174205668Y-101790687D01*
X173776216Y-101790313D01*
X173441173Y-101928750D01*
X172847000Y-101928750D01*
X172847000Y-97262508D01*
X172991872Y-96534186D01*
X173397348Y-95927348D01*
X174004186Y-95521872D01*
X174732508Y-95377000D01*
X185312492Y-95377000D01*
X186040814Y-95521872D01*
X186647652Y-95927348D01*
X187053128Y-96534186D01*
X187198000Y-97262508D01*
X187198000Y-111017492D01*
G36*
X211328000Y-79997492D02*
X211190360Y-80689459D01*
X210805476Y-81265476D01*
X210229459Y-81650360D01*
X209550000Y-81785512D01*
X208870541Y-81650360D01*
X208294524Y-81265476D01*
X207909640Y-80689459D01*
X207772000Y-79997492D01*
X207772000Y-78285919D01*
X207612390Y-77483507D01*
X207157861Y-76803256D01*
X207041744Y-76687139D01*
X206361493Y-76232610D01*
X205559081Y-76073000D01*
X196519992Y-76073000D01*
X195875437Y-76201210D01*
X195318406Y-76573406D01*
X194946210Y-77130437D01*
X194820440Y-77762724D01*
X194704528Y-78345457D01*
X194388470Y-78818470D01*
X193915457Y-79134528D01*
X193357500Y-79245512D01*
X192799543Y-79134528D01*
X192326530Y-78818470D01*
X192010472Y-78345457D01*
X191897000Y-77774992D01*
X191897000Y-75037508D01*
X192041872Y-74309186D01*
X192447348Y-73702348D01*
X193054186Y-73296872D01*
X193782508Y-73152000D01*
X206169065Y-73152000D01*
X206897387Y-73296872D01*
X207514828Y-73709433D01*
X210770567Y-76965172D01*
X211183128Y-77582613D01*
X211328000Y-78310935D01*
X211328000Y-79997492D01*
X211328000Y-79997492D01*
G37*
X211328000Y-79997492D02*
X211190360Y-80689459D01*
X210805476Y-81265476D01*
X210229459Y-81650360D01*
X209550000Y-81785512D01*
X208870541Y-81650360D01*
X208294524Y-81265476D01*
X207909640Y-80689459D01*
X207772000Y-79997492D01*
X207772000Y-78285919D01*
X207612390Y-77483507D01*
X207157861Y-76803256D01*
X207041744Y-76687139D01*
X206361493Y-76232610D01*
X205559081Y-76073000D01*
X196519992Y-76073000D01*
X195875437Y-76201210D01*
X195318406Y-76573406D01*
X194946210Y-77130437D01*
X194820440Y-77762724D01*
X194704528Y-78345457D01*
X194388470Y-78818470D01*
X193915457Y-79134528D01*
X193357500Y-79245512D01*
X192799543Y-79134528D01*
X192326530Y-78818470D01*
X192010472Y-78345457D01*
X191897000Y-77774992D01*
X191897000Y-75037508D01*
X192041872Y-74309186D01*
X192447348Y-73702348D01*
X193054186Y-73296872D01*
X193782508Y-73152000D01*
X206169065Y-73152000D01*
X206897387Y-73296872D01*
X207514828Y-73709433D01*
X210770567Y-76965172D01*
X211183128Y-77582613D01*
X211328000Y-78310935D01*
X211328000Y-79997492D01*
G36*
X217315000Y-126677265D02*
X217127652Y-126957652D01*
X216592842Y-127315000D01*
X212852000Y-127315000D01*
X212852000Y-116757508D01*
X212852000Y-93427492D01*
X212692390Y-92625080D01*
X212230776Y-91934224D01*
X212217000Y-91925019D01*
X212217000Y-80562508D01*
X212217000Y-77650919D01*
X212057390Y-76848507D01*
X211602861Y-76168256D01*
X208311744Y-72877139D01*
X207631493Y-72422610D01*
X206829081Y-72263000D01*
X193122492Y-72263000D01*
X192320080Y-72422610D01*
X191629224Y-72884224D01*
X191167610Y-73575080D01*
X191008000Y-74377492D01*
X191008000Y-78022508D01*
X191167610Y-78824920D01*
X191629224Y-79515776D01*
X192320080Y-79977390D01*
X193122492Y-80137000D01*
X194005008Y-80137000D01*
X194649563Y-80008790D01*
X195206594Y-79636594D01*
X195578790Y-79079563D01*
X195704560Y-78447276D01*
X195820472Y-77864543D01*
X196136530Y-77391530D01*
X196609543Y-77075472D01*
X197180008Y-76962000D01*
X204899065Y-76962000D01*
X205627387Y-77106872D01*
X206244828Y-77519433D01*
X206325567Y-77600172D01*
X206738128Y-78217613D01*
X206883000Y-78945935D01*
X206883000Y-80562508D01*
X207042610Y-81364920D01*
X207504224Y-82055776D01*
X208195080Y-82517390D01*
X208997492Y-82677000D01*
X210102508Y-82677000D01*
X210904920Y-82517390D01*
X211595776Y-82055776D01*
X212057390Y-81364920D01*
X212217000Y-80562508D01*
X212217000Y-91925019D01*
X211539920Y-91472610D01*
X210737508Y-91313000D01*
X208997492Y-91313000D01*
X208195080Y-91472610D01*
X207504224Y-91934224D01*
X207042610Y-92625080D01*
X206883000Y-93427492D01*
X206883000Y-104032492D01*
X206738128Y-104760814D01*
X206332652Y-105367652D01*
X205725814Y-105773128D01*
X204997492Y-105918000D01*
X196932492Y-105918000D01*
X196130080Y-106077610D01*
X195439224Y-106539224D01*
X194977610Y-107230080D01*
X194818000Y-108032492D01*
X194818000Y-111677508D01*
X194977610Y-112479920D01*
X195439224Y-113170776D01*
X196130080Y-113632390D01*
X196932492Y-113792000D01*
X204997492Y-113792000D01*
X205725814Y-113936872D01*
X206332652Y-114342348D01*
X206738128Y-114949186D01*
X206883000Y-115677508D01*
X206883000Y-116757508D01*
X207042610Y-117559920D01*
X207504224Y-118250776D01*
X208195080Y-118712390D01*
X208997492Y-118872000D01*
X210737508Y-118872000D01*
X211539920Y-118712390D01*
X212230776Y-118250776D01*
X212692390Y-117559920D01*
X212852000Y-116757508D01*
X212852000Y-127315000D01*
X156787157Y-127315000D01*
X156252348Y-126957652D01*
X155846872Y-126350814D01*
X155702000Y-125622492D01*
X155702000Y-116511250D01*
X174625000Y-116511250D01*
X174985201Y-116439602D01*
X175290564Y-116235564D01*
X177734128Y-113792000D01*
X185972508Y-113792000D01*
X186774920Y-113632390D01*
X187465776Y-113170776D01*
X187927390Y-112479920D01*
X188087000Y-111677508D01*
X188087000Y-96602492D01*
X187927390Y-95800080D01*
X187465776Y-95109224D01*
X186774920Y-94647610D01*
X186182000Y-94529670D01*
X186182000Y-85642508D01*
X186182000Y-73742492D01*
X186022390Y-72940080D01*
X185560776Y-72249224D01*
X184869920Y-71787610D01*
X184067508Y-71628000D01*
X170262492Y-71628000D01*
X169460080Y-71787610D01*
X168769224Y-72249224D01*
X168307610Y-72940080D01*
X168148000Y-73742492D01*
X168148000Y-85642508D01*
X168307610Y-86444920D01*
X168769224Y-87135776D01*
X169460080Y-87597390D01*
X170262492Y-87757000D01*
X184067508Y-87757000D01*
X184869920Y-87597390D01*
X185560776Y-87135776D01*
X186022390Y-86444920D01*
X186182000Y-85642508D01*
X186182000Y-94529670D01*
X185972508Y-94488000D01*
X174072492Y-94488000D01*
X173270080Y-94647610D01*
X172579224Y-95109224D01*
X172117610Y-95800080D01*
X171958000Y-96602492D01*
X171958000Y-101928750D01*
X169299878Y-101928750D01*
X162155370Y-94784242D01*
X162155370Y-75142185D01*
X161831020Y-74357200D01*
X161230959Y-73756091D01*
X160446541Y-73430372D01*
X159597185Y-73429630D01*
X158812200Y-73753980D01*
X158211091Y-74354041D01*
X157885372Y-75138459D01*
X157884630Y-75987815D01*
X158208980Y-76772800D01*
X158809041Y-77373909D01*
X159593459Y-77699628D01*
X160442815Y-77700370D01*
X161227800Y-77376020D01*
X161828909Y-76775959D01*
X162154628Y-75991541D01*
X162155370Y-75142185D01*
X162155370Y-94784242D01*
X161708171Y-94337043D01*
X161570689Y-94004311D01*
X161267286Y-93700378D01*
X160870668Y-93535687D01*
X160441216Y-93535313D01*
X160044311Y-93699311D01*
X159740378Y-94002714D01*
X159575687Y-94399332D01*
X159575313Y-94828784D01*
X159739311Y-95225689D01*
X159763356Y-95249776D01*
X159740378Y-95272714D01*
X159575687Y-95669332D01*
X159575313Y-96098784D01*
X159739311Y-96495689D01*
X159893000Y-96649646D01*
X159893000Y-102870000D01*
X159951004Y-103161605D01*
X160116185Y-103408815D01*
X168148000Y-111440630D01*
X168148000Y-113535358D01*
X167995378Y-113687714D01*
X167830687Y-114084332D01*
X167830313Y-114513784D01*
X167877816Y-114628750D01*
X155702000Y-114628750D01*
X155702000Y-104074128D01*
X158780564Y-100995564D01*
X158984602Y-100690201D01*
X159056250Y-100330000D01*
X159056250Y-100243158D01*
X159194313Y-99910668D01*
X159194687Y-99481216D01*
X159030689Y-99084311D01*
X158727286Y-98780378D01*
X158330668Y-98615687D01*
X157901216Y-98615313D01*
X157504311Y-98779311D01*
X157200378Y-99082714D01*
X157035687Y-99479332D01*
X157035313Y-99908784D01*
X157084952Y-100028919D01*
X155702000Y-101411872D01*
X155702000Y-97142492D01*
X155646295Y-96862443D01*
X155480575Y-96614425D01*
X155232557Y-96448705D01*
X154940000Y-96390512D01*
X154647443Y-96448705D01*
X154399425Y-96614425D01*
X154233705Y-96862443D01*
X154178000Y-97142492D01*
X154178000Y-102935872D01*
X153265370Y-103848501D01*
X153265370Y-102447185D01*
X152941020Y-101662200D01*
X152340959Y-101061091D01*
X151556541Y-100735372D01*
X150707185Y-100734630D01*
X149922200Y-101058980D01*
X149321091Y-101659041D01*
X148995372Y-102443459D01*
X148994630Y-103292815D01*
X149318980Y-104077800D01*
X149919041Y-104678909D01*
X150703459Y-105004628D01*
X151552815Y-105005370D01*
X152337800Y-104681020D01*
X152938909Y-104080959D01*
X153264628Y-103296541D01*
X153265370Y-102447185D01*
X153265370Y-103848501D01*
X148949302Y-108164569D01*
X148896250Y-108036173D01*
X148896250Y-95798158D01*
X149034313Y-95465668D01*
X149034687Y-95036216D01*
X148870689Y-94639311D01*
X148567286Y-94335378D01*
X148170668Y-94170687D01*
X147741216Y-94170313D01*
X147344311Y-94334311D01*
X147040378Y-94637714D01*
X146875687Y-95034332D01*
X146875313Y-95463784D01*
X147013750Y-95798826D01*
X147013750Y-108036841D01*
X146875687Y-108369332D01*
X146875313Y-108798784D01*
X146922816Y-108913750D01*
X144058158Y-108913750D01*
X143725668Y-108775687D01*
X143296216Y-108775313D01*
X142899311Y-108939311D01*
X142595378Y-109242714D01*
X142430687Y-109639332D01*
X142430313Y-110068784D01*
X142594311Y-110465689D01*
X142897714Y-110769622D01*
X143294332Y-110934313D01*
X143723784Y-110934687D01*
X144058826Y-110796250D01*
X148590000Y-110796250D01*
X148950201Y-110724602D01*
X149255564Y-110520564D01*
X154178000Y-105598128D01*
X154178000Y-114628750D01*
X144058158Y-114628750D01*
X143725668Y-114490687D01*
X143296216Y-114490313D01*
X142899311Y-114654311D01*
X142595378Y-114957714D01*
X142430687Y-115354332D01*
X142430313Y-115783784D01*
X142594311Y-116180689D01*
X142897714Y-116484622D01*
X143294332Y-116649313D01*
X143723784Y-116649687D01*
X144058826Y-116511250D01*
X154178000Y-116511250D01*
X154178000Y-126257492D01*
X154033128Y-126985814D01*
X153813173Y-127315000D01*
X138685000Y-127315000D01*
X138685000Y-68685000D01*
X153669514Y-68685000D01*
X154033128Y-69229186D01*
X154178000Y-69957508D01*
X154178000Y-90817508D01*
X154233705Y-91097557D01*
X154399425Y-91345575D01*
X154647443Y-91511295D01*
X154940000Y-91569488D01*
X155232557Y-91511295D01*
X155480575Y-91345575D01*
X155646295Y-91097557D01*
X155702000Y-90817508D01*
X155702000Y-69957508D01*
X155846872Y-69229186D01*
X156210485Y-68685000D01*
X217169514Y-68685000D01*
X217315000Y-68902734D01*
X217315000Y-126677265D01*
X217315000Y-126677265D01*
G37*
X217315000Y-126677265D02*
X217127652Y-126957652D01*
X216592842Y-127315000D01*
X212852000Y-127315000D01*
X212852000Y-116757508D01*
X212852000Y-93427492D01*
X212692390Y-92625080D01*
X212230776Y-91934224D01*
X212217000Y-91925019D01*
X212217000Y-80562508D01*
X212217000Y-77650919D01*
X212057390Y-76848507D01*
X211602861Y-76168256D01*
X208311744Y-72877139D01*
X207631493Y-72422610D01*
X206829081Y-72263000D01*
X193122492Y-72263000D01*
X192320080Y-72422610D01*
X191629224Y-72884224D01*
X191167610Y-73575080D01*
X191008000Y-74377492D01*
X191008000Y-78022508D01*
X191167610Y-78824920D01*
X191629224Y-79515776D01*
X192320080Y-79977390D01*
X193122492Y-80137000D01*
X194005008Y-80137000D01*
X194649563Y-80008790D01*
X195206594Y-79636594D01*
X195578790Y-79079563D01*
X195704560Y-78447276D01*
X195820472Y-77864543D01*
X196136530Y-77391530D01*
X196609543Y-77075472D01*
X197180008Y-76962000D01*
X204899065Y-76962000D01*
X205627387Y-77106872D01*
X206244828Y-77519433D01*
X206325567Y-77600172D01*
X206738128Y-78217613D01*
X206883000Y-78945935D01*
X206883000Y-80562508D01*
X207042610Y-81364920D01*
X207504224Y-82055776D01*
X208195080Y-82517390D01*
X208997492Y-82677000D01*
X210102508Y-82677000D01*
X210904920Y-82517390D01*
X211595776Y-82055776D01*
X212057390Y-81364920D01*
X212217000Y-80562508D01*
X212217000Y-91925019D01*
X211539920Y-91472610D01*
X210737508Y-91313000D01*
X208997492Y-91313000D01*
X208195080Y-91472610D01*
X207504224Y-91934224D01*
X207042610Y-92625080D01*
X206883000Y-93427492D01*
X206883000Y-104032492D01*
X206738128Y-104760814D01*
X206332652Y-105367652D01*
X205725814Y-105773128D01*
X204997492Y-105918000D01*
X196932492Y-105918000D01*
X196130080Y-106077610D01*
X195439224Y-106539224D01*
X194977610Y-107230080D01*
X194818000Y-108032492D01*
X194818000Y-111677508D01*
X194977610Y-112479920D01*
X195439224Y-113170776D01*
X196130080Y-113632390D01*
X196932492Y-113792000D01*
X204997492Y-113792000D01*
X205725814Y-113936872D01*
X206332652Y-114342348D01*
X206738128Y-114949186D01*
X206883000Y-115677508D01*
X206883000Y-116757508D01*
X207042610Y-117559920D01*
X207504224Y-118250776D01*
X208195080Y-118712390D01*
X208997492Y-118872000D01*
X210737508Y-118872000D01*
X211539920Y-118712390D01*
X212230776Y-118250776D01*
X212692390Y-117559920D01*
X212852000Y-116757508D01*
X212852000Y-127315000D01*
X156787157Y-127315000D01*
X156252348Y-126957652D01*
X155846872Y-126350814D01*
X155702000Y-125622492D01*
X155702000Y-116511250D01*
X174625000Y-116511250D01*
X174985201Y-116439602D01*
X175290564Y-116235564D01*
X177734128Y-113792000D01*
X185972508Y-113792000D01*
X186774920Y-113632390D01*
X187465776Y-113170776D01*
X187927390Y-112479920D01*
X188087000Y-111677508D01*
X188087000Y-96602492D01*
X187927390Y-95800080D01*
X187465776Y-95109224D01*
X186774920Y-94647610D01*
X186182000Y-94529670D01*
X186182000Y-85642508D01*
X186182000Y-73742492D01*
X186022390Y-72940080D01*
X185560776Y-72249224D01*
X184869920Y-71787610D01*
X184067508Y-71628000D01*
X170262492Y-71628000D01*
X169460080Y-71787610D01*
X168769224Y-72249224D01*
X168307610Y-72940080D01*
X168148000Y-73742492D01*
X168148000Y-85642508D01*
X168307610Y-86444920D01*
X168769224Y-87135776D01*
X169460080Y-87597390D01*
X170262492Y-87757000D01*
X184067508Y-87757000D01*
X184869920Y-87597390D01*
X185560776Y-87135776D01*
X186022390Y-86444920D01*
X186182000Y-85642508D01*
X186182000Y-94529670D01*
X185972508Y-94488000D01*
X174072492Y-94488000D01*
X173270080Y-94647610D01*
X172579224Y-95109224D01*
X172117610Y-95800080D01*
X171958000Y-96602492D01*
X171958000Y-101928750D01*
X169299878Y-101928750D01*
X162155370Y-94784242D01*
X162155370Y-75142185D01*
X161831020Y-74357200D01*
X161230959Y-73756091D01*
X160446541Y-73430372D01*
X159597185Y-73429630D01*
X158812200Y-73753980D01*
X158211091Y-74354041D01*
X157885372Y-75138459D01*
X157884630Y-75987815D01*
X158208980Y-76772800D01*
X158809041Y-77373909D01*
X159593459Y-77699628D01*
X160442815Y-77700370D01*
X161227800Y-77376020D01*
X161828909Y-76775959D01*
X162154628Y-75991541D01*
X162155370Y-75142185D01*
X162155370Y-94784242D01*
X161708171Y-94337043D01*
X161570689Y-94004311D01*
X161267286Y-93700378D01*
X160870668Y-93535687D01*
X160441216Y-93535313D01*
X160044311Y-93699311D01*
X159740378Y-94002714D01*
X159575687Y-94399332D01*
X159575313Y-94828784D01*
X159739311Y-95225689D01*
X159763356Y-95249776D01*
X159740378Y-95272714D01*
X159575687Y-95669332D01*
X159575313Y-96098784D01*
X159739311Y-96495689D01*
X159893000Y-96649646D01*
X159893000Y-102870000D01*
X159951004Y-103161605D01*
X160116185Y-103408815D01*
X168148000Y-111440630D01*
X168148000Y-113535358D01*
X167995378Y-113687714D01*
X167830687Y-114084332D01*
X167830313Y-114513784D01*
X167877816Y-114628750D01*
X155702000Y-114628750D01*
X155702000Y-104074128D01*
X158780564Y-100995564D01*
X158984602Y-100690201D01*
X159056250Y-100330000D01*
X159056250Y-100243158D01*
X159194313Y-99910668D01*
X159194687Y-99481216D01*
X159030689Y-99084311D01*
X158727286Y-98780378D01*
X158330668Y-98615687D01*
X157901216Y-98615313D01*
X157504311Y-98779311D01*
X157200378Y-99082714D01*
X157035687Y-99479332D01*
X157035313Y-99908784D01*
X157084952Y-100028919D01*
X155702000Y-101411872D01*
X155702000Y-97142492D01*
X155646295Y-96862443D01*
X155480575Y-96614425D01*
X155232557Y-96448705D01*
X154940000Y-96390512D01*
X154647443Y-96448705D01*
X154399425Y-96614425D01*
X154233705Y-96862443D01*
X154178000Y-97142492D01*
X154178000Y-102935872D01*
X153265370Y-103848501D01*
X153265370Y-102447185D01*
X152941020Y-101662200D01*
X152340959Y-101061091D01*
X151556541Y-100735372D01*
X150707185Y-100734630D01*
X149922200Y-101058980D01*
X149321091Y-101659041D01*
X148995372Y-102443459D01*
X148994630Y-103292815D01*
X149318980Y-104077800D01*
X149919041Y-104678909D01*
X150703459Y-105004628D01*
X151552815Y-105005370D01*
X152337800Y-104681020D01*
X152938909Y-104080959D01*
X153264628Y-103296541D01*
X153265370Y-102447185D01*
X153265370Y-103848501D01*
X148949302Y-108164569D01*
X148896250Y-108036173D01*
X148896250Y-95798158D01*
X149034313Y-95465668D01*
X149034687Y-95036216D01*
X148870689Y-94639311D01*
X148567286Y-94335378D01*
X148170668Y-94170687D01*
X147741216Y-94170313D01*
X147344311Y-94334311D01*
X147040378Y-94637714D01*
X146875687Y-95034332D01*
X146875313Y-95463784D01*
X147013750Y-95798826D01*
X147013750Y-108036841D01*
X146875687Y-108369332D01*
X146875313Y-108798784D01*
X146922816Y-108913750D01*
X144058158Y-108913750D01*
X143725668Y-108775687D01*
X143296216Y-108775313D01*
X142899311Y-108939311D01*
X142595378Y-109242714D01*
X142430687Y-109639332D01*
X142430313Y-110068784D01*
X142594311Y-110465689D01*
X142897714Y-110769622D01*
X143294332Y-110934313D01*
X143723784Y-110934687D01*
X144058826Y-110796250D01*
X148590000Y-110796250D01*
X148950201Y-110724602D01*
X149255564Y-110520564D01*
X154178000Y-105598128D01*
X154178000Y-114628750D01*
X144058158Y-114628750D01*
X143725668Y-114490687D01*
X143296216Y-114490313D01*
X142899311Y-114654311D01*
X142595378Y-114957714D01*
X142430687Y-115354332D01*
X142430313Y-115783784D01*
X142594311Y-116180689D01*
X142897714Y-116484622D01*
X143294332Y-116649313D01*
X143723784Y-116649687D01*
X144058826Y-116511250D01*
X154178000Y-116511250D01*
X154178000Y-126257492D01*
X154033128Y-126985814D01*
X153813173Y-127315000D01*
X138685000Y-127315000D01*
X138685000Y-68685000D01*
X153669514Y-68685000D01*
X154033128Y-69229186D01*
X154178000Y-69957508D01*
X154178000Y-90817508D01*
X154233705Y-91097557D01*
X154399425Y-91345575D01*
X154647443Y-91511295D01*
X154940000Y-91569488D01*
X155232557Y-91511295D01*
X155480575Y-91345575D01*
X155646295Y-91097557D01*
X155702000Y-90817508D01*
X155702000Y-69957508D01*
X155846872Y-69229186D01*
X156210485Y-68685000D01*
X217169514Y-68685000D01*
X217315000Y-68902734D01*
X217315000Y-126677265D01*
M02*
