M48
INCH,TZ
T1C0.012
T2C0.025
T3C0.032
T4C0.059
T5C0.063
T6C0.079
T7C0.158
%
G90
G05
T1
X63000Y-39000
X66000Y-39000
T2
X56000Y-30000
X56000Y-31000
X56000Y-32000
X56000Y-33000
X56000Y-34000
X56000Y-35000
X56000Y-36000
X56000Y-38000
X56000Y-39000
X56000Y-40000
X56000Y-41000
X56000Y-42000
X56000Y-43000
X56000Y-44000
X56000Y-45000
X56000Y-46000
X56000Y-47000
X56125Y-37125
X57000Y-41000
X58000Y-28000
X58000Y-42000
X58000Y-43000
X58000Y-44000
X58000Y-45000
X58000Y-50000
X58500Y-33000
X58500Y-34000
X59000Y-28000
X59000Y-45000
X59000Y-50000
X59500Y-32000
X60000Y-28000
X60000Y-39000
X60000Y-40000
X60000Y-41000
X60000Y-42000
X60000Y-45000
X60000Y-50000
X60500Y-30000
X60500Y-30875
X61000Y-28000
X61000Y-33000
X61000Y-34000
X61000Y-35000
X61000Y-35750
X61000Y-46000
X61000Y-50000
X61750Y-40250
X61750Y-40750
X61750Y-41250
X62000Y-35000
X62000Y-46000
X62000Y-50000
X62500Y-39250
X63000Y-50000
X64000Y-50000
X64250Y-38000
X64750Y-35000
X64750Y-42000
X64750Y-42500
X65000Y-50000
X65250Y-37000
X65250Y-42000
X65250Y-42500
X65750Y-37000
X66000Y-50000
X66750Y-40000
X67000Y-35000
X67000Y-50000
X67250Y-40000
X67500Y-47000
X68000Y-50000
X69000Y-50000
X70000Y-50000
X71000Y-50000
X72000Y-50000
X72500Y-47000
X73000Y-50000
X73500Y-47000
X74000Y-50000
X74500Y-47000
X75000Y-36000
X75000Y-50000
X75500Y-47000
X76000Y-35000
X76000Y-36000
X76000Y-37000
X76000Y-38000
X76000Y-39000
X76000Y-50000
X76500Y-47000
X77000Y-50000
X77500Y-39000
X77500Y-47000
X78000Y-35000
X78000Y-37000
X78000Y-38000
X78000Y-50000
X78500Y-46000
X79000Y-34000
X79000Y-35000
X79000Y-36000
X79000Y-37000
X79000Y-38000
X79000Y-39000
X79000Y-50000
X79500Y-46000
X79500Y-47000
X79500Y-48000
X80000Y-49000
X80000Y-50000
X80250Y-45250
X80250Y-45750
X80750Y-45250
X80750Y-45750
X81750Y-43750
X81750Y-44250
X82000Y-35000
X82000Y-41000
X82000Y-42000
X82000Y-43000
X82250Y-43750
X82250Y-44250
X83000Y-35000
X83000Y-37000
X83000Y-38000
X83000Y-40000
X83000Y-41000
X83000Y-42000
X83000Y-43000
X84000Y-35000
X84000Y-37000
X84000Y-38000
X84000Y-39000
X84000Y-40000
X84000Y-41000
X84000Y-42000
X84000Y-43000
T3
X68500Y-37000
X68500Y-38000
T4
X80500Y-29500
X80500Y-33500
X80500Y-47500
X82500Y-29500
X82500Y-33500
X82500Y-47500
T5
X59000Y-40500
X59000Y-43500
X64125Y-29875
X68500Y-30000
X70850Y-29331
X70850Y-30669
X71000Y-44000
X76150Y-29331
X76150Y-30669
X83500Y-36000
X83500Y-44500
T6
X72950Y-44000
X78550Y-44000
T7
X56000Y-28500
X56000Y-49500
X84000Y-28500
X84000Y-49500
T0
M30
