G04 #@! TF.FileFunction,Soldermask,Top*
%FSLAX46Y46*%
G04 Gerber Fmt 4.6, Leading zero omitted, Abs format (unit mm)*
G04 Created by KiCad (PCBNEW (2014-12-22 BZR 5335)-product) date Thu 25 Dec 2014 04:56:00 AM PST*
%MOMM*%
G01*
G04 APERTURE LIST*
%ADD10C,0.100000*%
%ADD11C,1.397000*%
%ADD12C,2.500000*%
%ADD13C,3.000000*%
%ADD14R,0.450000X1.080000*%
%ADD15R,4.260000X3.540000*%
%ADD16R,1.000000X0.400000*%
%ADD17R,3.000000X4.200000*%
%ADD18R,1.000000X1.250000*%
%ADD19R,1.600000X1.000000*%
%ADD20R,1.250000X1.000000*%
%ADD21R,2.400300X4.000500*%
%ADD22R,1.000000X1.600000*%
%ADD23R,2.301240X2.499360*%
%ADD24R,0.700000X1.300000*%
%ADD25R,1.300000X0.700000*%
%ADD26R,1.000000X3.200000*%
%ADD27R,3.599180X1.600200*%
G04 APERTURE END LIST*
D10*
D11*
X173990000Y-93980000D03*
X173990000Y-96520000D03*
D12*
X179959000Y-77900000D03*
X179959000Y-74500000D03*
X193421000Y-74500000D03*
X193421000Y-77900000D03*
D13*
X185293000Y-111760000D03*
X199517000Y-111760000D03*
X149860000Y-102870000D03*
X149860000Y-110490000D03*
X173990000Y-76200000D03*
X162877500Y-75882500D03*
X212090000Y-91440000D03*
X212090000Y-113030000D03*
X180340000Y-111760000D03*
D12*
X209550000Y-74930000D03*
X204470000Y-74930000D03*
X209550000Y-85090000D03*
X204470000Y-85090000D03*
X209550000Y-120650000D03*
X204470000Y-120650000D03*
D14*
X175260000Y-82931000D03*
X176530000Y-82931000D03*
X179070000Y-82931000D03*
X177800000Y-82931000D03*
X179070000Y-88519000D03*
X177800000Y-88519000D03*
X175260000Y-88519000D03*
D15*
X177165000Y-84836000D03*
D14*
X176530000Y-88519000D03*
X175260000Y-98806000D03*
X176530000Y-98806000D03*
X179070000Y-98806000D03*
X177800000Y-98806000D03*
X179070000Y-104394000D03*
X177800000Y-104394000D03*
X175260000Y-104394000D03*
D15*
X177165000Y-100711000D03*
D14*
X176530000Y-104394000D03*
D16*
X152040000Y-91055000D03*
X152040000Y-91705000D03*
X152040000Y-92355000D03*
X152040000Y-93005000D03*
X152040000Y-93655000D03*
X152040000Y-94305000D03*
X152040000Y-94955000D03*
X152040000Y-95605000D03*
X152040000Y-96255000D03*
X152040000Y-96905000D03*
X157840000Y-96905000D03*
X157840000Y-96255000D03*
X157840000Y-95605000D03*
X157840000Y-94955000D03*
X157840000Y-94305000D03*
X157840000Y-93655000D03*
X157840000Y-93005000D03*
X157840000Y-92355000D03*
X157840000Y-91705000D03*
X157840000Y-91055000D03*
D17*
X154940000Y-93980000D03*
D18*
X157527500Y-78422500D03*
X155527500Y-78422500D03*
D19*
X166370000Y-89940000D03*
X166370000Y-92940000D03*
D18*
X146415000Y-90170000D03*
X144415000Y-90170000D03*
X146415000Y-87630000D03*
X144415000Y-87630000D03*
D20*
X168910000Y-98695000D03*
X168910000Y-100695000D03*
X146685000Y-99965000D03*
X146685000Y-101965000D03*
X146685000Y-97520000D03*
X146685000Y-95520000D03*
D19*
X189230000Y-86130000D03*
X189230000Y-89130000D03*
X186690000Y-86130000D03*
X186690000Y-89130000D03*
X166370000Y-98020000D03*
X166370000Y-95020000D03*
D21*
X196215000Y-83629500D03*
X196215000Y-91630500D03*
D19*
X168910000Y-92940000D03*
X168910000Y-89940000D03*
D20*
X171450000Y-94885000D03*
X171450000Y-96885000D03*
D22*
X208510000Y-91440000D03*
X205510000Y-91440000D03*
X208510000Y-95250000D03*
X205510000Y-95250000D03*
D23*
X162560000Y-94223840D03*
X162560000Y-89926160D03*
X182880000Y-89778840D03*
X182880000Y-85481160D03*
X159385000Y-105653840D03*
X159385000Y-101356160D03*
X159385000Y-108976160D03*
X159385000Y-113273840D03*
D24*
X169542500Y-75882500D03*
X167642500Y-75882500D03*
X157477500Y-75882500D03*
X155577500Y-75882500D03*
X146365000Y-92710000D03*
X144465000Y-92710000D03*
X167955000Y-87630000D03*
X166055000Y-87630000D03*
D25*
X144145000Y-99375000D03*
X144145000Y-97475000D03*
X168910000Y-94935000D03*
X168910000Y-96835000D03*
D26*
X173280000Y-107315000D03*
X167080000Y-107315000D03*
D25*
X171450000Y-98745000D03*
X171450000Y-100645000D03*
X154305000Y-112075000D03*
X154305000Y-110175000D03*
X154305000Y-104455000D03*
X154305000Y-102555000D03*
D27*
X209760820Y-99695000D03*
X204259180Y-99695000D03*
M02*
