G04 #@! TF.FileFunction,Copper,L1,Top,Signal*
%FSLAX46Y46*%
G04 Gerber Fmt 4.6, Leading zero omitted, Abs format (unit mm)*
G04 Created by KiCad (PCBNEW (2015-01-23 BZR 5386)-product) date Tue 10 Feb 2015 10:46:28 PM PST*
%MOMM*%
G01*
G04 APERTURE LIST*
%ADD10C,0.100000*%
%ADD11C,4.000500*%
%ADD12R,3.599180X1.600200*%
%ADD13R,1.300000X0.700000*%
%ADD14R,3.200000X1.000000*%
%ADD15R,0.700000X1.300000*%
%ADD16R,2.301240X2.499360*%
%ADD17R,1.000000X1.600000*%
%ADD18R,1.250000X1.000000*%
%ADD19R,1.600000X1.000000*%
%ADD20R,2.400300X4.000500*%
%ADD21R,1.000000X1.250000*%
%ADD22C,2.500000*%
%ADD23C,3.000000*%
%ADD24R,0.450000X1.080000*%
%ADD25R,4.260000X3.540000*%
%ADD26C,0.600000*%
%ADD27R,1.000000X0.400000*%
%ADD28R,3.000000X4.200000*%
%ADD29C,0.400000*%
%ADD30R,1.198880X1.198880*%
%ADD31C,0.889000*%
%ADD32C,0.700000*%
%ADD33C,1.225000*%
%ADD34C,0.254000*%
%ADD35C,0.490000*%
%ADD36C,0.612500*%
%ADD37C,2.540000*%
G04 APERTURE END LIST*
D10*
D11*
X142000000Y-72000000D03*
X142000000Y-124000000D03*
X214000000Y-124000000D03*
X214000000Y-72000000D03*
D12*
X209760820Y-100330000D03*
X204259180Y-100330000D03*
D13*
X146685000Y-108900000D03*
X146685000Y-107000000D03*
X146685000Y-114615000D03*
X146685000Y-112715000D03*
X171450000Y-98745000D03*
X171450000Y-100645000D03*
D14*
X175260000Y-107390000D03*
X175260000Y-113590000D03*
D13*
X142240000Y-114615000D03*
X142240000Y-112715000D03*
X144145000Y-99375000D03*
X144145000Y-97475000D03*
D15*
X169860000Y-85725000D03*
X167960000Y-85725000D03*
X146365000Y-92710000D03*
X144465000Y-92710000D03*
X154620000Y-75565000D03*
X152720000Y-75565000D03*
X169860000Y-75565000D03*
X167960000Y-75565000D03*
D16*
X162560000Y-110246160D03*
X162560000Y-114543840D03*
X162560000Y-101843840D03*
X162560000Y-97546160D03*
X182880000Y-89778840D03*
X182880000Y-85481160D03*
X162560000Y-94223840D03*
X162560000Y-89926160D03*
D17*
X208510000Y-109220000D03*
X205510000Y-109220000D03*
X208510000Y-106045000D03*
X205510000Y-106045000D03*
D18*
X171450000Y-94885000D03*
X171450000Y-96885000D03*
D19*
X166370000Y-93575000D03*
X166370000Y-90575000D03*
D20*
X196215000Y-83629500D03*
X196215000Y-91630500D03*
D19*
X166370000Y-98195000D03*
X166370000Y-101195000D03*
X186690000Y-86130000D03*
X186690000Y-89130000D03*
X189230000Y-86130000D03*
X189230000Y-89130000D03*
D18*
X146685000Y-97520000D03*
X146685000Y-95520000D03*
X146685000Y-99965000D03*
X146685000Y-101965000D03*
X142240000Y-108950000D03*
X142240000Y-106950000D03*
D21*
X146415000Y-87630000D03*
X144415000Y-87630000D03*
X146415000Y-90170000D03*
X144415000Y-90170000D03*
D19*
X158750000Y-89130000D03*
X158750000Y-86130000D03*
D21*
X154670000Y-78740000D03*
X152670000Y-78740000D03*
D22*
X209550000Y-115570000D03*
X204470000Y-115570000D03*
X209550000Y-80645000D03*
X204470000Y-80645000D03*
D23*
X180340000Y-109855000D03*
X203835000Y-94615000D03*
X210185000Y-94615000D03*
X160020000Y-75565000D03*
X173990000Y-76200000D03*
X151130000Y-110490000D03*
X151130000Y-102870000D03*
X185293000Y-109855000D03*
X199517000Y-109855000D03*
D22*
X179959000Y-77900000D03*
X179959000Y-74500000D03*
X193421000Y-74500000D03*
X193421000Y-77900000D03*
D24*
X175260000Y-82931000D03*
X176530000Y-82931000D03*
X179070000Y-82931000D03*
X177800000Y-82931000D03*
X179070000Y-88519000D03*
X177800000Y-88519000D03*
X175260000Y-88519000D03*
D25*
X177165000Y-84836000D03*
D24*
X176530000Y-88519000D03*
D26*
X177673000Y-85979000D03*
X176657000Y-85979000D03*
X175641000Y-85979000D03*
X178689000Y-85979000D03*
X178689000Y-84963000D03*
X177673000Y-84963000D03*
X176657000Y-84963000D03*
X175641000Y-84963000D03*
X175641000Y-83947000D03*
X176657000Y-83947000D03*
X177673000Y-83947000D03*
X178689000Y-83947000D03*
D24*
X175260000Y-98806000D03*
X176530000Y-98806000D03*
X179070000Y-98806000D03*
X177800000Y-98806000D03*
X179070000Y-104394000D03*
X177800000Y-104394000D03*
X175260000Y-104394000D03*
D25*
X177165000Y-100711000D03*
D24*
X176530000Y-104394000D03*
D26*
X177673000Y-101854000D03*
X176657000Y-101854000D03*
X175641000Y-101854000D03*
X178689000Y-101854000D03*
X178689000Y-100838000D03*
X177673000Y-100838000D03*
X176657000Y-100838000D03*
X175641000Y-100838000D03*
X175641000Y-99822000D03*
X176657000Y-99822000D03*
X177673000Y-99822000D03*
X178689000Y-99822000D03*
D15*
X171765000Y-114300000D03*
X169865000Y-114300000D03*
X157795000Y-114935000D03*
X155895000Y-114935000D03*
D18*
X168910000Y-108855000D03*
X168910000Y-110855000D03*
D27*
X152040000Y-91055000D03*
X152040000Y-91705000D03*
X152040000Y-92355000D03*
X152040000Y-93005000D03*
X152040000Y-93655000D03*
X152040000Y-94305000D03*
X152040000Y-94955000D03*
X152040000Y-95605000D03*
X152040000Y-96255000D03*
X152040000Y-96905000D03*
X157840000Y-96905000D03*
X157840000Y-96255000D03*
X157840000Y-95605000D03*
X157840000Y-94955000D03*
X157840000Y-94305000D03*
X157840000Y-93655000D03*
X157840000Y-93005000D03*
X157840000Y-92355000D03*
X157840000Y-91705000D03*
X157840000Y-91055000D03*
D28*
X154940000Y-93980000D03*
D29*
X154940000Y-93980000D03*
X154178000Y-93980000D03*
X155702000Y-93980000D03*
X155702000Y-94742000D03*
X155702000Y-95504000D03*
X154940000Y-95504000D03*
X154940000Y-94742000D03*
X154178000Y-94742000D03*
X154178000Y-95504000D03*
X154940000Y-93218000D03*
X154178000Y-93218000D03*
X155702000Y-93218000D03*
X155702000Y-92456000D03*
X154940000Y-92456000D03*
X154178000Y-92456000D03*
D30*
X167049020Y-72000000D03*
X164950980Y-72000000D03*
X212725000Y-87409020D03*
X212725000Y-85310980D03*
D15*
X170950000Y-72000000D03*
X169050000Y-72000000D03*
D13*
X212725000Y-91120000D03*
X212725000Y-89220000D03*
D31*
X158115000Y-99695000D03*
X143510000Y-109855000D03*
X147955000Y-95250000D03*
X147955000Y-108585000D03*
X143510000Y-115570000D03*
D32*
X208280000Y-99060000D03*
X208280000Y-101600000D03*
X208280000Y-104140000D03*
X208280000Y-107950000D03*
X208280000Y-110490000D03*
D31*
X173990000Y-102870000D03*
X160655000Y-94615000D03*
X173990000Y-106045000D03*
X168910000Y-106045000D03*
X161925000Y-99695000D03*
X160655000Y-95885000D03*
X168910000Y-114300000D03*
X173990000Y-118745000D03*
X177800000Y-114935000D03*
X176530000Y-116205000D03*
X172720000Y-117475000D03*
X175260000Y-117475000D03*
D32*
X153670000Y-125730000D03*
X151130000Y-127000000D03*
X148590000Y-127000000D03*
X146050000Y-127000000D03*
X139700000Y-119380000D03*
X139700000Y-116840000D03*
X139700000Y-114300000D03*
X139700000Y-111760000D03*
X139700000Y-109220000D03*
X139700000Y-106680000D03*
X139700000Y-104140000D03*
X139700000Y-101600000D03*
X139700000Y-99060000D03*
X139700000Y-96520000D03*
X139700000Y-93980000D03*
X139700000Y-91440000D03*
X139700000Y-88900000D03*
X139700000Y-86360000D03*
X139700000Y-83820000D03*
X139700000Y-81280000D03*
X139700000Y-78740000D03*
X139700000Y-76200000D03*
X146050000Y-69850000D03*
X148590000Y-69850000D03*
X151130000Y-69850000D03*
X153670000Y-69850000D03*
X153670000Y-72390000D03*
X153670000Y-113030000D03*
X153670000Y-110490000D03*
X153670000Y-102870000D03*
X153670000Y-100330000D03*
X153670000Y-97790000D03*
X153670000Y-90170000D03*
X153670000Y-87630000D03*
X153670000Y-107950000D03*
X156210000Y-124460000D03*
X215900000Y-76200000D03*
X215900000Y-78740000D03*
X215900000Y-81280000D03*
X215900000Y-83820000D03*
X215900000Y-86360000D03*
X215900000Y-88900000D03*
X215900000Y-91440000D03*
X215900000Y-93980000D03*
X215900000Y-96520000D03*
X215900000Y-99060000D03*
X215900000Y-101600000D03*
X215900000Y-104140000D03*
X215900000Y-106680000D03*
X215900000Y-109220000D03*
X215900000Y-111760000D03*
X215900000Y-114300000D03*
X215900000Y-116840000D03*
X215900000Y-119380000D03*
X209550000Y-127000000D03*
X207010000Y-127000000D03*
X204470000Y-127000000D03*
X163830000Y-124460000D03*
X166370000Y-124460000D03*
X168910000Y-124460000D03*
X171450000Y-124460000D03*
X173990000Y-124460000D03*
X176530000Y-124460000D03*
X179070000Y-124460000D03*
X181610000Y-124460000D03*
X184150000Y-124460000D03*
X186690000Y-124460000D03*
X189230000Y-124460000D03*
X191770000Y-124460000D03*
X194310000Y-124460000D03*
X196850000Y-124460000D03*
X199390000Y-124460000D03*
X201930000Y-124460000D03*
X156210000Y-127000000D03*
X158750000Y-127000000D03*
X161290000Y-127000000D03*
X156210000Y-71120000D03*
X158750000Y-69850000D03*
X161290000Y-69850000D03*
X163830000Y-69850000D03*
X166370000Y-69850000D03*
X168910000Y-69850000D03*
X171450000Y-69850000D03*
X173990000Y-69850000D03*
X176530000Y-69850000D03*
X179070000Y-69850000D03*
X181610000Y-69850000D03*
X184150000Y-69850000D03*
X186690000Y-69850000D03*
X189230000Y-69850000D03*
X191770000Y-69850000D03*
X194310000Y-69850000D03*
X196850000Y-69850000D03*
X199390000Y-69850000D03*
X201930000Y-69850000D03*
X156210000Y-86360000D03*
X156210000Y-88900000D03*
X156210000Y-91440000D03*
X156210000Y-96520000D03*
X156210000Y-99060000D03*
X156210000Y-104140000D03*
X156210000Y-106680000D03*
X156210000Y-109220000D03*
X156210000Y-111760000D03*
X182880000Y-91440000D03*
X185420000Y-91440000D03*
X187960000Y-91440000D03*
X190500000Y-91440000D03*
X193040000Y-93980000D03*
X195580000Y-93980000D03*
X198120000Y-93980000D03*
X200660000Y-91440000D03*
X156210000Y-81280000D03*
X209550000Y-69850000D03*
X207010000Y-69850000D03*
X204470000Y-69850000D03*
D33*
X160020000Y-75565000D02*
X167960000Y-75565000D01*
X154620000Y-75565000D02*
X160020000Y-75565000D01*
X154670000Y-78740000D02*
X154670000Y-75615000D01*
D34*
X154670000Y-75615000D02*
X154620000Y-75565000D01*
D35*
X152040000Y-91055000D02*
X152040000Y-86085000D01*
X153670000Y-79740000D02*
X154670000Y-78740000D01*
X153670000Y-84455000D02*
X153670000Y-79740000D01*
X152040000Y-86085000D02*
X153670000Y-84455000D01*
D36*
X162155000Y-85725000D02*
X158750000Y-89130000D01*
X167960000Y-85725000D02*
X162155000Y-85725000D01*
D34*
X158750000Y-90145000D02*
X157840000Y-91055000D01*
X158750000Y-89130000D02*
X158750000Y-90145000D01*
X152040000Y-93005000D02*
X149250000Y-93005000D01*
X149250000Y-93005000D02*
X146415000Y-90170000D01*
X152040000Y-92355000D02*
X151140000Y-92355000D01*
X151140000Y-92355000D02*
X146415000Y-87630000D01*
X142240000Y-108950000D02*
X142605000Y-108950000D01*
X142605000Y-108950000D02*
X143510000Y-109855000D01*
X158115000Y-97155000D02*
X157865000Y-96905000D01*
D36*
X158115000Y-99695000D02*
X158115000Y-97155000D01*
D34*
X157865000Y-96905000D02*
X157840000Y-96905000D01*
D36*
X142240000Y-112715000D02*
X142240000Y-108950000D01*
D34*
X146685000Y-97520000D02*
X146955000Y-97520000D01*
X146955000Y-97520000D02*
X148220000Y-96255000D01*
X148220000Y-96255000D02*
X152040000Y-96255000D01*
D36*
X146685000Y-97520000D02*
X146685000Y-99965000D01*
X144145000Y-99375000D02*
X144145000Y-100330000D01*
X145780000Y-101965000D02*
X146685000Y-101965000D01*
X144145000Y-100330000D02*
X145780000Y-101965000D01*
X146685000Y-108900000D02*
X147640000Y-108900000D01*
D34*
X147685000Y-95520000D02*
X146685000Y-95520000D01*
D36*
X147955000Y-95250000D02*
X147685000Y-95520000D01*
X147640000Y-108900000D02*
X147955000Y-108585000D01*
X146685000Y-112715000D02*
X146685000Y-108900000D01*
D34*
X146685000Y-95520000D02*
X146100000Y-95520000D01*
D36*
X146100000Y-95520000D02*
X144145000Y-97475000D01*
X146685000Y-95520000D02*
X147590000Y-95520000D01*
D34*
X147590000Y-95520000D02*
X147675000Y-95605000D01*
X147675000Y-95605000D02*
X152040000Y-95605000D01*
X157840000Y-93655000D02*
X161991160Y-93655000D01*
X161991160Y-93655000D02*
X162560000Y-94223840D01*
D33*
X162560000Y-97546160D02*
X162560000Y-94223840D01*
X166370000Y-98195000D02*
X163208840Y-98195000D01*
X163208840Y-98195000D02*
X162560000Y-97546160D01*
D36*
X179070000Y-98806000D02*
X177165000Y-100711000D01*
X177800000Y-98806000D02*
X177800000Y-100076000D01*
X177800000Y-100076000D02*
X177165000Y-100711000D01*
X176530000Y-98806000D02*
X176530000Y-100076000D01*
X176530000Y-100076000D02*
X177165000Y-100711000D01*
X175260000Y-98806000D02*
X177165000Y-100711000D01*
X173990000Y-93980000D02*
X177165000Y-93980000D01*
X176530000Y-90170000D02*
X176530000Y-89789000D01*
X176530000Y-89789000D02*
X177800000Y-88519000D01*
X176530000Y-90170000D02*
X176530000Y-88519000D01*
D37*
X177165000Y-90805000D02*
X176530000Y-90170000D01*
X177165000Y-93980000D02*
X177165000Y-90805000D01*
X177165000Y-100711000D02*
X177165000Y-93980000D01*
D36*
X176530000Y-89789000D02*
X175260000Y-88519000D01*
X171450000Y-94885000D02*
X173085000Y-94885000D01*
X173085000Y-94885000D02*
X173990000Y-93980000D01*
X171450000Y-94885000D02*
X167680000Y-94885000D01*
X167680000Y-94885000D02*
X166370000Y-93575000D01*
D34*
X157840000Y-93005000D02*
X159725000Y-93005000D01*
X164870000Y-92075000D02*
X166370000Y-93575000D01*
X160655000Y-92075000D02*
X164870000Y-92075000D01*
X159725000Y-93005000D02*
X160655000Y-92075000D01*
D37*
X180340000Y-109855000D02*
X182245000Y-107950000D01*
X181356000Y-100711000D02*
X178816000Y-100711000D01*
X182245000Y-101600000D02*
X181356000Y-100711000D01*
X182245000Y-107950000D02*
X182245000Y-101600000D01*
X185293000Y-109855000D02*
X180340000Y-109855000D01*
D36*
X142555000Y-114615000D02*
X142240000Y-114615000D01*
X143510000Y-115570000D02*
X142555000Y-114615000D01*
D34*
X162560000Y-89926160D02*
X165721160Y-89926160D01*
X165721160Y-89926160D02*
X166370000Y-90575000D01*
X157840000Y-91705000D02*
X158485000Y-91705000D01*
X160263840Y-89926160D02*
X162560000Y-89926160D01*
X158485000Y-91705000D02*
X160263840Y-89926160D01*
D35*
X171450000Y-96885000D02*
X171450000Y-98745000D01*
X210185000Y-94615000D02*
X210185000Y-93660000D01*
X210185000Y-93660000D02*
X212725000Y-91120000D01*
D33*
X208510000Y-109220000D02*
X208510000Y-106045000D01*
X156210000Y-118745000D02*
X150815000Y-118745000D01*
X150815000Y-118745000D02*
X146685000Y-114615000D01*
X156210000Y-115250000D02*
X156210000Y-118745000D01*
X209550000Y-119380000D02*
X202565000Y-126365000D01*
X202565000Y-126365000D02*
X163830000Y-126365000D01*
X163830000Y-126365000D02*
X156210000Y-118745000D01*
X209550000Y-119380000D02*
X209550000Y-115570000D01*
X156210000Y-115250000D02*
X155895000Y-114935000D01*
X209550000Y-115570000D02*
X209550000Y-110260000D01*
X209550000Y-110260000D02*
X208510000Y-109220000D01*
X208510000Y-109220000D02*
X208510000Y-101580820D01*
X208510000Y-101580820D02*
X210185000Y-99905820D01*
X210185000Y-99905820D02*
X210185000Y-94615000D01*
D36*
X208280000Y-104140000D02*
X208280000Y-101600000D01*
X208280000Y-110490000D02*
X208280000Y-107950000D01*
D33*
X162560000Y-110246160D02*
X162560000Y-101843840D01*
D37*
X209550000Y-79375000D02*
X209550000Y-77470000D01*
X209550000Y-80645000D02*
X209550000Y-79375000D01*
X204675000Y-74500000D02*
X193421000Y-74500000D01*
X206580000Y-74500000D02*
X204675000Y-74500000D01*
X209550000Y-77470000D02*
X207645000Y-75565000D01*
X207645000Y-75565000D02*
X206580000Y-74500000D01*
X193421000Y-74500000D02*
X193421000Y-77900000D01*
D34*
X151130000Y-102870000D02*
X151130000Y-97815000D01*
X151130000Y-97815000D02*
X152040000Y-96905000D01*
X179070000Y-88519000D02*
X179070000Y-87630000D01*
X159105000Y-92355000D02*
X157840000Y-92355000D01*
X160020000Y-91440000D02*
X159105000Y-92355000D01*
X167640000Y-91440000D02*
X160020000Y-91440000D01*
X172085000Y-86995000D02*
X167640000Y-91440000D01*
X178435000Y-86995000D02*
X172085000Y-86995000D01*
X179070000Y-87630000D02*
X178435000Y-86995000D01*
X157840000Y-94305000D02*
X160345000Y-94305000D01*
X177800000Y-102870000D02*
X179070000Y-104140000D01*
X173990000Y-102870000D02*
X177800000Y-102870000D01*
X160345000Y-94305000D02*
X160655000Y-94615000D01*
X179070000Y-104140000D02*
X179070000Y-104394000D01*
X173990000Y-106045000D02*
X175260000Y-107315000D01*
D36*
X175260000Y-107390000D02*
X175260000Y-106934000D01*
X175260000Y-106934000D02*
X177800000Y-104394000D01*
X175260000Y-107390000D02*
X175260000Y-105664000D01*
X175260000Y-105664000D02*
X176530000Y-104394000D01*
X175260000Y-107390000D02*
X175260000Y-104394000D01*
D34*
X175260000Y-107390000D02*
X175260000Y-107315000D01*
X174700000Y-107390000D02*
X175260000Y-107390000D01*
X146365000Y-92710000D02*
X146365000Y-93025000D01*
X146365000Y-93025000D02*
X146995000Y-93655000D01*
X146995000Y-93655000D02*
X152040000Y-93655000D01*
D33*
X157795000Y-114935000D02*
X162168840Y-114935000D01*
X162168840Y-114935000D02*
X162560000Y-114543840D01*
D34*
X168910000Y-108855000D02*
X168910000Y-106045000D01*
X161925000Y-99695000D02*
X158485000Y-96255000D01*
X158485000Y-96255000D02*
X157840000Y-96255000D01*
X169865000Y-114300000D02*
X169865000Y-111810000D01*
X169865000Y-111810000D02*
X168910000Y-110855000D01*
X157840000Y-95605000D02*
X160375000Y-95605000D01*
X160655000Y-95885000D02*
X160375000Y-95605000D01*
X168910000Y-114300000D02*
X169865000Y-114300000D01*
X164950980Y-72000000D02*
X164950980Y-70970980D01*
X164950980Y-70970980D02*
X163830000Y-69850000D01*
D35*
X212725000Y-85310980D02*
X214409020Y-85310980D01*
X214409020Y-85310980D02*
X215900000Y-83820000D01*
X202150980Y-71755000D02*
X202150980Y-70070980D01*
X202150980Y-70070980D02*
X201930000Y-69850000D01*
D34*
X175260000Y-117475000D02*
X173990000Y-118745000D01*
X176530000Y-116205000D02*
X177800000Y-114935000D01*
X175260000Y-117475000D02*
X176530000Y-116205000D01*
X175260000Y-117475000D02*
X172720000Y-117475000D01*
X205510000Y-109220000D02*
X205510000Y-106045000D01*
D36*
X175260000Y-113590000D02*
X172475000Y-113590000D01*
X172475000Y-113590000D02*
X171765000Y-114300000D01*
D34*
X152670000Y-78740000D02*
X151130000Y-78740000D01*
X144415000Y-87630000D02*
X144415000Y-85455000D01*
X152720000Y-77150000D02*
X152720000Y-75565000D01*
X144415000Y-85455000D02*
X147320000Y-82550000D01*
X147320000Y-82550000D02*
X151130000Y-78740000D01*
X151130000Y-78740000D02*
X152720000Y-77150000D01*
X152040000Y-94305000D02*
X146060000Y-94305000D01*
X146060000Y-94305000D02*
X144465000Y-92710000D01*
X144415000Y-90170000D02*
X144415000Y-87630000D01*
X144465000Y-92710000D02*
X144465000Y-90220000D01*
X144465000Y-90220000D02*
X144415000Y-90170000D01*
X142240000Y-106950000D02*
X142240000Y-94935000D01*
X142240000Y-94935000D02*
X144465000Y-92710000D01*
X146685000Y-107000000D02*
X142290000Y-107000000D01*
X142290000Y-107000000D02*
X142240000Y-106950000D01*
X151130000Y-110490000D02*
X151130000Y-108585000D01*
X149545000Y-107000000D02*
X146685000Y-107000000D01*
X151130000Y-108585000D02*
X149545000Y-107000000D01*
X152040000Y-94305000D02*
X154615000Y-94305000D01*
X154615000Y-94305000D02*
X154940000Y-93980000D01*
D33*
X204470000Y-115570000D02*
X204470000Y-110260000D01*
X204470000Y-110260000D02*
X205510000Y-109220000D01*
X205510000Y-109220000D02*
X205510000Y-101580820D01*
X205510000Y-101580820D02*
X203835000Y-99905820D01*
X203835000Y-99905820D02*
X203835000Y-94615000D01*
D37*
X203835000Y-94615000D02*
X203835000Y-88265000D01*
X203835000Y-88265000D02*
X203835000Y-88900000D01*
X203835000Y-88900000D02*
X203835000Y-88265000D01*
D34*
X157840000Y-94955000D02*
X155915000Y-94955000D01*
X155915000Y-94955000D02*
X154940000Y-93980000D01*
D33*
X166370000Y-101195000D02*
X170900000Y-101195000D01*
X170900000Y-101195000D02*
X171450000Y-100645000D01*
X175260000Y-113590000D02*
X175185000Y-113590000D01*
X175185000Y-113590000D02*
X171450000Y-109855000D01*
X171450000Y-109855000D02*
X171450000Y-100645000D01*
X175260000Y-113590000D02*
X175260000Y-113665000D01*
X175260000Y-113665000D02*
X177165000Y-115570000D01*
X177165000Y-115570000D02*
X204470000Y-115570000D01*
X204470000Y-87860000D02*
X204470000Y-87630000D01*
X182880000Y-89778840D02*
X186041160Y-89778840D01*
X186041160Y-89778840D02*
X186690000Y-89130000D01*
D37*
X204470000Y-80645000D02*
X204470000Y-87630000D01*
X200469500Y-91630500D02*
X196215000Y-91630500D01*
X204470000Y-87630000D02*
X203835000Y-88265000D01*
X203835000Y-88265000D02*
X200469500Y-91630500D01*
D34*
X205105000Y-114935000D02*
X205105000Y-116205000D01*
D37*
X196405500Y-91440000D02*
X196215000Y-91630500D01*
X183528840Y-89130000D02*
X182880000Y-89778840D01*
X189230000Y-89130000D02*
X183528840Y-89130000D01*
X191730500Y-91630500D02*
X189230000Y-89130000D01*
X196215000Y-91630500D02*
X191730500Y-91630500D01*
D33*
X196405500Y-91440000D02*
X196215000Y-91630500D01*
D34*
X157140000Y-94955000D02*
X157840000Y-94955000D01*
X156845000Y-100965000D02*
X156210000Y-100330000D01*
X156210000Y-100330000D02*
X156210000Y-95885000D01*
D36*
X168275000Y-115570000D02*
X165100000Y-112395000D01*
X165100000Y-112395000D02*
X160655000Y-112395000D01*
X157480000Y-109220000D02*
X156845000Y-108585000D01*
X160655000Y-112395000D02*
X157480000Y-109220000D01*
X177165000Y-115570000D02*
X168275000Y-115570000D01*
D34*
X156845000Y-108585000D02*
X156845000Y-100965000D01*
D36*
X153670000Y-125730000D02*
X151130000Y-125730000D01*
X151130000Y-125730000D02*
X151130000Y-127000000D01*
X148590000Y-127000000D02*
X146050000Y-127000000D01*
X139700000Y-119380000D02*
X139700000Y-116840000D01*
X139700000Y-114300000D02*
X139700000Y-111760000D01*
X139700000Y-109220000D02*
X139700000Y-106680000D01*
X139700000Y-104140000D02*
X139700000Y-101600000D01*
X139700000Y-99060000D02*
X139700000Y-96520000D01*
X139700000Y-93980000D02*
X139700000Y-91440000D01*
X139700000Y-88900000D02*
X139700000Y-86360000D01*
X139700000Y-83820000D02*
X139700000Y-81280000D01*
X139700000Y-78740000D02*
X139700000Y-76200000D01*
X146050000Y-69850000D02*
X148590000Y-69850000D01*
X151130000Y-69850000D02*
X153670000Y-69850000D01*
X153670000Y-110490000D02*
X153670000Y-113030000D01*
X153670000Y-100330000D02*
X153670000Y-97790000D01*
X153670000Y-90170000D02*
X153670000Y-87630000D01*
X153670000Y-110490000D02*
X153670000Y-107950000D01*
X153670000Y-107950000D02*
X153670000Y-102870000D01*
X215900000Y-76200000D02*
X215900000Y-78740000D01*
X215900000Y-81280000D02*
X215900000Y-83820000D01*
X215900000Y-86360000D02*
X215900000Y-88900000D01*
X215900000Y-91440000D02*
X215900000Y-93980000D01*
X215900000Y-96520000D02*
X215900000Y-99060000D01*
X215900000Y-101600000D02*
X215900000Y-104140000D01*
X215900000Y-106680000D02*
X215900000Y-109220000D01*
X215900000Y-111760000D02*
X215900000Y-114300000D01*
X215900000Y-116840000D02*
X215900000Y-119380000D01*
X209550000Y-127000000D02*
X207010000Y-127000000D01*
X166370000Y-124460000D02*
X163830000Y-124460000D01*
X171450000Y-124460000D02*
X168910000Y-124460000D01*
X176530000Y-124460000D02*
X173990000Y-124460000D01*
X181610000Y-124460000D02*
X179070000Y-124460000D01*
X186690000Y-124460000D02*
X184150000Y-124460000D01*
X191770000Y-124460000D02*
X189230000Y-124460000D01*
X196850000Y-124460000D02*
X194310000Y-124460000D01*
X201930000Y-124460000D02*
X199390000Y-124460000D01*
X161290000Y-127000000D02*
X158750000Y-127000000D01*
X156210000Y-124460000D02*
X156210000Y-127000000D01*
X156210000Y-71120000D02*
X157480000Y-69850000D01*
X157480000Y-69850000D02*
X158750000Y-69850000D01*
X161290000Y-69850000D02*
X163830000Y-69850000D01*
X166370000Y-69850000D02*
X168910000Y-69850000D01*
X171450000Y-69850000D02*
X173990000Y-69850000D01*
X176530000Y-69850000D02*
X179070000Y-69850000D01*
X181610000Y-69850000D02*
X184150000Y-69850000D01*
X186690000Y-69850000D02*
X189230000Y-69850000D01*
X191770000Y-69850000D02*
X194310000Y-69850000D01*
X196850000Y-69850000D02*
X199390000Y-69850000D01*
X157480000Y-109220000D02*
X157480000Y-110490000D01*
X156210000Y-88900000D02*
X156210000Y-86360000D01*
X156210000Y-96520000D02*
X156210000Y-91440000D01*
X156210000Y-104140000D02*
X156210000Y-99060000D01*
X156210000Y-109220000D02*
X156210000Y-106680000D01*
X157480000Y-110490000D02*
X156210000Y-111760000D01*
X182880000Y-91440000D02*
X185420000Y-91440000D01*
X187960000Y-91440000D02*
X190500000Y-91440000D01*
X193040000Y-93980000D02*
X195580000Y-93980000D01*
X198120000Y-93980000D02*
X200660000Y-91440000D01*
X207010000Y-69850000D02*
X209550000Y-69850000D01*
X204470000Y-69850000D02*
X201930000Y-69850000D01*
D34*
X169050000Y-72000000D02*
X167049020Y-72000000D01*
D35*
X212725000Y-89220000D02*
X212725000Y-87409020D01*
D34*
X169860000Y-75565000D02*
X169860000Y-75140000D01*
X169860000Y-75140000D02*
X170950000Y-74050000D01*
X170950000Y-74050000D02*
X170950000Y-72000000D01*
D36*
X169860000Y-75565000D02*
X173355000Y-75565000D01*
X173355000Y-75565000D02*
X173990000Y-76200000D01*
D37*
X182880000Y-85481160D02*
X182880000Y-80821000D01*
X182880000Y-80821000D02*
X179959000Y-77900000D01*
D36*
X177165000Y-84836000D02*
X179070000Y-82931000D01*
X177165000Y-84836000D02*
X177165000Y-83566000D01*
X177165000Y-83566000D02*
X177800000Y-82931000D01*
X177165000Y-84836000D02*
X175260000Y-82931000D01*
X177165000Y-83566000D02*
X176530000Y-82931000D01*
D37*
X177165000Y-84836000D02*
X177165000Y-80694000D01*
X177165000Y-80694000D02*
X179959000Y-77900000D01*
D36*
X173990000Y-76200000D02*
X178259000Y-76200000D01*
X178259000Y-76200000D02*
X179959000Y-74500000D01*
X173355000Y-75565000D02*
X173990000Y-76200000D01*
D37*
X179959000Y-74500000D02*
X179959000Y-77900000D01*
X191730500Y-83629500D02*
X196215000Y-83629500D01*
D36*
X189230000Y-86130000D02*
X191730500Y-83629500D01*
X183528840Y-86130000D02*
X189230000Y-86130000D01*
X183528840Y-86130000D02*
X182880000Y-85481160D01*
X186690000Y-86130000D02*
X183528840Y-86130000D01*
D34*
X172654000Y-82931000D02*
X169860000Y-85725000D01*
X175260000Y-82931000D02*
X172654000Y-82931000D01*
G36*
X211963000Y-116097492D02*
X211818128Y-116825814D01*
X211412652Y-117432652D01*
X210805814Y-117838128D01*
X210077492Y-117983000D01*
X209657508Y-117983000D01*
X208929186Y-117838128D01*
X208322348Y-117432652D01*
X207916872Y-116825814D01*
X207772000Y-116097492D01*
X207772000Y-94087508D01*
X207916872Y-93359186D01*
X208322348Y-92752348D01*
X208929186Y-92346872D01*
X209657508Y-92202000D01*
X210077492Y-92202000D01*
X210805814Y-92346872D01*
X211412652Y-92752348D01*
X211818128Y-93359186D01*
X211963000Y-94087508D01*
X211963000Y-116097492D01*
X211963000Y-116097492D01*
G37*
X211963000Y-116097492D02*
X211818128Y-116825814D01*
X211412652Y-117432652D01*
X210805814Y-117838128D01*
X210077492Y-117983000D01*
X209657508Y-117983000D01*
X208929186Y-117838128D01*
X208322348Y-117432652D01*
X207916872Y-116825814D01*
X207772000Y-116097492D01*
X207772000Y-94087508D01*
X207916872Y-93359186D01*
X208322348Y-92752348D01*
X208929186Y-92346872D01*
X209657508Y-92202000D01*
X210077492Y-92202000D01*
X210805814Y-92346872D01*
X211412652Y-92752348D01*
X211818128Y-93359186D01*
X211963000Y-94087508D01*
X211963000Y-116097492D01*
G36*
X197993000Y-84982492D02*
X197848128Y-85710814D01*
X197442652Y-86317652D01*
X196835814Y-86723128D01*
X196107492Y-86868000D01*
X179385630Y-86868000D01*
X178973815Y-86456185D01*
X178726605Y-86291004D01*
X178435000Y-86233000D01*
X172085000Y-86233000D01*
X171793395Y-86291004D01*
X171546184Y-86456185D01*
X171134369Y-86868000D01*
X170922508Y-86868000D01*
X170194186Y-86723128D01*
X169587348Y-86317652D01*
X169181872Y-85710814D01*
X169037000Y-84982492D01*
X169037000Y-76155451D01*
X169112540Y-76042398D01*
X169207500Y-75565000D01*
X169112540Y-75087602D01*
X169037000Y-74974548D01*
X169037000Y-74402508D01*
X169181872Y-73674186D01*
X169438611Y-73289948D01*
X169642123Y-73250463D01*
X169854927Y-73110673D01*
X169997377Y-72899640D01*
X170021984Y-72776933D01*
X170194186Y-72661872D01*
X170922508Y-72517000D01*
X183407492Y-72517000D01*
X184135814Y-72661872D01*
X184742652Y-73067348D01*
X185148128Y-73674186D01*
X185293000Y-74402508D01*
X185293000Y-79292508D01*
X185452610Y-80094920D01*
X185914224Y-80785776D01*
X186605080Y-81247390D01*
X187407492Y-81407000D01*
X196107492Y-81407000D01*
X196835814Y-81551872D01*
X197442652Y-81957348D01*
X197848128Y-82564186D01*
X197993000Y-83292508D01*
X197993000Y-84982492D01*
X197993000Y-84982492D01*
G37*
X197993000Y-84982492D02*
X197848128Y-85710814D01*
X197442652Y-86317652D01*
X196835814Y-86723128D01*
X196107492Y-86868000D01*
X179385630Y-86868000D01*
X178973815Y-86456185D01*
X178726605Y-86291004D01*
X178435000Y-86233000D01*
X172085000Y-86233000D01*
X171793395Y-86291004D01*
X171546184Y-86456185D01*
X171134369Y-86868000D01*
X170922508Y-86868000D01*
X170194186Y-86723128D01*
X169587348Y-86317652D01*
X169181872Y-85710814D01*
X169037000Y-84982492D01*
X169037000Y-76155451D01*
X169112540Y-76042398D01*
X169207500Y-75565000D01*
X169112540Y-75087602D01*
X169037000Y-74974548D01*
X169037000Y-74402508D01*
X169181872Y-73674186D01*
X169438611Y-73289948D01*
X169642123Y-73250463D01*
X169854927Y-73110673D01*
X169997377Y-72899640D01*
X170021984Y-72776933D01*
X170194186Y-72661872D01*
X170922508Y-72517000D01*
X183407492Y-72517000D01*
X184135814Y-72661872D01*
X184742652Y-73067348D01*
X185148128Y-73674186D01*
X185293000Y-74402508D01*
X185293000Y-79292508D01*
X185452610Y-80094920D01*
X185914224Y-80785776D01*
X186605080Y-81247390D01*
X187407492Y-81407000D01*
X196107492Y-81407000D01*
X196835814Y-81551872D01*
X197442652Y-81957348D01*
X197848128Y-82564186D01*
X197993000Y-83292508D01*
X197993000Y-84982492D01*
G36*
X187198000Y-111017492D02*
X187053128Y-111745814D01*
X186647652Y-112352652D01*
X186040814Y-112758128D01*
X185312492Y-112903000D01*
X181717508Y-112903000D01*
X180989186Y-112758128D01*
X180382348Y-112352652D01*
X179976872Y-111745814D01*
X179832000Y-111017492D01*
X179832000Y-105273085D01*
X179892377Y-105183640D01*
X179942440Y-104934000D01*
X179942440Y-103854000D01*
X179895463Y-103611877D01*
X179755673Y-103399073D01*
X179544640Y-103256623D01*
X179295000Y-103206560D01*
X179214190Y-103206560D01*
X178338815Y-102331185D01*
X178091605Y-102166004D01*
X177800000Y-102108000D01*
X174754641Y-102108000D01*
X174602286Y-101955378D01*
X174205668Y-101790687D01*
X173776216Y-101790313D01*
X173379311Y-101954311D01*
X173294598Y-102038876D01*
X172991872Y-101585814D01*
X172847000Y-100857492D01*
X172847000Y-89642508D01*
X172991872Y-88914186D01*
X173397348Y-88307348D01*
X174004186Y-87901872D01*
X174732508Y-87757000D01*
X178119369Y-87757000D01*
X178221582Y-87859212D01*
X178197560Y-87979000D01*
X178197560Y-89059000D01*
X178244537Y-89301123D01*
X178384327Y-89513927D01*
X178595360Y-89656377D01*
X178845000Y-89706440D01*
X179295000Y-89706440D01*
X179537123Y-89659463D01*
X179749927Y-89519673D01*
X179892377Y-89308640D01*
X179942440Y-89059000D01*
X179942440Y-88726080D01*
X180068128Y-88914186D01*
X180213000Y-89642508D01*
X180213000Y-93262508D01*
X180372610Y-94064920D01*
X180834224Y-94755776D01*
X181525080Y-95217390D01*
X182327492Y-95377000D01*
X185312492Y-95377000D01*
X186040814Y-95521872D01*
X186647652Y-95927348D01*
X187053128Y-96534186D01*
X187198000Y-97262508D01*
X187198000Y-111017492D01*
X187198000Y-111017492D01*
G37*
X187198000Y-111017492D02*
X187053128Y-111745814D01*
X186647652Y-112352652D01*
X186040814Y-112758128D01*
X185312492Y-112903000D01*
X181717508Y-112903000D01*
X180989186Y-112758128D01*
X180382348Y-112352652D01*
X179976872Y-111745814D01*
X179832000Y-111017492D01*
X179832000Y-105273085D01*
X179892377Y-105183640D01*
X179942440Y-104934000D01*
X179942440Y-103854000D01*
X179895463Y-103611877D01*
X179755673Y-103399073D01*
X179544640Y-103256623D01*
X179295000Y-103206560D01*
X179214190Y-103206560D01*
X178338815Y-102331185D01*
X178091605Y-102166004D01*
X177800000Y-102108000D01*
X174754641Y-102108000D01*
X174602286Y-101955378D01*
X174205668Y-101790687D01*
X173776216Y-101790313D01*
X173379311Y-101954311D01*
X173294598Y-102038876D01*
X172991872Y-101585814D01*
X172847000Y-100857492D01*
X172847000Y-89642508D01*
X172991872Y-88914186D01*
X173397348Y-88307348D01*
X174004186Y-87901872D01*
X174732508Y-87757000D01*
X178119369Y-87757000D01*
X178221582Y-87859212D01*
X178197560Y-87979000D01*
X178197560Y-89059000D01*
X178244537Y-89301123D01*
X178384327Y-89513927D01*
X178595360Y-89656377D01*
X178845000Y-89706440D01*
X179295000Y-89706440D01*
X179537123Y-89659463D01*
X179749927Y-89519673D01*
X179892377Y-89308640D01*
X179942440Y-89059000D01*
X179942440Y-88726080D01*
X180068128Y-88914186D01*
X180213000Y-89642508D01*
X180213000Y-93262508D01*
X180372610Y-94064920D01*
X180834224Y-94755776D01*
X181525080Y-95217390D01*
X182327492Y-95377000D01*
X185312492Y-95377000D01*
X186040814Y-95521872D01*
X186647652Y-95927348D01*
X187053128Y-96534186D01*
X187198000Y-97262508D01*
X187198000Y-111017492D01*
G36*
X211328000Y-79997492D02*
X211190360Y-80689459D01*
X210805476Y-81265476D01*
X210229459Y-81650360D01*
X209550000Y-81785512D01*
X208870541Y-81650360D01*
X208294524Y-81265476D01*
X207909640Y-80689459D01*
X207772000Y-79997492D01*
X207772000Y-78285919D01*
X207612390Y-77483507D01*
X207157861Y-76803256D01*
X207041744Y-76687139D01*
X206361493Y-76232610D01*
X205559081Y-76073000D01*
X196519992Y-76073000D01*
X195875437Y-76201210D01*
X195318406Y-76573406D01*
X194946210Y-77130437D01*
X194820440Y-77762724D01*
X194704528Y-78345457D01*
X194388470Y-78818470D01*
X193915457Y-79134528D01*
X193357500Y-79245512D01*
X192799543Y-79134528D01*
X192326530Y-78818470D01*
X192010472Y-78345457D01*
X191897000Y-77774992D01*
X191897000Y-75037508D01*
X192041872Y-74309186D01*
X192447348Y-73702348D01*
X193054186Y-73296872D01*
X193782508Y-73152000D01*
X206169065Y-73152000D01*
X206897387Y-73296872D01*
X207514828Y-73709433D01*
X210770567Y-76965172D01*
X211183128Y-77582613D01*
X211328000Y-78310935D01*
X211328000Y-79997492D01*
X211328000Y-79997492D01*
G37*
X211328000Y-79997492D02*
X211190360Y-80689459D01*
X210805476Y-81265476D01*
X210229459Y-81650360D01*
X209550000Y-81785512D01*
X208870541Y-81650360D01*
X208294524Y-81265476D01*
X207909640Y-80689459D01*
X207772000Y-79997492D01*
X207772000Y-78285919D01*
X207612390Y-77483507D01*
X207157861Y-76803256D01*
X207041744Y-76687139D01*
X206361493Y-76232610D01*
X205559081Y-76073000D01*
X196519992Y-76073000D01*
X195875437Y-76201210D01*
X195318406Y-76573406D01*
X194946210Y-77130437D01*
X194820440Y-77762724D01*
X194704528Y-78345457D01*
X194388470Y-78818470D01*
X193915457Y-79134528D01*
X193357500Y-79245512D01*
X192799543Y-79134528D01*
X192326530Y-78818470D01*
X192010472Y-78345457D01*
X191897000Y-77774992D01*
X191897000Y-75037508D01*
X192041872Y-74309186D01*
X192447348Y-73702348D01*
X193054186Y-73296872D01*
X193782508Y-73152000D01*
X206169065Y-73152000D01*
X206897387Y-73296872D01*
X207514828Y-73709433D01*
X210770567Y-76965172D01*
X211183128Y-77582613D01*
X211328000Y-78310935D01*
X211328000Y-79997492D01*
G36*
X163049479Y-127315000D02*
X156787157Y-127315000D01*
X156252348Y-126957652D01*
X155846872Y-126350814D01*
X155702000Y-125622492D01*
X155702000Y-120001231D01*
X162947881Y-127247112D01*
X162947884Y-127247116D01*
X163049479Y-127315000D01*
X163049479Y-127315000D01*
G37*
X163049479Y-127315000D02*
X156787157Y-127315000D01*
X156252348Y-126957652D01*
X155846872Y-126350814D01*
X155702000Y-125622492D01*
X155702000Y-120001231D01*
X162947881Y-127247112D01*
X162947884Y-127247116D01*
X163049479Y-127315000D01*
G36*
X217315000Y-126677265D02*
X217127652Y-126957652D01*
X216592842Y-127315000D01*
X203345520Y-127315000D01*
X203447116Y-127247116D01*
X210432116Y-120262116D01*
X210702540Y-119857398D01*
X210702540Y-119857397D01*
X210718294Y-119778191D01*
X210797500Y-119380000D01*
X210797501Y-119380000D01*
X210797500Y-119379994D01*
X210797500Y-118860066D01*
X211539920Y-118712390D01*
X212230776Y-118250776D01*
X212692390Y-117559920D01*
X212852000Y-116757508D01*
X212852000Y-93427492D01*
X212692390Y-92625080D01*
X212601081Y-92488426D01*
X212972068Y-92117440D01*
X213375000Y-92117440D01*
X213617123Y-92070463D01*
X213829927Y-91930673D01*
X213972377Y-91719640D01*
X214022440Y-91470000D01*
X214022440Y-90770000D01*
X213975463Y-90527877D01*
X213835673Y-90315073D01*
X213624640Y-90172623D01*
X213615469Y-90170783D01*
X213617123Y-90170463D01*
X213829927Y-90030673D01*
X213972377Y-89819640D01*
X214022440Y-89570000D01*
X214022440Y-88870000D01*
X213975463Y-88627877D01*
X213835673Y-88415073D01*
X213822060Y-88405884D01*
X213921817Y-88258100D01*
X213971880Y-88008460D01*
X213971880Y-86809580D01*
X213924903Y-86567457D01*
X213785113Y-86354653D01*
X213574080Y-86212203D01*
X213324440Y-86162140D01*
X212217000Y-86162140D01*
X212217000Y-80562508D01*
X212217000Y-77650919D01*
X212057390Y-76848507D01*
X211602861Y-76168256D01*
X208311744Y-72877139D01*
X207631493Y-72422610D01*
X206829081Y-72263000D01*
X193122492Y-72263000D01*
X192320080Y-72422610D01*
X191629224Y-72884224D01*
X191167610Y-73575080D01*
X191008000Y-74377492D01*
X191008000Y-78022508D01*
X191167610Y-78824920D01*
X191629224Y-79515776D01*
X192320080Y-79977390D01*
X193122492Y-80137000D01*
X194005008Y-80137000D01*
X194649563Y-80008790D01*
X195206594Y-79636594D01*
X195578790Y-79079563D01*
X195704560Y-78447276D01*
X195820472Y-77864543D01*
X196136530Y-77391530D01*
X196609543Y-77075472D01*
X197180008Y-76962000D01*
X204899065Y-76962000D01*
X205627387Y-77106872D01*
X206244828Y-77519433D01*
X206325567Y-77600172D01*
X206738128Y-78217613D01*
X206883000Y-78945935D01*
X206883000Y-80562508D01*
X207042610Y-81364920D01*
X207504224Y-82055776D01*
X208195080Y-82517390D01*
X208997492Y-82677000D01*
X210102508Y-82677000D01*
X210904920Y-82517390D01*
X211595776Y-82055776D01*
X212057390Y-81364920D01*
X212217000Y-80562508D01*
X212217000Y-86162140D01*
X212125560Y-86162140D01*
X211883437Y-86209117D01*
X211670633Y-86348907D01*
X211528183Y-86559940D01*
X211478120Y-86809580D01*
X211478120Y-88008460D01*
X211525097Y-88250583D01*
X211626571Y-88405058D01*
X211620073Y-88409327D01*
X211477623Y-88620360D01*
X211427560Y-88870000D01*
X211427560Y-89570000D01*
X211474537Y-89812123D01*
X211614327Y-90024927D01*
X211825360Y-90167377D01*
X211834530Y-90169216D01*
X211832877Y-90169537D01*
X211620073Y-90309327D01*
X211477623Y-90520360D01*
X211427560Y-90770000D01*
X211427560Y-91172932D01*
X211196243Y-91404248D01*
X210737508Y-91313000D01*
X208997492Y-91313000D01*
X208195080Y-91472610D01*
X207504224Y-91934224D01*
X207042610Y-92625080D01*
X206883000Y-93427492D01*
X206883000Y-116757508D01*
X207042610Y-117559920D01*
X207504224Y-118250776D01*
X208195080Y-118712390D01*
X208302500Y-118733757D01*
X208302500Y-118863268D01*
X202048268Y-125117500D01*
X201652370Y-125117500D01*
X201652370Y-109432185D01*
X201328020Y-108647200D01*
X200727959Y-108046091D01*
X199943541Y-107720372D01*
X199094185Y-107719630D01*
X198309200Y-108043980D01*
X197708091Y-108644041D01*
X197382372Y-109428459D01*
X197381630Y-110277815D01*
X197705980Y-111062800D01*
X198306041Y-111663909D01*
X199090459Y-111989628D01*
X199939815Y-111990370D01*
X200724800Y-111666020D01*
X201325909Y-111065959D01*
X201651628Y-110281541D01*
X201652370Y-109432185D01*
X201652370Y-125117500D01*
X170862440Y-125117500D01*
X170862440Y-114950000D01*
X170862440Y-113650000D01*
X170815463Y-113407877D01*
X170675673Y-113195073D01*
X170627000Y-113162218D01*
X170627000Y-111810000D01*
X170568996Y-111518396D01*
X170568996Y-111518395D01*
X170403815Y-111271185D01*
X170182440Y-111049810D01*
X170182440Y-110355000D01*
X170135463Y-110112877D01*
X169995673Y-109900073D01*
X169929471Y-109855386D01*
X169989927Y-109815673D01*
X170132377Y-109604640D01*
X170182440Y-109355000D01*
X170182440Y-108355000D01*
X170135463Y-108112877D01*
X169995673Y-107900073D01*
X169784640Y-107757623D01*
X169672000Y-107735034D01*
X169672000Y-106809641D01*
X169824622Y-106657286D01*
X169989313Y-106260668D01*
X169989687Y-105831216D01*
X169825689Y-105434311D01*
X169522286Y-105130378D01*
X169125668Y-104965687D01*
X168696216Y-104965313D01*
X168299311Y-105129311D01*
X167995378Y-105432714D01*
X167830687Y-105829332D01*
X167830313Y-106258784D01*
X167994311Y-106655689D01*
X168148000Y-106809646D01*
X168148000Y-107734140D01*
X168042877Y-107754537D01*
X167830073Y-107894327D01*
X167687623Y-108105360D01*
X167637560Y-108355000D01*
X167637560Y-109355000D01*
X167684537Y-109597123D01*
X167824327Y-109809927D01*
X167890528Y-109854613D01*
X167830073Y-109894327D01*
X167687623Y-110105360D01*
X167637560Y-110355000D01*
X167637560Y-111355000D01*
X167684537Y-111597123D01*
X167824327Y-111809927D01*
X168035360Y-111952377D01*
X168285000Y-112002440D01*
X168979810Y-112002440D01*
X169103000Y-112125630D01*
X169103000Y-113161128D01*
X169060073Y-113189327D01*
X169038955Y-113220611D01*
X168696216Y-113220313D01*
X168299311Y-113384311D01*
X167995378Y-113687714D01*
X167830687Y-114084332D01*
X167830313Y-114513784D01*
X167994311Y-114910689D01*
X168297714Y-115214622D01*
X168694332Y-115379313D01*
X169037697Y-115379612D01*
X169054327Y-115404927D01*
X169265360Y-115547377D01*
X169515000Y-115597440D01*
X170215000Y-115597440D01*
X170457123Y-115550463D01*
X170669927Y-115410673D01*
X170812377Y-115199640D01*
X170862440Y-114950000D01*
X170862440Y-125117500D01*
X164346731Y-125117500D01*
X157457500Y-118228268D01*
X157457500Y-116232440D01*
X158145000Y-116232440D01*
X158387123Y-116185463D01*
X158391633Y-116182500D01*
X160905386Y-116182500D01*
X160948707Y-116248447D01*
X161159740Y-116390897D01*
X161409380Y-116440960D01*
X163710620Y-116440960D01*
X163952743Y-116393983D01*
X164165547Y-116254193D01*
X164307997Y-116043160D01*
X164358060Y-115793520D01*
X164358060Y-113294160D01*
X164311083Y-113052037D01*
X164171293Y-112839233D01*
X163960260Y-112696783D01*
X163710620Y-112646720D01*
X161409380Y-112646720D01*
X161167257Y-112693697D01*
X160954453Y-112833487D01*
X160812003Y-113044520D01*
X160761940Y-113294160D01*
X160761940Y-113687500D01*
X158394026Y-113687500D01*
X158145000Y-113637560D01*
X157445000Y-113637560D01*
X157202877Y-113684537D01*
X156990073Y-113824327D01*
X156847623Y-114035360D01*
X156845783Y-114044530D01*
X156845463Y-114042877D01*
X156705673Y-113830073D01*
X156494640Y-113687623D01*
X156245000Y-113637560D01*
X155702000Y-113637560D01*
X155702000Y-79711492D01*
X155767377Y-79614640D01*
X155817440Y-79365000D01*
X155817440Y-79225030D01*
X155822540Y-79217398D01*
X155917500Y-78740000D01*
X155917500Y-76812500D01*
X158248610Y-76812500D01*
X158809041Y-77373909D01*
X159593459Y-77699628D01*
X160442815Y-77700370D01*
X161227800Y-77376020D01*
X161792304Y-76812500D01*
X167360973Y-76812500D01*
X167610000Y-76862440D01*
X168148000Y-76862440D01*
X168148000Y-84427560D01*
X167610000Y-84427560D01*
X167367877Y-84474537D01*
X167155073Y-84614327D01*
X167040710Y-84783750D01*
X162155000Y-84783750D01*
X161794799Y-84855398D01*
X161489436Y-85059436D01*
X158566312Y-87982560D01*
X157950000Y-87982560D01*
X157707877Y-88029537D01*
X157495073Y-88169327D01*
X157352623Y-88380360D01*
X157302560Y-88630000D01*
X157302560Y-89630000D01*
X157349537Y-89872123D01*
X157489327Y-90084927D01*
X157634469Y-90182900D01*
X157609809Y-90207560D01*
X157340000Y-90207560D01*
X157097877Y-90254537D01*
X156885073Y-90394327D01*
X156742623Y-90605360D01*
X156692560Y-90855000D01*
X156692560Y-91255000D01*
X156717213Y-91382065D01*
X156692560Y-91505000D01*
X156692560Y-91905000D01*
X156717213Y-92032065D01*
X156692560Y-92155000D01*
X156692560Y-92555000D01*
X156717213Y-92682065D01*
X156692560Y-92805000D01*
X156692560Y-93205000D01*
X156717213Y-93332065D01*
X156692560Y-93455000D01*
X156692560Y-93855000D01*
X156717213Y-93982065D01*
X156692560Y-94105000D01*
X156692560Y-94505000D01*
X156739537Y-94747123D01*
X156876967Y-94956335D01*
X156742623Y-95155360D01*
X156692560Y-95405000D01*
X156692560Y-95805000D01*
X156717213Y-95932065D01*
X156692560Y-96055000D01*
X156692560Y-96455000D01*
X156717213Y-96582065D01*
X156692560Y-96705000D01*
X156692560Y-97105000D01*
X156739537Y-97347123D01*
X156879327Y-97559927D01*
X157090360Y-97702377D01*
X157173750Y-97719100D01*
X157173750Y-99146841D01*
X157035687Y-99479332D01*
X157035313Y-99908784D01*
X157199311Y-100305689D01*
X157502714Y-100609622D01*
X157899332Y-100774313D01*
X158328784Y-100774687D01*
X158725689Y-100610689D01*
X159029622Y-100307286D01*
X159194313Y-99910668D01*
X159194687Y-99481216D01*
X159056250Y-99146173D01*
X159056250Y-97903880D01*
X160845500Y-99693131D01*
X160845313Y-99908784D01*
X160944345Y-100148460D01*
X160812003Y-100344520D01*
X160761940Y-100594160D01*
X160761940Y-103093520D01*
X160808917Y-103335643D01*
X160948707Y-103548447D01*
X161159740Y-103690897D01*
X161312500Y-103721531D01*
X161312500Y-108367836D01*
X161167257Y-108396017D01*
X160954453Y-108535807D01*
X160812003Y-108746840D01*
X160761940Y-108996480D01*
X160761940Y-111495840D01*
X160808917Y-111737963D01*
X160948707Y-111950767D01*
X161159740Y-112093217D01*
X161409380Y-112143280D01*
X163710620Y-112143280D01*
X163952743Y-112096303D01*
X164165547Y-111956513D01*
X164307997Y-111745480D01*
X164358060Y-111495840D01*
X164358060Y-108996480D01*
X164311083Y-108754357D01*
X164171293Y-108541553D01*
X163960260Y-108399103D01*
X163807500Y-108368468D01*
X163807500Y-103722163D01*
X163952743Y-103693983D01*
X164165547Y-103554193D01*
X164307997Y-103343160D01*
X164358060Y-103093520D01*
X164358060Y-100594160D01*
X164311083Y-100352037D01*
X164171293Y-100139233D01*
X163960260Y-99996783D01*
X163710620Y-99946720D01*
X162989342Y-99946720D01*
X163004313Y-99910668D01*
X163004687Y-99481216D01*
X162989012Y-99443280D01*
X163710620Y-99443280D01*
X163714640Y-99442500D01*
X166370000Y-99442500D01*
X166847398Y-99347540D01*
X166855030Y-99342440D01*
X167170000Y-99342440D01*
X167412123Y-99295463D01*
X167624927Y-99155673D01*
X167767377Y-98944640D01*
X167817440Y-98695000D01*
X167817440Y-97695000D01*
X167770463Y-97452877D01*
X167630673Y-97240073D01*
X167419640Y-97097623D01*
X167170000Y-97047560D01*
X166855030Y-97047560D01*
X166847398Y-97042460D01*
X166370000Y-96947500D01*
X164358060Y-96947500D01*
X164358060Y-96296480D01*
X164311083Y-96054357D01*
X164199300Y-95884188D01*
X164307997Y-95723160D01*
X164358060Y-95473520D01*
X164358060Y-92974160D01*
X164331448Y-92837000D01*
X164554369Y-92837000D01*
X164922560Y-93205190D01*
X164922560Y-94075000D01*
X164969537Y-94317123D01*
X165109327Y-94529927D01*
X165320360Y-94672377D01*
X165570000Y-94722440D01*
X166186312Y-94722440D01*
X167014436Y-95550564D01*
X167319799Y-95754602D01*
X167680000Y-95826250D01*
X170355342Y-95826250D01*
X170364327Y-95839927D01*
X170430528Y-95884613D01*
X170370073Y-95924327D01*
X170227623Y-96135360D01*
X170177560Y-96385000D01*
X170177560Y-97385000D01*
X170224537Y-97627123D01*
X170364327Y-97839927D01*
X170425706Y-97881359D01*
X170345073Y-97934327D01*
X170202623Y-98145360D01*
X170152560Y-98395000D01*
X170152560Y-99095000D01*
X170199537Y-99337123D01*
X170339327Y-99549927D01*
X170550360Y-99692377D01*
X170800000Y-99742440D01*
X171958000Y-99742440D01*
X171958000Y-106597508D01*
X172117610Y-107399920D01*
X172579224Y-108090776D01*
X173270080Y-108552390D01*
X174072492Y-108712000D01*
X177057492Y-108712000D01*
X177785814Y-108856872D01*
X178300042Y-109200468D01*
X178205372Y-109428459D01*
X178204630Y-110277815D01*
X178528980Y-111062800D01*
X178943000Y-111477543D01*
X178943000Y-111677508D01*
X179102610Y-112479920D01*
X179564224Y-113170776D01*
X180255080Y-113632390D01*
X181057492Y-113792000D01*
X185972508Y-113792000D01*
X186774920Y-113632390D01*
X187465776Y-113170776D01*
X187927390Y-112479920D01*
X188087000Y-111677508D01*
X188087000Y-96602492D01*
X187927390Y-95800080D01*
X187465776Y-95109224D01*
X186774920Y-94647610D01*
X185972508Y-94488000D01*
X182987508Y-94488000D01*
X182259186Y-94343128D01*
X181652348Y-93937652D01*
X181246872Y-93330814D01*
X181102000Y-92602492D01*
X181102000Y-89642508D01*
X181246872Y-88914186D01*
X181652348Y-88307348D01*
X182259186Y-87901872D01*
X182987508Y-87757000D01*
X196767508Y-87757000D01*
X197569920Y-87597390D01*
X198260776Y-87135776D01*
X198722390Y-86444920D01*
X198882000Y-85642508D01*
X198882000Y-82632492D01*
X198722390Y-81830080D01*
X198260776Y-81139224D01*
X197569920Y-80677610D01*
X196767508Y-80518000D01*
X188067508Y-80518000D01*
X187339186Y-80373128D01*
X186732348Y-79967652D01*
X186326872Y-79360814D01*
X186182000Y-78632492D01*
X186182000Y-73742492D01*
X186022390Y-72940080D01*
X185560776Y-72249224D01*
X184869920Y-71787610D01*
X184067508Y-71628000D01*
X171947440Y-71628000D01*
X171947440Y-71350000D01*
X171900463Y-71107877D01*
X171760673Y-70895073D01*
X171549640Y-70752623D01*
X171300000Y-70702560D01*
X170600000Y-70702560D01*
X170357877Y-70749537D01*
X170145073Y-70889327D01*
X170002623Y-71100360D01*
X170000783Y-71109530D01*
X170000463Y-71107877D01*
X169860673Y-70895073D01*
X169649640Y-70752623D01*
X169400000Y-70702560D01*
X168700000Y-70702560D01*
X168457877Y-70749537D01*
X168245073Y-70889327D01*
X168157433Y-71019161D01*
X168109133Y-70945633D01*
X167898100Y-70803183D01*
X167648460Y-70753120D01*
X166449580Y-70753120D01*
X166207457Y-70800097D01*
X165994653Y-70939887D01*
X165852203Y-71150920D01*
X165802140Y-71400560D01*
X165802140Y-72599440D01*
X165849117Y-72841563D01*
X165988907Y-73054367D01*
X166199940Y-73196817D01*
X166449580Y-73246880D01*
X167648460Y-73246880D01*
X167890583Y-73199903D01*
X168103387Y-73060113D01*
X168157362Y-72980151D01*
X168239327Y-73104927D01*
X168270618Y-73126049D01*
X168148000Y-73742492D01*
X168148000Y-74267560D01*
X167610000Y-74267560D01*
X167367877Y-74314537D01*
X167363366Y-74317500D01*
X161791389Y-74317500D01*
X161230959Y-73756091D01*
X160446541Y-73430372D01*
X159597185Y-73429630D01*
X158812200Y-73753980D01*
X158247695Y-74317500D01*
X155702000Y-74317500D01*
X155702000Y-69957508D01*
X155846872Y-69229186D01*
X156210485Y-68685000D01*
X217169514Y-68685000D01*
X217315000Y-68902734D01*
X217315000Y-126677265D01*
X217315000Y-126677265D01*
G37*
X217315000Y-126677265D02*
X217127652Y-126957652D01*
X216592842Y-127315000D01*
X203345520Y-127315000D01*
X203447116Y-127247116D01*
X210432116Y-120262116D01*
X210702540Y-119857398D01*
X210702540Y-119857397D01*
X210718294Y-119778191D01*
X210797500Y-119380000D01*
X210797501Y-119380000D01*
X210797500Y-119379994D01*
X210797500Y-118860066D01*
X211539920Y-118712390D01*
X212230776Y-118250776D01*
X212692390Y-117559920D01*
X212852000Y-116757508D01*
X212852000Y-93427492D01*
X212692390Y-92625080D01*
X212601081Y-92488426D01*
X212972068Y-92117440D01*
X213375000Y-92117440D01*
X213617123Y-92070463D01*
X213829927Y-91930673D01*
X213972377Y-91719640D01*
X214022440Y-91470000D01*
X214022440Y-90770000D01*
X213975463Y-90527877D01*
X213835673Y-90315073D01*
X213624640Y-90172623D01*
X213615469Y-90170783D01*
X213617123Y-90170463D01*
X213829927Y-90030673D01*
X213972377Y-89819640D01*
X214022440Y-89570000D01*
X214022440Y-88870000D01*
X213975463Y-88627877D01*
X213835673Y-88415073D01*
X213822060Y-88405884D01*
X213921817Y-88258100D01*
X213971880Y-88008460D01*
X213971880Y-86809580D01*
X213924903Y-86567457D01*
X213785113Y-86354653D01*
X213574080Y-86212203D01*
X213324440Y-86162140D01*
X212217000Y-86162140D01*
X212217000Y-80562508D01*
X212217000Y-77650919D01*
X212057390Y-76848507D01*
X211602861Y-76168256D01*
X208311744Y-72877139D01*
X207631493Y-72422610D01*
X206829081Y-72263000D01*
X193122492Y-72263000D01*
X192320080Y-72422610D01*
X191629224Y-72884224D01*
X191167610Y-73575080D01*
X191008000Y-74377492D01*
X191008000Y-78022508D01*
X191167610Y-78824920D01*
X191629224Y-79515776D01*
X192320080Y-79977390D01*
X193122492Y-80137000D01*
X194005008Y-80137000D01*
X194649563Y-80008790D01*
X195206594Y-79636594D01*
X195578790Y-79079563D01*
X195704560Y-78447276D01*
X195820472Y-77864543D01*
X196136530Y-77391530D01*
X196609543Y-77075472D01*
X197180008Y-76962000D01*
X204899065Y-76962000D01*
X205627387Y-77106872D01*
X206244828Y-77519433D01*
X206325567Y-77600172D01*
X206738128Y-78217613D01*
X206883000Y-78945935D01*
X206883000Y-80562508D01*
X207042610Y-81364920D01*
X207504224Y-82055776D01*
X208195080Y-82517390D01*
X208997492Y-82677000D01*
X210102508Y-82677000D01*
X210904920Y-82517390D01*
X211595776Y-82055776D01*
X212057390Y-81364920D01*
X212217000Y-80562508D01*
X212217000Y-86162140D01*
X212125560Y-86162140D01*
X211883437Y-86209117D01*
X211670633Y-86348907D01*
X211528183Y-86559940D01*
X211478120Y-86809580D01*
X211478120Y-88008460D01*
X211525097Y-88250583D01*
X211626571Y-88405058D01*
X211620073Y-88409327D01*
X211477623Y-88620360D01*
X211427560Y-88870000D01*
X211427560Y-89570000D01*
X211474537Y-89812123D01*
X211614327Y-90024927D01*
X211825360Y-90167377D01*
X211834530Y-90169216D01*
X211832877Y-90169537D01*
X211620073Y-90309327D01*
X211477623Y-90520360D01*
X211427560Y-90770000D01*
X211427560Y-91172932D01*
X211196243Y-91404248D01*
X210737508Y-91313000D01*
X208997492Y-91313000D01*
X208195080Y-91472610D01*
X207504224Y-91934224D01*
X207042610Y-92625080D01*
X206883000Y-93427492D01*
X206883000Y-116757508D01*
X207042610Y-117559920D01*
X207504224Y-118250776D01*
X208195080Y-118712390D01*
X208302500Y-118733757D01*
X208302500Y-118863268D01*
X202048268Y-125117500D01*
X201652370Y-125117500D01*
X201652370Y-109432185D01*
X201328020Y-108647200D01*
X200727959Y-108046091D01*
X199943541Y-107720372D01*
X199094185Y-107719630D01*
X198309200Y-108043980D01*
X197708091Y-108644041D01*
X197382372Y-109428459D01*
X197381630Y-110277815D01*
X197705980Y-111062800D01*
X198306041Y-111663909D01*
X199090459Y-111989628D01*
X199939815Y-111990370D01*
X200724800Y-111666020D01*
X201325909Y-111065959D01*
X201651628Y-110281541D01*
X201652370Y-109432185D01*
X201652370Y-125117500D01*
X170862440Y-125117500D01*
X170862440Y-114950000D01*
X170862440Y-113650000D01*
X170815463Y-113407877D01*
X170675673Y-113195073D01*
X170627000Y-113162218D01*
X170627000Y-111810000D01*
X170568996Y-111518396D01*
X170568996Y-111518395D01*
X170403815Y-111271185D01*
X170182440Y-111049810D01*
X170182440Y-110355000D01*
X170135463Y-110112877D01*
X169995673Y-109900073D01*
X169929471Y-109855386D01*
X169989927Y-109815673D01*
X170132377Y-109604640D01*
X170182440Y-109355000D01*
X170182440Y-108355000D01*
X170135463Y-108112877D01*
X169995673Y-107900073D01*
X169784640Y-107757623D01*
X169672000Y-107735034D01*
X169672000Y-106809641D01*
X169824622Y-106657286D01*
X169989313Y-106260668D01*
X169989687Y-105831216D01*
X169825689Y-105434311D01*
X169522286Y-105130378D01*
X169125668Y-104965687D01*
X168696216Y-104965313D01*
X168299311Y-105129311D01*
X167995378Y-105432714D01*
X167830687Y-105829332D01*
X167830313Y-106258784D01*
X167994311Y-106655689D01*
X168148000Y-106809646D01*
X168148000Y-107734140D01*
X168042877Y-107754537D01*
X167830073Y-107894327D01*
X167687623Y-108105360D01*
X167637560Y-108355000D01*
X167637560Y-109355000D01*
X167684537Y-109597123D01*
X167824327Y-109809927D01*
X167890528Y-109854613D01*
X167830073Y-109894327D01*
X167687623Y-110105360D01*
X167637560Y-110355000D01*
X167637560Y-111355000D01*
X167684537Y-111597123D01*
X167824327Y-111809927D01*
X168035360Y-111952377D01*
X168285000Y-112002440D01*
X168979810Y-112002440D01*
X169103000Y-112125630D01*
X169103000Y-113161128D01*
X169060073Y-113189327D01*
X169038955Y-113220611D01*
X168696216Y-113220313D01*
X168299311Y-113384311D01*
X167995378Y-113687714D01*
X167830687Y-114084332D01*
X167830313Y-114513784D01*
X167994311Y-114910689D01*
X168297714Y-115214622D01*
X168694332Y-115379313D01*
X169037697Y-115379612D01*
X169054327Y-115404927D01*
X169265360Y-115547377D01*
X169515000Y-115597440D01*
X170215000Y-115597440D01*
X170457123Y-115550463D01*
X170669927Y-115410673D01*
X170812377Y-115199640D01*
X170862440Y-114950000D01*
X170862440Y-125117500D01*
X164346731Y-125117500D01*
X157457500Y-118228268D01*
X157457500Y-116232440D01*
X158145000Y-116232440D01*
X158387123Y-116185463D01*
X158391633Y-116182500D01*
X160905386Y-116182500D01*
X160948707Y-116248447D01*
X161159740Y-116390897D01*
X161409380Y-116440960D01*
X163710620Y-116440960D01*
X163952743Y-116393983D01*
X164165547Y-116254193D01*
X164307997Y-116043160D01*
X164358060Y-115793520D01*
X164358060Y-113294160D01*
X164311083Y-113052037D01*
X164171293Y-112839233D01*
X163960260Y-112696783D01*
X163710620Y-112646720D01*
X161409380Y-112646720D01*
X161167257Y-112693697D01*
X160954453Y-112833487D01*
X160812003Y-113044520D01*
X160761940Y-113294160D01*
X160761940Y-113687500D01*
X158394026Y-113687500D01*
X158145000Y-113637560D01*
X157445000Y-113637560D01*
X157202877Y-113684537D01*
X156990073Y-113824327D01*
X156847623Y-114035360D01*
X156845783Y-114044530D01*
X156845463Y-114042877D01*
X156705673Y-113830073D01*
X156494640Y-113687623D01*
X156245000Y-113637560D01*
X155702000Y-113637560D01*
X155702000Y-79711492D01*
X155767377Y-79614640D01*
X155817440Y-79365000D01*
X155817440Y-79225030D01*
X155822540Y-79217398D01*
X155917500Y-78740000D01*
X155917500Y-76812500D01*
X158248610Y-76812500D01*
X158809041Y-77373909D01*
X159593459Y-77699628D01*
X160442815Y-77700370D01*
X161227800Y-77376020D01*
X161792304Y-76812500D01*
X167360973Y-76812500D01*
X167610000Y-76862440D01*
X168148000Y-76862440D01*
X168148000Y-84427560D01*
X167610000Y-84427560D01*
X167367877Y-84474537D01*
X167155073Y-84614327D01*
X167040710Y-84783750D01*
X162155000Y-84783750D01*
X161794799Y-84855398D01*
X161489436Y-85059436D01*
X158566312Y-87982560D01*
X157950000Y-87982560D01*
X157707877Y-88029537D01*
X157495073Y-88169327D01*
X157352623Y-88380360D01*
X157302560Y-88630000D01*
X157302560Y-89630000D01*
X157349537Y-89872123D01*
X157489327Y-90084927D01*
X157634469Y-90182900D01*
X157609809Y-90207560D01*
X157340000Y-90207560D01*
X157097877Y-90254537D01*
X156885073Y-90394327D01*
X156742623Y-90605360D01*
X156692560Y-90855000D01*
X156692560Y-91255000D01*
X156717213Y-91382065D01*
X156692560Y-91505000D01*
X156692560Y-91905000D01*
X156717213Y-92032065D01*
X156692560Y-92155000D01*
X156692560Y-92555000D01*
X156717213Y-92682065D01*
X156692560Y-92805000D01*
X156692560Y-93205000D01*
X156717213Y-93332065D01*
X156692560Y-93455000D01*
X156692560Y-93855000D01*
X156717213Y-93982065D01*
X156692560Y-94105000D01*
X156692560Y-94505000D01*
X156739537Y-94747123D01*
X156876967Y-94956335D01*
X156742623Y-95155360D01*
X156692560Y-95405000D01*
X156692560Y-95805000D01*
X156717213Y-95932065D01*
X156692560Y-96055000D01*
X156692560Y-96455000D01*
X156717213Y-96582065D01*
X156692560Y-96705000D01*
X156692560Y-97105000D01*
X156739537Y-97347123D01*
X156879327Y-97559927D01*
X157090360Y-97702377D01*
X157173750Y-97719100D01*
X157173750Y-99146841D01*
X157035687Y-99479332D01*
X157035313Y-99908784D01*
X157199311Y-100305689D01*
X157502714Y-100609622D01*
X157899332Y-100774313D01*
X158328784Y-100774687D01*
X158725689Y-100610689D01*
X159029622Y-100307286D01*
X159194313Y-99910668D01*
X159194687Y-99481216D01*
X159056250Y-99146173D01*
X159056250Y-97903880D01*
X160845500Y-99693131D01*
X160845313Y-99908784D01*
X160944345Y-100148460D01*
X160812003Y-100344520D01*
X160761940Y-100594160D01*
X160761940Y-103093520D01*
X160808917Y-103335643D01*
X160948707Y-103548447D01*
X161159740Y-103690897D01*
X161312500Y-103721531D01*
X161312500Y-108367836D01*
X161167257Y-108396017D01*
X160954453Y-108535807D01*
X160812003Y-108746840D01*
X160761940Y-108996480D01*
X160761940Y-111495840D01*
X160808917Y-111737963D01*
X160948707Y-111950767D01*
X161159740Y-112093217D01*
X161409380Y-112143280D01*
X163710620Y-112143280D01*
X163952743Y-112096303D01*
X164165547Y-111956513D01*
X164307997Y-111745480D01*
X164358060Y-111495840D01*
X164358060Y-108996480D01*
X164311083Y-108754357D01*
X164171293Y-108541553D01*
X163960260Y-108399103D01*
X163807500Y-108368468D01*
X163807500Y-103722163D01*
X163952743Y-103693983D01*
X164165547Y-103554193D01*
X164307997Y-103343160D01*
X164358060Y-103093520D01*
X164358060Y-100594160D01*
X164311083Y-100352037D01*
X164171293Y-100139233D01*
X163960260Y-99996783D01*
X163710620Y-99946720D01*
X162989342Y-99946720D01*
X163004313Y-99910668D01*
X163004687Y-99481216D01*
X162989012Y-99443280D01*
X163710620Y-99443280D01*
X163714640Y-99442500D01*
X166370000Y-99442500D01*
X166847398Y-99347540D01*
X166855030Y-99342440D01*
X167170000Y-99342440D01*
X167412123Y-99295463D01*
X167624927Y-99155673D01*
X167767377Y-98944640D01*
X167817440Y-98695000D01*
X167817440Y-97695000D01*
X167770463Y-97452877D01*
X167630673Y-97240073D01*
X167419640Y-97097623D01*
X167170000Y-97047560D01*
X166855030Y-97047560D01*
X166847398Y-97042460D01*
X166370000Y-96947500D01*
X164358060Y-96947500D01*
X164358060Y-96296480D01*
X164311083Y-96054357D01*
X164199300Y-95884188D01*
X164307997Y-95723160D01*
X164358060Y-95473520D01*
X164358060Y-92974160D01*
X164331448Y-92837000D01*
X164554369Y-92837000D01*
X164922560Y-93205190D01*
X164922560Y-94075000D01*
X164969537Y-94317123D01*
X165109327Y-94529927D01*
X165320360Y-94672377D01*
X165570000Y-94722440D01*
X166186312Y-94722440D01*
X167014436Y-95550564D01*
X167319799Y-95754602D01*
X167680000Y-95826250D01*
X170355342Y-95826250D01*
X170364327Y-95839927D01*
X170430528Y-95884613D01*
X170370073Y-95924327D01*
X170227623Y-96135360D01*
X170177560Y-96385000D01*
X170177560Y-97385000D01*
X170224537Y-97627123D01*
X170364327Y-97839927D01*
X170425706Y-97881359D01*
X170345073Y-97934327D01*
X170202623Y-98145360D01*
X170152560Y-98395000D01*
X170152560Y-99095000D01*
X170199537Y-99337123D01*
X170339327Y-99549927D01*
X170550360Y-99692377D01*
X170800000Y-99742440D01*
X171958000Y-99742440D01*
X171958000Y-106597508D01*
X172117610Y-107399920D01*
X172579224Y-108090776D01*
X173270080Y-108552390D01*
X174072492Y-108712000D01*
X177057492Y-108712000D01*
X177785814Y-108856872D01*
X178300042Y-109200468D01*
X178205372Y-109428459D01*
X178204630Y-110277815D01*
X178528980Y-111062800D01*
X178943000Y-111477543D01*
X178943000Y-111677508D01*
X179102610Y-112479920D01*
X179564224Y-113170776D01*
X180255080Y-113632390D01*
X181057492Y-113792000D01*
X185972508Y-113792000D01*
X186774920Y-113632390D01*
X187465776Y-113170776D01*
X187927390Y-112479920D01*
X188087000Y-111677508D01*
X188087000Y-96602492D01*
X187927390Y-95800080D01*
X187465776Y-95109224D01*
X186774920Y-94647610D01*
X185972508Y-94488000D01*
X182987508Y-94488000D01*
X182259186Y-94343128D01*
X181652348Y-93937652D01*
X181246872Y-93330814D01*
X181102000Y-92602492D01*
X181102000Y-89642508D01*
X181246872Y-88914186D01*
X181652348Y-88307348D01*
X182259186Y-87901872D01*
X182987508Y-87757000D01*
X196767508Y-87757000D01*
X197569920Y-87597390D01*
X198260776Y-87135776D01*
X198722390Y-86444920D01*
X198882000Y-85642508D01*
X198882000Y-82632492D01*
X198722390Y-81830080D01*
X198260776Y-81139224D01*
X197569920Y-80677610D01*
X196767508Y-80518000D01*
X188067508Y-80518000D01*
X187339186Y-80373128D01*
X186732348Y-79967652D01*
X186326872Y-79360814D01*
X186182000Y-78632492D01*
X186182000Y-73742492D01*
X186022390Y-72940080D01*
X185560776Y-72249224D01*
X184869920Y-71787610D01*
X184067508Y-71628000D01*
X171947440Y-71628000D01*
X171947440Y-71350000D01*
X171900463Y-71107877D01*
X171760673Y-70895073D01*
X171549640Y-70752623D01*
X171300000Y-70702560D01*
X170600000Y-70702560D01*
X170357877Y-70749537D01*
X170145073Y-70889327D01*
X170002623Y-71100360D01*
X170000783Y-71109530D01*
X170000463Y-71107877D01*
X169860673Y-70895073D01*
X169649640Y-70752623D01*
X169400000Y-70702560D01*
X168700000Y-70702560D01*
X168457877Y-70749537D01*
X168245073Y-70889327D01*
X168157433Y-71019161D01*
X168109133Y-70945633D01*
X167898100Y-70803183D01*
X167648460Y-70753120D01*
X166449580Y-70753120D01*
X166207457Y-70800097D01*
X165994653Y-70939887D01*
X165852203Y-71150920D01*
X165802140Y-71400560D01*
X165802140Y-72599440D01*
X165849117Y-72841563D01*
X165988907Y-73054367D01*
X166199940Y-73196817D01*
X166449580Y-73246880D01*
X167648460Y-73246880D01*
X167890583Y-73199903D01*
X168103387Y-73060113D01*
X168157362Y-72980151D01*
X168239327Y-73104927D01*
X168270618Y-73126049D01*
X168148000Y-73742492D01*
X168148000Y-74267560D01*
X167610000Y-74267560D01*
X167367877Y-74314537D01*
X167363366Y-74317500D01*
X161791389Y-74317500D01*
X161230959Y-73756091D01*
X160446541Y-73430372D01*
X159597185Y-73429630D01*
X158812200Y-73753980D01*
X158247695Y-74317500D01*
X155702000Y-74317500D01*
X155702000Y-69957508D01*
X155846872Y-69229186D01*
X156210485Y-68685000D01*
X217169514Y-68685000D01*
X217315000Y-68902734D01*
X217315000Y-126677265D01*
G36*
X178943000Y-105937492D02*
X178798128Y-106665814D01*
X178392652Y-107272652D01*
X177785814Y-107678128D01*
X177057492Y-107823000D01*
X174732508Y-107823000D01*
X174004186Y-107678128D01*
X173397348Y-107272652D01*
X172991872Y-106665814D01*
X172847000Y-105937492D01*
X172847000Y-105517508D01*
X172991872Y-104789186D01*
X173397348Y-104182348D01*
X173756926Y-103942085D01*
X173774332Y-103949313D01*
X174203784Y-103949687D01*
X174600689Y-103785689D01*
X174754646Y-103632000D01*
X177057492Y-103632000D01*
X177590364Y-103737994D01*
X178197560Y-104345190D01*
X178197560Y-104934000D01*
X178244537Y-105176123D01*
X178384327Y-105388927D01*
X178595360Y-105531377D01*
X178845000Y-105581440D01*
X178943000Y-105581440D01*
X178943000Y-105937492D01*
X178943000Y-105937492D01*
G37*
X178943000Y-105937492D02*
X178798128Y-106665814D01*
X178392652Y-107272652D01*
X177785814Y-107678128D01*
X177057492Y-107823000D01*
X174732508Y-107823000D01*
X174004186Y-107678128D01*
X173397348Y-107272652D01*
X172991872Y-106665814D01*
X172847000Y-105937492D01*
X172847000Y-105517508D01*
X172991872Y-104789186D01*
X173397348Y-104182348D01*
X173756926Y-103942085D01*
X173774332Y-103949313D01*
X174203784Y-103949687D01*
X174600689Y-103785689D01*
X174754646Y-103632000D01*
X177057492Y-103632000D01*
X177590364Y-103737994D01*
X178197560Y-104345190D01*
X178197560Y-104934000D01*
X178244537Y-105176123D01*
X178384327Y-105388927D01*
X178595360Y-105531377D01*
X178845000Y-105581440D01*
X178943000Y-105581440D01*
X178943000Y-105937492D01*
G36*
X154178000Y-126257492D02*
X154033128Y-126985814D01*
X153813173Y-127315000D01*
X144589687Y-127315000D01*
X144589687Y-115356216D01*
X144425689Y-114959311D01*
X144122286Y-114655378D01*
X143787482Y-114516354D01*
X143537440Y-114266312D01*
X143537440Y-114265000D01*
X143490463Y-114022877D01*
X143350673Y-113810073D01*
X143139640Y-113667623D01*
X143130469Y-113665783D01*
X143132123Y-113665463D01*
X143344927Y-113525673D01*
X143487377Y-113314640D01*
X143537440Y-113065000D01*
X143537440Y-112365000D01*
X143490463Y-112122877D01*
X143350673Y-111910073D01*
X143181250Y-111795710D01*
X143181250Y-110887357D01*
X143294332Y-110934313D01*
X143723784Y-110934687D01*
X144120689Y-110770689D01*
X144424622Y-110467286D01*
X144589313Y-110070668D01*
X144589687Y-109641216D01*
X144425689Y-109244311D01*
X144122286Y-108940378D01*
X143725668Y-108775687D01*
X143512440Y-108775501D01*
X143512440Y-108450000D01*
X143465463Y-108207877D01*
X143325673Y-107995073D01*
X143114640Y-107852623D01*
X142865000Y-107802560D01*
X141615000Y-107802560D01*
X141372877Y-107849537D01*
X141160073Y-107989327D01*
X141017623Y-108200360D01*
X140967560Y-108450000D01*
X140967560Y-109450000D01*
X141014537Y-109692123D01*
X141154327Y-109904927D01*
X141298750Y-110002414D01*
X141298750Y-111796808D01*
X141135073Y-111904327D01*
X140992623Y-112115360D01*
X140942560Y-112365000D01*
X140942560Y-113065000D01*
X140989537Y-113307123D01*
X141129327Y-113519927D01*
X141340360Y-113662377D01*
X141349530Y-113664216D01*
X141347877Y-113664537D01*
X141135073Y-113804327D01*
X140992623Y-114015360D01*
X140942560Y-114265000D01*
X140942560Y-114965000D01*
X140989537Y-115207123D01*
X141129327Y-115419927D01*
X141340360Y-115562377D01*
X141590000Y-115612440D01*
X142221312Y-115612440D01*
X142456828Y-115847956D01*
X142594311Y-116180689D01*
X142897714Y-116484622D01*
X143294332Y-116649313D01*
X143723784Y-116649687D01*
X144120689Y-116485689D01*
X144424622Y-116182286D01*
X144589313Y-115785668D01*
X144589687Y-115356216D01*
X144589687Y-127315000D01*
X138685000Y-127315000D01*
X138685000Y-68685000D01*
X153669514Y-68685000D01*
X154033128Y-69229186D01*
X154178000Y-69957508D01*
X154178000Y-74285409D01*
X154027877Y-74314537D01*
X153815073Y-74454327D01*
X153672623Y-74665360D01*
X153639615Y-74829953D01*
X153467460Y-75087602D01*
X153372500Y-75565000D01*
X153422500Y-75816367D01*
X153422500Y-78740000D01*
X153422996Y-78742495D01*
X153047746Y-79117746D01*
X152856986Y-79403238D01*
X152790000Y-79740000D01*
X152790000Y-84090492D01*
X151417746Y-85462746D01*
X151226986Y-85748238D01*
X151160000Y-86085000D01*
X151160000Y-90345107D01*
X151085073Y-90394327D01*
X150942623Y-90605360D01*
X150892560Y-90855000D01*
X150892560Y-91029930D01*
X147562440Y-87699810D01*
X147562440Y-87005000D01*
X147515463Y-86762877D01*
X147375673Y-86550073D01*
X147164640Y-86407623D01*
X146915000Y-86357560D01*
X145915000Y-86357560D01*
X145672877Y-86404537D01*
X145460073Y-86544327D01*
X145317623Y-86755360D01*
X145267560Y-87005000D01*
X145267560Y-88255000D01*
X145314537Y-88497123D01*
X145454327Y-88709927D01*
X145665360Y-88852377D01*
X145902631Y-88899959D01*
X145672877Y-88944537D01*
X145460073Y-89084327D01*
X145317623Y-89295360D01*
X145267560Y-89545000D01*
X145267560Y-90795000D01*
X145314537Y-91037123D01*
X145454327Y-91249927D01*
X145665360Y-91392377D01*
X145888444Y-91437114D01*
X145772877Y-91459537D01*
X145560073Y-91599327D01*
X145417623Y-91810360D01*
X145367560Y-92060000D01*
X145367560Y-93360000D01*
X145414537Y-93602123D01*
X145554327Y-93814927D01*
X145765360Y-93957377D01*
X146015000Y-94007440D01*
X146269809Y-94007440D01*
X146456185Y-94193816D01*
X146703395Y-94358996D01*
X146703396Y-94358997D01*
X146771582Y-94372560D01*
X146060000Y-94372560D01*
X145817877Y-94419537D01*
X145605073Y-94559327D01*
X145462623Y-94770360D01*
X145447515Y-94845695D01*
X145434436Y-94854435D01*
X143811311Y-96477560D01*
X143495000Y-96477560D01*
X143252877Y-96524537D01*
X143040073Y-96664327D01*
X142897623Y-96875360D01*
X142847560Y-97125000D01*
X142847560Y-97825000D01*
X142894537Y-98067123D01*
X143034327Y-98279927D01*
X143245360Y-98422377D01*
X143254530Y-98424216D01*
X143252877Y-98424537D01*
X143040073Y-98564327D01*
X142897623Y-98775360D01*
X142847560Y-99025000D01*
X142847560Y-99725000D01*
X142894537Y-99967123D01*
X143034327Y-100179927D01*
X143203750Y-100294289D01*
X143203750Y-100330000D01*
X143275398Y-100690201D01*
X143479436Y-100995564D01*
X145114436Y-102630564D01*
X145419799Y-102834602D01*
X145561836Y-102862854D01*
X145599327Y-102919927D01*
X145810360Y-103062377D01*
X146060000Y-103112440D01*
X147310000Y-103112440D01*
X147552123Y-103065463D01*
X147764927Y-102925673D01*
X147907377Y-102714640D01*
X147957440Y-102465000D01*
X147957440Y-101465000D01*
X147910463Y-101222877D01*
X147770673Y-101010073D01*
X147704471Y-100965386D01*
X147764927Y-100925673D01*
X147907377Y-100714640D01*
X147957440Y-100465000D01*
X147957440Y-99465000D01*
X147910463Y-99222877D01*
X147770673Y-99010073D01*
X147626250Y-98912585D01*
X147626250Y-98571769D01*
X147764927Y-98480673D01*
X147907377Y-98269640D01*
X147957440Y-98020000D01*
X147957440Y-97595190D01*
X148535630Y-97017000D01*
X150850369Y-97017000D01*
X150591185Y-97276185D01*
X150426004Y-97523395D01*
X150368000Y-97815000D01*
X150368000Y-100874778D01*
X149922200Y-101058980D01*
X149321091Y-101659041D01*
X148995372Y-102443459D01*
X148994630Y-103292815D01*
X149318980Y-104077800D01*
X149919041Y-104678909D01*
X150703459Y-105004628D01*
X151552815Y-105005370D01*
X152337800Y-104681020D01*
X152938909Y-104080959D01*
X153264628Y-103296541D01*
X153265370Y-102447185D01*
X152941020Y-101662200D01*
X152340959Y-101061091D01*
X151892000Y-100874666D01*
X151892000Y-98130630D01*
X152270190Y-97752440D01*
X152540000Y-97752440D01*
X152782123Y-97705463D01*
X152994927Y-97565673D01*
X153137377Y-97354640D01*
X153187440Y-97105000D01*
X153187440Y-96705000D01*
X153162786Y-96577934D01*
X153187440Y-96455000D01*
X153187440Y-96055000D01*
X153162786Y-95927934D01*
X153187440Y-95805000D01*
X153187440Y-95405000D01*
X153162786Y-95277934D01*
X153187440Y-95155000D01*
X153187440Y-94755000D01*
X153140463Y-94512877D01*
X153003032Y-94303664D01*
X153137377Y-94104640D01*
X153187440Y-93855000D01*
X153187440Y-93455000D01*
X153162786Y-93327934D01*
X153187440Y-93205000D01*
X153187440Y-92805000D01*
X153162786Y-92677934D01*
X153187440Y-92555000D01*
X153187440Y-92155000D01*
X153162786Y-92027934D01*
X153187440Y-91905000D01*
X153187440Y-91505000D01*
X153162786Y-91377934D01*
X153187440Y-91255000D01*
X153187440Y-90855000D01*
X153140463Y-90612877D01*
X153000673Y-90400073D01*
X152920000Y-90345617D01*
X152920000Y-86449508D01*
X154178000Y-85191508D01*
X154178000Y-117497500D01*
X151331732Y-117497500D01*
X147954324Y-114120092D01*
X147935463Y-114022877D01*
X147795673Y-113810073D01*
X147584640Y-113667623D01*
X147575469Y-113665783D01*
X147577123Y-113665463D01*
X147789927Y-113525673D01*
X147932377Y-113314640D01*
X147982440Y-113065000D01*
X147982440Y-112365000D01*
X147935463Y-112122877D01*
X147795673Y-111910073D01*
X147626250Y-111795710D01*
X147626250Y-109841250D01*
X147640000Y-109841250D01*
X148000201Y-109769602D01*
X148157231Y-109664676D01*
X148168784Y-109664687D01*
X148565689Y-109500689D01*
X148869622Y-109197286D01*
X149034313Y-108800668D01*
X149034687Y-108371216D01*
X148870689Y-107974311D01*
X148567286Y-107670378D01*
X148170668Y-107505687D01*
X147741216Y-107505313D01*
X147344311Y-107669311D01*
X147110654Y-107902560D01*
X146035000Y-107902560D01*
X145792877Y-107949537D01*
X145580073Y-108089327D01*
X145437623Y-108300360D01*
X145387560Y-108550000D01*
X145387560Y-109250000D01*
X145434537Y-109492123D01*
X145574327Y-109704927D01*
X145743750Y-109819289D01*
X145743750Y-111796808D01*
X145580073Y-111904327D01*
X145437623Y-112115360D01*
X145387560Y-112365000D01*
X145387560Y-113065000D01*
X145434537Y-113307123D01*
X145574327Y-113519927D01*
X145785360Y-113662377D01*
X145794530Y-113664216D01*
X145792877Y-113664537D01*
X145580073Y-113804327D01*
X145437623Y-114015360D01*
X145387560Y-114265000D01*
X145387560Y-114965000D01*
X145434537Y-115207123D01*
X145574327Y-115419927D01*
X145785360Y-115562377D01*
X145888911Y-115583143D01*
X149932884Y-119627116D01*
X150337602Y-119897540D01*
X150337603Y-119897540D01*
X150815000Y-119992500D01*
X154178000Y-119992500D01*
X154178000Y-126257492D01*
X154178000Y-126257492D01*
G37*
X154178000Y-126257492D02*
X154033128Y-126985814D01*
X153813173Y-127315000D01*
X144589687Y-127315000D01*
X144589687Y-115356216D01*
X144425689Y-114959311D01*
X144122286Y-114655378D01*
X143787482Y-114516354D01*
X143537440Y-114266312D01*
X143537440Y-114265000D01*
X143490463Y-114022877D01*
X143350673Y-113810073D01*
X143139640Y-113667623D01*
X143130469Y-113665783D01*
X143132123Y-113665463D01*
X143344927Y-113525673D01*
X143487377Y-113314640D01*
X143537440Y-113065000D01*
X143537440Y-112365000D01*
X143490463Y-112122877D01*
X143350673Y-111910073D01*
X143181250Y-111795710D01*
X143181250Y-110887357D01*
X143294332Y-110934313D01*
X143723784Y-110934687D01*
X144120689Y-110770689D01*
X144424622Y-110467286D01*
X144589313Y-110070668D01*
X144589687Y-109641216D01*
X144425689Y-109244311D01*
X144122286Y-108940378D01*
X143725668Y-108775687D01*
X143512440Y-108775501D01*
X143512440Y-108450000D01*
X143465463Y-108207877D01*
X143325673Y-107995073D01*
X143114640Y-107852623D01*
X142865000Y-107802560D01*
X141615000Y-107802560D01*
X141372877Y-107849537D01*
X141160073Y-107989327D01*
X141017623Y-108200360D01*
X140967560Y-108450000D01*
X140967560Y-109450000D01*
X141014537Y-109692123D01*
X141154327Y-109904927D01*
X141298750Y-110002414D01*
X141298750Y-111796808D01*
X141135073Y-111904327D01*
X140992623Y-112115360D01*
X140942560Y-112365000D01*
X140942560Y-113065000D01*
X140989537Y-113307123D01*
X141129327Y-113519927D01*
X141340360Y-113662377D01*
X141349530Y-113664216D01*
X141347877Y-113664537D01*
X141135073Y-113804327D01*
X140992623Y-114015360D01*
X140942560Y-114265000D01*
X140942560Y-114965000D01*
X140989537Y-115207123D01*
X141129327Y-115419927D01*
X141340360Y-115562377D01*
X141590000Y-115612440D01*
X142221312Y-115612440D01*
X142456828Y-115847956D01*
X142594311Y-116180689D01*
X142897714Y-116484622D01*
X143294332Y-116649313D01*
X143723784Y-116649687D01*
X144120689Y-116485689D01*
X144424622Y-116182286D01*
X144589313Y-115785668D01*
X144589687Y-115356216D01*
X144589687Y-127315000D01*
X138685000Y-127315000D01*
X138685000Y-68685000D01*
X153669514Y-68685000D01*
X154033128Y-69229186D01*
X154178000Y-69957508D01*
X154178000Y-74285409D01*
X154027877Y-74314537D01*
X153815073Y-74454327D01*
X153672623Y-74665360D01*
X153639615Y-74829953D01*
X153467460Y-75087602D01*
X153372500Y-75565000D01*
X153422500Y-75816367D01*
X153422500Y-78740000D01*
X153422996Y-78742495D01*
X153047746Y-79117746D01*
X152856986Y-79403238D01*
X152790000Y-79740000D01*
X152790000Y-84090492D01*
X151417746Y-85462746D01*
X151226986Y-85748238D01*
X151160000Y-86085000D01*
X151160000Y-90345107D01*
X151085073Y-90394327D01*
X150942623Y-90605360D01*
X150892560Y-90855000D01*
X150892560Y-91029930D01*
X147562440Y-87699810D01*
X147562440Y-87005000D01*
X147515463Y-86762877D01*
X147375673Y-86550073D01*
X147164640Y-86407623D01*
X146915000Y-86357560D01*
X145915000Y-86357560D01*
X145672877Y-86404537D01*
X145460073Y-86544327D01*
X145317623Y-86755360D01*
X145267560Y-87005000D01*
X145267560Y-88255000D01*
X145314537Y-88497123D01*
X145454327Y-88709927D01*
X145665360Y-88852377D01*
X145902631Y-88899959D01*
X145672877Y-88944537D01*
X145460073Y-89084327D01*
X145317623Y-89295360D01*
X145267560Y-89545000D01*
X145267560Y-90795000D01*
X145314537Y-91037123D01*
X145454327Y-91249927D01*
X145665360Y-91392377D01*
X145888444Y-91437114D01*
X145772877Y-91459537D01*
X145560073Y-91599327D01*
X145417623Y-91810360D01*
X145367560Y-92060000D01*
X145367560Y-93360000D01*
X145414537Y-93602123D01*
X145554327Y-93814927D01*
X145765360Y-93957377D01*
X146015000Y-94007440D01*
X146269809Y-94007440D01*
X146456185Y-94193816D01*
X146703395Y-94358996D01*
X146703396Y-94358997D01*
X146771582Y-94372560D01*
X146060000Y-94372560D01*
X145817877Y-94419537D01*
X145605073Y-94559327D01*
X145462623Y-94770360D01*
X145447515Y-94845695D01*
X145434436Y-94854435D01*
X143811311Y-96477560D01*
X143495000Y-96477560D01*
X143252877Y-96524537D01*
X143040073Y-96664327D01*
X142897623Y-96875360D01*
X142847560Y-97125000D01*
X142847560Y-97825000D01*
X142894537Y-98067123D01*
X143034327Y-98279927D01*
X143245360Y-98422377D01*
X143254530Y-98424216D01*
X143252877Y-98424537D01*
X143040073Y-98564327D01*
X142897623Y-98775360D01*
X142847560Y-99025000D01*
X142847560Y-99725000D01*
X142894537Y-99967123D01*
X143034327Y-100179927D01*
X143203750Y-100294289D01*
X143203750Y-100330000D01*
X143275398Y-100690201D01*
X143479436Y-100995564D01*
X145114436Y-102630564D01*
X145419799Y-102834602D01*
X145561836Y-102862854D01*
X145599327Y-102919927D01*
X145810360Y-103062377D01*
X146060000Y-103112440D01*
X147310000Y-103112440D01*
X147552123Y-103065463D01*
X147764927Y-102925673D01*
X147907377Y-102714640D01*
X147957440Y-102465000D01*
X147957440Y-101465000D01*
X147910463Y-101222877D01*
X147770673Y-101010073D01*
X147704471Y-100965386D01*
X147764927Y-100925673D01*
X147907377Y-100714640D01*
X147957440Y-100465000D01*
X147957440Y-99465000D01*
X147910463Y-99222877D01*
X147770673Y-99010073D01*
X147626250Y-98912585D01*
X147626250Y-98571769D01*
X147764927Y-98480673D01*
X147907377Y-98269640D01*
X147957440Y-98020000D01*
X147957440Y-97595190D01*
X148535630Y-97017000D01*
X150850369Y-97017000D01*
X150591185Y-97276185D01*
X150426004Y-97523395D01*
X150368000Y-97815000D01*
X150368000Y-100874778D01*
X149922200Y-101058980D01*
X149321091Y-101659041D01*
X148995372Y-102443459D01*
X148994630Y-103292815D01*
X149318980Y-104077800D01*
X149919041Y-104678909D01*
X150703459Y-105004628D01*
X151552815Y-105005370D01*
X152337800Y-104681020D01*
X152938909Y-104080959D01*
X153264628Y-103296541D01*
X153265370Y-102447185D01*
X152941020Y-101662200D01*
X152340959Y-101061091D01*
X151892000Y-100874666D01*
X151892000Y-98130630D01*
X152270190Y-97752440D01*
X152540000Y-97752440D01*
X152782123Y-97705463D01*
X152994927Y-97565673D01*
X153137377Y-97354640D01*
X153187440Y-97105000D01*
X153187440Y-96705000D01*
X153162786Y-96577934D01*
X153187440Y-96455000D01*
X153187440Y-96055000D01*
X153162786Y-95927934D01*
X153187440Y-95805000D01*
X153187440Y-95405000D01*
X153162786Y-95277934D01*
X153187440Y-95155000D01*
X153187440Y-94755000D01*
X153140463Y-94512877D01*
X153003032Y-94303664D01*
X153137377Y-94104640D01*
X153187440Y-93855000D01*
X153187440Y-93455000D01*
X153162786Y-93327934D01*
X153187440Y-93205000D01*
X153187440Y-92805000D01*
X153162786Y-92677934D01*
X153187440Y-92555000D01*
X153187440Y-92155000D01*
X153162786Y-92027934D01*
X153187440Y-91905000D01*
X153187440Y-91505000D01*
X153162786Y-91377934D01*
X153187440Y-91255000D01*
X153187440Y-90855000D01*
X153140463Y-90612877D01*
X153000673Y-90400073D01*
X152920000Y-90345617D01*
X152920000Y-86449508D01*
X154178000Y-85191508D01*
X154178000Y-117497500D01*
X151331732Y-117497500D01*
X147954324Y-114120092D01*
X147935463Y-114022877D01*
X147795673Y-113810073D01*
X147584640Y-113667623D01*
X147575469Y-113665783D01*
X147577123Y-113665463D01*
X147789927Y-113525673D01*
X147932377Y-113314640D01*
X147982440Y-113065000D01*
X147982440Y-112365000D01*
X147935463Y-112122877D01*
X147795673Y-111910073D01*
X147626250Y-111795710D01*
X147626250Y-109841250D01*
X147640000Y-109841250D01*
X148000201Y-109769602D01*
X148157231Y-109664676D01*
X148168784Y-109664687D01*
X148565689Y-109500689D01*
X148869622Y-109197286D01*
X149034313Y-108800668D01*
X149034687Y-108371216D01*
X148870689Y-107974311D01*
X148567286Y-107670378D01*
X148170668Y-107505687D01*
X147741216Y-107505313D01*
X147344311Y-107669311D01*
X147110654Y-107902560D01*
X146035000Y-107902560D01*
X145792877Y-107949537D01*
X145580073Y-108089327D01*
X145437623Y-108300360D01*
X145387560Y-108550000D01*
X145387560Y-109250000D01*
X145434537Y-109492123D01*
X145574327Y-109704927D01*
X145743750Y-109819289D01*
X145743750Y-111796808D01*
X145580073Y-111904327D01*
X145437623Y-112115360D01*
X145387560Y-112365000D01*
X145387560Y-113065000D01*
X145434537Y-113307123D01*
X145574327Y-113519927D01*
X145785360Y-113662377D01*
X145794530Y-113664216D01*
X145792877Y-113664537D01*
X145580073Y-113804327D01*
X145437623Y-114015360D01*
X145387560Y-114265000D01*
X145387560Y-114965000D01*
X145434537Y-115207123D01*
X145574327Y-115419927D01*
X145785360Y-115562377D01*
X145888911Y-115583143D01*
X149932884Y-119627116D01*
X150337602Y-119897540D01*
X150337603Y-119897540D01*
X150815000Y-119992500D01*
X154178000Y-119992500D01*
X154178000Y-126257492D01*
M02*
