G04 #@! TF.FileFunction,Soldermask,Bot*
%FSLAX46Y46*%
G04 Gerber Fmt 4.6, Leading zero omitted, Abs format (unit mm)*
G04 Created by KiCad (PCBNEW (2015-01-23 BZR 5386)-product) date Tue 10 Feb 2015 10:46:28 PM PST*
%MOMM*%
G01*
G04 APERTURE LIST*
%ADD10C,0.100000*%
%ADD11C,2.000000*%
%ADD12C,4.000500*%
%ADD13R,0.700000X1.300000*%
%ADD14C,2.500000*%
%ADD15C,3.000000*%
%ADD16C,0.600000*%
%ADD17C,0.400000*%
G04 APERTURE END LIST*
D10*
D11*
X217000000Y-72000000D02*
G75*
G03X217000000Y-72000000I-3000000J0D01*
G01*
X217000000Y-124000000D02*
G75*
G03X217000000Y-124000000I-3000000J0D01*
G01*
X145000000Y-124000000D02*
G75*
G03X145000000Y-124000000I-3000000J0D01*
G01*
X145000000Y-72000000D02*
G75*
G03X145000000Y-72000000I-3000000J0D01*
G01*
X195580000Y-115570000D02*
X204470000Y-115570000D01*
X191770000Y-111760000D02*
X195580000Y-115570000D01*
X182245000Y-97155000D02*
X177165000Y-97155000D01*
X185420000Y-100330000D02*
X182245000Y-97155000D01*
X185420000Y-109855000D02*
X185420000Y-100330000D01*
X175260000Y-117475000D02*
X177800000Y-114935000D01*
X173990000Y-118745000D02*
X175260000Y-117475000D01*
X172720000Y-117475000D02*
X173990000Y-118745000D01*
X191770000Y-100330000D02*
X204470000Y-87630000D01*
X191770000Y-111760000D02*
X191770000Y-100330000D01*
X186055000Y-117475000D02*
X172720000Y-117475000D01*
X191770000Y-111760000D02*
X186055000Y-117475000D01*
X204470000Y-87630000D02*
X204470000Y-80645000D01*
X193675000Y-74295000D02*
X193675000Y-78105000D01*
X206375000Y-74295000D02*
X193675000Y-74295000D01*
X209550000Y-77470000D02*
X206375000Y-74295000D01*
X209550000Y-80645000D02*
X209550000Y-77470000D01*
X207645000Y-109855000D02*
X200660000Y-109855000D01*
X209550000Y-111760000D02*
X209550000Y-115570000D01*
X207645000Y-109855000D02*
X209550000Y-111760000D01*
D12*
X142000000Y-72000000D03*
D13*
X171765000Y-106045000D03*
X169865000Y-106045000D03*
D14*
X209550000Y-115570000D03*
X204470000Y-115570000D03*
X209550000Y-80645000D03*
X204470000Y-80645000D03*
D15*
X180340000Y-109855000D03*
X203835000Y-94615000D03*
X210185000Y-94615000D03*
X160020000Y-75565000D03*
X173990000Y-76200000D03*
X151130000Y-110490000D03*
X151130000Y-102870000D03*
X185293000Y-109855000D03*
X199517000Y-109855000D03*
D14*
X179959000Y-77900000D03*
X179959000Y-74500000D03*
X193421000Y-74500000D03*
X193421000Y-77900000D03*
D16*
X177673000Y-85979000D03*
X176657000Y-85979000D03*
X175641000Y-85979000D03*
X178689000Y-85979000D03*
X178689000Y-84963000D03*
X177673000Y-84963000D03*
X176657000Y-84963000D03*
X175641000Y-84963000D03*
X175641000Y-83947000D03*
X176657000Y-83947000D03*
X177673000Y-83947000D03*
X178689000Y-83947000D03*
X177673000Y-101854000D03*
X176657000Y-101854000D03*
X175641000Y-101854000D03*
X178689000Y-101854000D03*
X178689000Y-100838000D03*
X177673000Y-100838000D03*
X176657000Y-100838000D03*
X175641000Y-100838000D03*
X175641000Y-99822000D03*
X176657000Y-99822000D03*
X177673000Y-99822000D03*
X178689000Y-99822000D03*
D17*
X154940000Y-93980000D03*
X154178000Y-93980000D03*
X155702000Y-93980000D03*
X155702000Y-94742000D03*
X155702000Y-95504000D03*
X154940000Y-95504000D03*
X154940000Y-94742000D03*
X154178000Y-94742000D03*
X154178000Y-95504000D03*
X154940000Y-93218000D03*
X154178000Y-93218000D03*
X155702000Y-93218000D03*
X155702000Y-92456000D03*
X154940000Y-92456000D03*
X154178000Y-92456000D03*
M02*
